<mxfile host="app.diagrams.net" agent="Mozilla/5.0 (X11; Ubuntu; Linux x86_64; rv:135.0) Gecko/20100101 Firefox/135.0" version="26.0.16">
  <diagram name="AWS" id="C-RQtld53psImpgOf9jY">
    <mxGraphModel dx="1674" dy="760" grid="1" gridSize="10" guides="1" tooltips="1" connect="1" arrows="1" fold="1" page="1" pageScale="1" pageWidth="827" pageHeight="1169" math="0" shadow="0">
      <root>
        <mxCell id="0" />
        <mxCell id="1" parent="0" />
        <mxCell id="5ok7K_VNY0OXNwkNnIJL-1" value="VPC" style="points=[[0,0],[0.25,0],[0.5,0],[0.75,0],[1,0],[1,0.25],[1,0.5],[1,0.75],[1,1],[0.75,1],[0.5,1],[0.25,1],[0,1],[0,0.75],[0,0.5],[0,0.25]];outlineConnect=0;gradientColor=none;html=1;whiteSpace=wrap;fontSize=12;fontStyle=0;container=1;pointerEvents=0;collapsible=0;recursiveResize=0;shape=mxgraph.aws4.group;grIcon=mxgraph.aws4.group_vpc2;strokeColor=#8C4FFF;fillColor=none;verticalAlign=top;align=left;spacingLeft=30;fontColor=#AAB7B8;dashed=0;" parent="1" vertex="1">
          <mxGeometry x="20" y="130" width="790" height="360" as="geometry" />
        </mxCell>
        <mxCell id="MpWA2WPv93gBQgQGuGjF-2" value="Region" style="points=[[0,0],[0.25,0],[0.5,0],[0.75,0],[1,0],[1,0.25],[1,0.5],[1,0.75],[1,1],[0.75,1],[0.5,1],[0.25,1],[0,1],[0,0.75],[0,0.5],[0,0.25]];outlineConnect=0;gradientColor=none;html=1;whiteSpace=wrap;fontSize=12;fontStyle=0;container=1;pointerEvents=0;collapsible=0;recursiveResize=0;shape=mxgraph.aws4.group;grIcon=mxgraph.aws4.group_region;strokeColor=#00A4A6;fillColor=none;verticalAlign=top;align=left;spacingLeft=30;fontColor=#147EBA;dashed=1;" vertex="1" parent="1">
          <mxGeometry x="10" y="90" width="810" height="410" as="geometry" />
        </mxCell>
        <mxCell id="5ok7K_VNY0OXNwkNnIJL-2" value="Private subnet" style="points=[[0,0],[0.25,0],[0.5,0],[0.75,0],[1,0],[1,0.25],[1,0.5],[1,0.75],[1,1],[0.75,1],[0.5,1],[0.25,1],[0,1],[0,0.75],[0,0.5],[0,0.25]];outlineConnect=0;gradientColor=none;html=1;whiteSpace=wrap;fontSize=12;fontStyle=0;container=1;pointerEvents=0;collapsible=0;recursiveResize=0;shape=mxgraph.aws4.group;grIcon=mxgraph.aws4.group_security_group;grStroke=0;strokeColor=#00A4A6;fillColor=#E6F6F7;verticalAlign=top;align=left;spacingLeft=30;fontColor=#147EBA;dashed=0;" parent="MpWA2WPv93gBQgQGuGjF-2" vertex="1">
          <mxGeometry x="524" y="100" width="240" height="280" as="geometry" />
        </mxCell>
        <mxCell id="5ok7K_VNY0OXNwkNnIJL-8" value="Security group" style="fillColor=none;strokeColor=#DD3522;verticalAlign=top;fontStyle=0;fontColor=#DD3522;whiteSpace=wrap;html=1;" parent="5ok7K_VNY0OXNwkNnIJL-2" vertex="1">
          <mxGeometry x="10" y="45" width="220" height="225" as="geometry" />
        </mxCell>
        <mxCell id="5ok7K_VNY0OXNwkNnIJL-4" value="Amazon RDS" style="sketch=0;outlineConnect=0;fontColor=#232F3E;gradientColor=none;strokeColor=#ffffff;fillColor=#232F3E;dashed=0;verticalLabelPosition=middle;verticalAlign=bottom;align=center;html=1;whiteSpace=wrap;fontSize=10;fontStyle=1;spacing=3;shape=mxgraph.aws4.productIcon;prIcon=mxgraph.aws4.rds;" parent="5ok7K_VNY0OXNwkNnIJL-2" vertex="1">
          <mxGeometry x="80" y="107.5" width="80" height="100" as="geometry" />
        </mxCell>
        <mxCell id="MpWA2WPv93gBQgQGuGjF-3" value="Availability Zone" style="fillColor=none;strokeColor=#147EBA;dashed=1;verticalAlign=top;fontStyle=0;fontColor=#147EBA;whiteSpace=wrap;html=1;" vertex="1" parent="MpWA2WPv93gBQgQGuGjF-2">
          <mxGeometry x="20" y="80" width="760" height="310" as="geometry" />
        </mxCell>
        <mxCell id="5ok7K_VNY0OXNwkNnIJL-3" value="Public subnet" style="points=[[0,0],[0.25,0],[0.5,0],[0.75,0],[1,0],[1,0.25],[1,0.5],[1,0.75],[1,1],[0.75,1],[0.5,1],[0.25,1],[0,1],[0,0.75],[0,0.5],[0,0.25]];outlineConnect=0;gradientColor=none;html=1;whiteSpace=wrap;fontSize=12;fontStyle=0;container=1;pointerEvents=0;collapsible=0;recursiveResize=0;shape=mxgraph.aws4.group;grIcon=mxgraph.aws4.group_security_group;grStroke=0;strokeColor=#7AA116;fillColor=#F2F6E8;verticalAlign=top;align=left;spacingLeft=30;fontColor=#248814;dashed=0;" parent="MpWA2WPv93gBQgQGuGjF-2" vertex="1">
          <mxGeometry x="44" y="100" width="280" height="280" as="geometry" />
        </mxCell>
        <mxCell id="5ok7K_VNY0OXNwkNnIJL-9" value="Security group" style="fillColor=none;strokeColor=#DD3522;verticalAlign=top;fontStyle=0;fontColor=#DD3522;whiteSpace=wrap;html=1;" parent="5ok7K_VNY0OXNwkNnIJL-3" vertex="1">
          <mxGeometry x="30" y="45" width="220" height="225" as="geometry" />
        </mxCell>
        <mxCell id="MpWA2WPv93gBQgQGuGjF-5" value="EC2" style="sketch=0;points=[[0,0,0],[0.25,0,0],[0.5,0,0],[0.75,0,0],[1,0,0],[0,1,0],[0.25,1,0],[0.5,1,0],[0.75,1,0],[1,1,0],[0,0.25,0],[0,0.5,0],[0,0.75,0],[1,0.25,0],[1,0.5,0],[1,0.75,0]];outlineConnect=0;fontColor=#232F3E;fillColor=#ED7100;strokeColor=#ffffff;dashed=0;verticalLabelPosition=bottom;verticalAlign=top;align=center;html=1;fontSize=12;fontStyle=0;aspect=fixed;shape=mxgraph.aws4.resourceIcon;resIcon=mxgraph.aws4.ec2;" vertex="1" parent="5ok7K_VNY0OXNwkNnIJL-3">
          <mxGeometry x="101" y="107.5" width="78" height="78" as="geometry" />
        </mxCell>
        <mxCell id="5ok7K_VNY0OXNwkNnIJL-11" style="edgeStyle=orthogonalEdgeStyle;rounded=0;orthogonalLoop=1;jettySize=auto;html=1;exitX=1;exitY=0.5;exitDx=0;exitDy=0;" parent="MpWA2WPv93gBQgQGuGjF-2" source="5ok7K_VNY0OXNwkNnIJL-9" target="5ok7K_VNY0OXNwkNnIJL-8" edge="1">
          <mxGeometry relative="1" as="geometry" />
        </mxCell>
        <mxCell id="5ok7K_VNY0OXNwkNnIJL-13" value="O SG do RDS permite somente solicitacoes do SG da camada de aplicacao na porta do banco de dados" style="text;html=1;align=center;verticalAlign=middle;whiteSpace=wrap;rounded=0;" parent="MpWA2WPv93gBQgQGuGjF-2" vertex="1">
          <mxGeometry x="324" y="280" width="200" height="30" as="geometry" />
        </mxCell>
        <mxCell id="MpWA2WPv93gBQgQGuGjF-1" value="&lt;h1 style=&quot;margin-top: 0px;&quot;&gt;Security Group&lt;/h1&gt;&lt;p&gt;Como fazer o DB inacessivel da internet&lt;/p&gt;" style="text;html=1;whiteSpace=wrap;overflow=hidden;rounded=0;" vertex="1" parent="1">
          <mxGeometry x="300" y="10" width="280" height="70" as="geometry" />
        </mxCell>
        <mxCell id="MpWA2WPv93gBQgQGuGjF-6" value="" style="shape=image;verticalLabelPosition=bottom;labelBackgroundColor=default;verticalAlign=top;aspect=fixed;imageAspect=0;image=data:image/png,iVBORw0KGgoAAAANSUhEUgAAAy4AAAFgCAYAAABdfi2eAAAABHNCSVQICAgIfAhkiAAAABl0RVh0U29mdHdhcmUAZ25vbWUtc2NyZWVuc2hvdO8Dvz4AAAAtdEVYdENyZWF0aW9uIFRpbWUAVGh1IDI3IEZlYiAyMDI1IDEwOjIwOjEwIFBNIC0wNH8Q/ZMAACAASURBVHic7N15fFT1vfj/1+xbJpnse0IghLBD2MImq4C4ICiuVevV9rrV3tq9vd96q/a2916r1VvUWrV1Y3FDUUT2fZElYCAkhAQSyL5Nlklmn/P7g9+cSyBsLUrU9/Px6KNycuacz5n5zJnz/mxvjaIoCkIIIYQQQgjRi2mvdAGEEEIIIYQQ4kIkcBFCCCGEEEL0ehK4CCGEEEIIIXo9CVyEEEIIIYQQvZ4ELkIIIYQQQoheTwIXIYQQQgghRK8ngYsQQgghhBCi15PARQghhBBCCNHrSeAihBBCCCGE6PUkcBFCCCGEEEL0ehK4CCGEEEIIIXo9CVyEEEIIIYQQvZ4ELkIIIYQQQoheTwIXIYQQQgghRK8ngYsQQgghhBCi15PARQghhBBCCNHrSeAihBBCCCGE6PUkcBFCCCGEEEL0ehK4CCGEEEIIIXo9CVyEEEIIIYQQvZ4ELkIIIYQQQoheTwIXIYQQQgghRK8ngYsQQgghhBCi15PARQghhBBCCNHrSeAihPjWUBTlShdBCCGEEP8gCVyEEN8KgUAAr9d7pYshhBBCiH+QBC5CiK+M3++nrKyMHTt24PF4vrIekK6uLpYtW8bdd9/N4sWL8Xg8X8l5L1VbWxuHDx/mwIEDV7ooQgghRK8jgYsQ4rI7efIkRUVF1NTUdNteUVHBhx9+yCuvvEJBQQGBQOArKU9tbS0FBQUcPnyYqKgoNBrNV3LeS1VQUMArr7zCq6++SkVFBcFg8EoXSQghhOg1JHARQlx2xcXF7Nixg8rKyitdFADKy8tpampi0KBB5OXlYTAYrnSRhBBCCHGJ9Fe6AEKIr49AIEBnZ6f6b71ej9Fo7BYIhEIhiouLKSkpITk5We010Gq19OnTh3nz5pGfn09eXh56vZ5QKIRGo+mxFyQUCqmvPb0MXq+XQCCAVqvFYDBgMpnO2Yvi9XopKiqiq6uLyZMnk5ycrB5bo9EQDAbx+Xz4/X4AbDYbev3Zt0a3243f70dRFDQaDTqdDqvV2u28iqIQDAbp6upCURS0Wi1GoxGTydStPH6/n2AweFb58/LySEhIwOv10qdPn27lvNj358zjm81mCdSEEEJ8I0jgIoS4KF6vl9raWoqKitRtdrudtLQ00tPT0ev1eL1enE4nBQUFlJeXM3HiRKqqqgBITEzEYDAQHx+P3W5Hp9MRCoVobGzEaDRit9u7PWAHAgGcTicA0dHR6HQ6/H4/1dXVVFVV0d7erh4vOzsbm83W7QE+rK6ujj179tDZ2cnIkSPVYzc1NWEwGHC73VRWVtLa2grA0KFDSUhIwGg0otVqURSFrq4uSkpKaG5uxu/3o9PpiIiIYMiQIeq1KIqCx+OhoaGBkpISAoEARqORtLQ0+vXrh8FgwO/3U15eTl1dHW63Wy1/bm4uZrMZq9VKcnKyGiD5fD5aWlqwWCzqeU7/PNra2tDpdMTExADg8Xg4fvy4enyz2ax+Pmazucf3RwghhPi6kMBFCHFRVq5cyVNPPcXx48fVbRqNhhkzZvBv//ZvjBo1ik8++YQ//vGPHDhwgGAwyKFDh9RgZNmyZWRkZPDGG2+wbds2/vu//5uYmBgeeughkpKSuO+++5g8ebJ67MLCQp555hkAHnvsMYYMGcKGDRt48sknKS4uVns+IiIiePTRR7njjjtISUk5q9wFBQVUVVXRt29fcnNzCQQCFBYW8pOf/ISEhAQURWHdunVq78WoUaP4l3/5F2bPnk1sbCxdXV0888wzLFu2jOrqavW4FouFW265hUcffZS+ffvicrnYtm0bv/3tbykvLycQCKDRaJg8eTKPPPIIU6ZM6bH8DoeDv/zlL4wbN44jR47w6quvUl1dzZtvvsnOnTv53e9+x8SJE7nvvvvIyclRz//ZZ5/x8ssv069fP5544glMJhNLly5l0aJFHDt2TD1+VFQUTz75JHPmzCEuLu7yVgohhBDiKySBixDiogwcOJAf//jHxMbGqtu2bdvGwYMH+fjjj8nPz2fo0KE8/PDDvPzyyzQ0NDBjxgwGDhwIQP/+/fH5fHR2dtLa2kowGCQ+Pp5Ro0ZRWlrK0aNHuwUuR48eJRgMMnDgQJKTk9m7dy+//e1vycrK4tZbbyUrKwu3201BQQF///vfMRgM3HjjjWRmZnYrd2FhIQkJCeTn5xMdHY2iKAQCAVpbW4mMjOSaa67hjjvuwGAwUF9fz/vvv8+GDRuIi4tj1qxZGAwGJk6cyLBhw9DpdOj1epxOJzt37uTjjz9m0qRJxMbGUlxczOrVq8nMzOTnP/85FosFgIiICFJSUmhubuapp54iMzOT73znO2RlZREKhQiFQgwcOBCz2Yzf76ejo0PtSRk6dCjx8fHU1dVx4sSJboHLgQMHcDgcjBw5Eq/Xy+rVq3nuuecYP348jzzyCElJSTQ1NbF582aefvppjEYjM2fOVHtnhBBCiK8bCVyEEBclMzOT+Ph4oqKium0/evQohw4dIhAIkJGRgd1uZ+3atYRCISZMmMD06dMBiI2NVYeNwaneGrPZzMiRIyksLOTgwYM0NjYSFxeH3+9n//792O12hg8fjlar5YsvvqCoqIjbb7+defPmkZiYSCAQIDs7mz179rBnzx5GjBihBi7BYJDy8nL27NlDcnIyQ4YMQa/Xq3NZADVwGjJkCFqtFpfLRW1tLRs2bGDHjh1MmjQJs9nMiBEj1Lk8Wq0Wp9NJKBTijTfeoKmpCY/Hg9vtxul0otPpGDx4MGlpaRgMBkKhEIqi0NbWRmtrK0OHDmX48OHk5eWh1WoJBoPo9fqz5tXodDoSExPJy8vjwIEDlJWVMXPmTILBICdPnmTv3r306dOHoUOH4nK52LlzJ1arlWuuuYZJkyZht9tpb28nKiqK9957jz179jBkyBAJXIQQQnxtyYBnIcRFc7lc7Nu3j82bN7N9+3bq6urwer20t7cTDAYxm83ExMRgNpsxGo04HA6Sk5NJTk7GaDT2eMxhw4YRFxdHdXU1ZWVlhEIhjh8/zoEDB4iKiqJ///50dnZSXFxMMBgkKyuLxMREzGYzERER5OTkkJ+fz7Fjxzhx4oS6GIDf72ffvn00NDSQmZlJdnb2WeeOjIzsVt6YmBhyc3Px+XyUlZXR3NyMRqPBYrFQU1PDnj172LRpE3v37sXlcqm9N6FQiMTERLKzs6mpqeH1119n3bp1lJeX4/V61fkr06ZNo6amhk8//ZQ1a9Zw5MgRAoEAer2+x8n3er2eMWPGoCgKRUVF1NfXEwgEKCgooKOjgz59+pCRkUFzczO7du0iPT2d7OxsYmJiMBgMOBwOhg8fTk5ODrW1tTQ3N1/eCiGEEEJ8haTHRQhxQW63m0OHDrFt2zZaWlro6urCZDKpk/H/GTk5OYwcOZLPP/+coqIiRo4cye7du+no6CAtLY3U1FSqq6uprq4mGAxiMBi6TVLXarUkJSVRX19PU1OTuppWZ2cn27ZtIy4ujqFDh5KUlHRR5TGZTOj1etxuN62trcTHx7Nr1y4OHDhAbW0tXq8Xg8GgBi1hmZmZTJs2jcOHD/PJJ59QXl7OwIEDGT16NGPGjCE6OprbbruNRYsWsX37dsrKyujfvz/Dhw9Xh5v1ZNiwYSQlJVFbW8vhw4cZM2YMO3fuJCMjg2HDhhEdHU1BQQEHDhwgNTW122t1Oh0Oh4MhQ4bQ1dXVaxNvCiGEEBdDelyEEBdUXV3NkiVL+POf/0xUVBSzZ89m4sSJJCcndwsi/lHDhw8nPj6ewsJCurq62LdvH6NGjWLUqFFERUWh1WrVXglFUbq9VlEU2tvb1X0AfD4fVVVVLFu2jOzsbLKysi66LOGhXeEVuOrr6/nlL3/J9u3bSUlJUa/dYDB06yWx2WyMHz+eF198kT/84Q/07duXFStW8Ic//IFVq1ah1+uZOHEizzzzDP/+7//O4MGD2bZtGw899BBr166lra2tx/KkpKQwfvx4EhISKCkpURcB6N+/P+np6Wg0GrRaLSaT6az3Bv5vBbVgMNhrE28KIYQQF0MCFyHEBTU1NdHU1ERKSgr33nsvU6dO5eqrr2bs2LEkJib+08cfMGAADoeDHTt2sHnzZpYtW4bD4SAhIQEAq9XKgAED0Ol0tLa24na71deGQiGqq6sZMWIE2dnZGAwGOjo6OHDgAH6/n8GDB190bwtAc3MznZ2dOBwO4uLiKCkpoby8nAkTJnDjjTcyY8YMJk2axLhx487Kj6LT6YiKimL69On86le/4je/+Q1xcXEsXrwYj8eDoigkJCQwefJkHnvsMf7whz9w1VVXsX79epqams77/litVtauXcvatWspLS2lT58+JCYmotfrSUlJYcaMGXR1dXXrBfL7/TQ0NLB7925iYmJkfosQQoivNQlchBAXFF79yu12c/z4cfx+P1VVVRQVFXVbIvh0bW1tlJaWcujQIQ4dOtQtceWZYmNjGTJkCImJibz//vvY7XYmTJhAeno6AA6HQ+3l2Lhxozp35eTJk2zcuJG1a9eSlZWl9kA4nU52795Nfn4+w4cPJzo6usfzHjlyhB07dlBaWkpjYyNbt25l6dKlxMfHM2PGDMxmM4FAgEAgQE1NDW1tbbjdbqqrq9UFCcKqq6v5/PPPqaurIxgMqokozWYzqamptLe3U1BQQF1dnZrwsq2tjbq6OqKios6bJDIzM5OoqCgKCgpYs2YNU6ZMYfDgwdjtduBUnpvx48dTVFTEihUrKCwspLGxkdLSUjZu3EhnZyfDhw8/ayiZEEII8XUic1yEEBeUkZHB6NGjqaio4He/+x3x8fFqUkiz2dxt7oTBYGDcuHFUVlaydOlSduzYQVxcHI899tg5h5UZDAb69u1Lv379WLlyJRMnTiQrK0tdUthqtTJ06FC+973vUVpayp///GciIiIIBAK0tLQwdOhQZs6cSXp6Op2dnZSWlrJ161YWLFhASkrKOYMCr9fLvn372L59O263m4aGBjQaDddccw35+fnYbDZycnK44YYb2LdvH5WVlSQlJREVFYXJZOp2rKqqKt59910aGhowm80Eg0GcTifJyclMnz6dhoYGPvzwQxoaGtRA0OVyER8fz9y5c4mLi6O+vr7HckZHRzN48GAyMjLYvXs3//qv/0pSUpI6NC4mJoZZs2Zx9OhRNm7cSEFBAZGRkfj9fnw+HzfffDPjxo07ZwAnhBBCfB3o/uM//uM/rnQhhBC9m9VqVR/W6+vr8fl8pKenM2zYMPr06UNWVhbjx49Hp9Oh1WqJiorCZrMRDAax2WwkJyczatQo7HY7wWCQhIQExo8fj8PhUOeS6PV6zGYzOp2OG2+8kdzcXDVw0Wq1WK1WsrKy0Ov16tLCAMnJydx+++2MGzcOh8NBTU0NGzZs4NNPP+WRRx4hJycHs9msXksoFKKuro5PPvmEPn36MHjwYPx+P3V1dcTExDB37lxmzJhBRkYGBoOByMhIEhIS6OjooL29HYPBQL9+/Rg1ahRWq5UpU6aQmZmJ3++nvr6empoaOjo68Hg8ZGRkMH36dCZNmgScGoZWW1uL0+nE6/USFxfH3LlzmT59Ona7nUAggFarJSMjQ30/NRoNOp0Oi8VCTEwMERER3HDDDaSnp6sBmcFgIDY2ltTUVFwuFx0dHbjdbnUp5wULFpCbm4vVav0qq40QQghxWWmUnmZzCiFED9xuNzU1NcCpSeMWi0UdFnXmcsfBYFDNmWIymdSJ4efaH04FFT6fr9v+PampqaGlpQWj0UhCQgJRUVHq/jt27OAvf/kLhYWFvP/++2RkZHTLkRLOEfPAAw8wbdo0Hn74YRITE6msrCQxMZGoqKizcqrAqXk+TqcTm81GSkoKiqLg9XoxGo1q8OX1emlsbKStrQ1FUUhJSTlrXklNTQ3t7e3AqeWYU1JSznrf/pn3p6Ojg6amJjo7O7HZbJe0MIEQQgjRm8lQMSHERbNYLPTr16/bNp1O1+MQsEvdDqd6Vk7vHTmXlJSUsx744dQKYzU1NTQ1NXHPPfd0G051PjabjUGDBp13n7i4OOLi4tR/hxNons5kMpGWlkZaWtollz3sn31/7Ha7OvdFCCGE+CaRwEUI8Y3h9/sZMWIEP//5z8nKylLnoUjHshBCCPH1J0PFhBDfGOGhVH6/H7PZ3OOk/FAoRHNzMxs2bCAtLY1hw4ZJD4UQQgjxNSCBixDiWycQCNDa2orJZMJqtV6WJJpCCCGE+HJJ4CKEEEIIIYTo9SQBpRBCCCGEEKLXk8n5l1kwpOD2hwiGpCNLCCGE+IdoINKk5zyrogshvoUkcLmMgiGFskY3f/u8lkqn58IvEEIIIUQ3wZCCQafhhVsGEGWWxxQhxP+RO8JlpABBRcHjD9LpDV7p4gghhBBfO8GQglGvRWbgCiHOJIHLZaaB/79rWyE50kS/OAuh0BUulBBCCNHLeYMh6ju8nHR60coQMSFEDyRw+ZIEQ5DqMDF3UCxBaTUSQgghzqvdHWB3ZRsnnd4rXRQhRC8lgcuXJKgoOCx6hqREXOmiCCGEEL1ek8tPRYvMDxVCnJsshyyEEEIIIYTo9SRwEUIIIYQQQvR6ErgIIYQQQgghej0JXIQQQgghhBC9ngQuQgghhBBCiF5PAhchhBBCCCFEryeBixBCCCGEEKLXk8BFCCGEEEII0etJ4CKEEEIIIYTo9SRwEUIIIYQQQvR6ErgIIYQQQgghej0JXIQQQgghhBC9ngQuQgghhBBCiF5PAhchhBBCCCFEryeBixBCCCGEEKLX01/pAojLKxAIEAqFztqu0+nQ6XRf2nlPnjxJcXExoVCIOXPmfGnnEUIIIYQQ304SuHyDBINBNm3axMGDB8/6W0ZGBgMHDiQzMxObzXbZz11XV8e6detobW1l5syZ6PVStYQQX0+KohAMBi/qPhYKhVAU5bI3DFVXV1NVVUVUVBS5ubmX9dhncrvdnDhxgqqqKvLy8oiOjv5Szycuv0uph8FgEOCS66zf76e5uZni4mKysrJISkrCbDaf9zWKouByuWhpacHhcBAVFXVJ5zwXn89He3s7HR0dZGRkfKkNs6J3kafLbxC/38+7777Lm2++SVxcHHFxccCpG1pycjLjx49n9uzZjBs37ks5d3V1NSdPnsTn86HT6dBoNJf9PEII8WXq6uqiurqaiooK0tPTyczMxGKx9LhvQ0MDJ06cwOfzMWTIEOx2+2W775WUlPDhhx+SnZ1NTk4OWu2XN7K7o6OD7du388EHH/Dkk0/icDjk/v01UldXp9bD/v37Ex8f32N9CQaDlJaWUl9fT3x8PAMHDrykeuXxeDh69Ch/+tOf+M53vsPUqVPVwCUUCtHS0oJer8dqtWI0GoFTzwb79+9n3759jBo1ijFjxpzz+3QpGhoa+PzzzykrK+Oee+4hLi4OvV6P2+2ms7MTo9F4Wb+PoveQOS7fQGlpadx222289NJLvPTSSzz33HP079+fVatWsXjxYgKBgLpvuGXR7/er/+tpqFlYKBQiEAjg9/u7HedCFEXp8b8vRSgUUssYDAYv6Thnlvt81yiE+PaqqKjg5Zdf5oYbbuDJJ5/k2LFjPd4vAoEAq1ev5tFHH+WRRx6hpKTkku6JF+LxeCgqKuLw4cP4fL7LdtyeBINB2tra2LJlC/X19Zf1OsSXb9WqVTz88MPce++9fPzxx3g8nrP2CYVCtLe388QTTzB//nyef/75S65X4WP0VE98Ph8bN25k9+7dNDU1qdu9Xi/Lly9n0aJFrFmzhvr6+n/8Qk9z9OhR3njjDRYtWkRhYSFdXV0AnDhxgo0bN1JUVCT1+BtKely+oSIiIhg5ciTwf8FJQ0MDe/bsoaysjOzsbPR6PZ2dndTX19Pc3Ky+Nisri+jo6B6HSTidThoaGujo6ECv1zNs2LALDqcIBAIEAgG1Zcbr9aLX6y95OFljYyOVlZVotVpiYmJISUm5YDc1nLrZOp1Oqqur8Xg8WCwW4uPjSUpKuqTzCyG+PbxeLx988AFTpkwhLi6OxMTEbn8/evQoq1atYu/evQwZMuQKlVKI/1NfX8/SpUuZO3cuJpOp2/Apn8/HunXrOHjwIG1tbZf93H6/n61bt9K3b18yMjJISUkBwGKx8L3vfY/x48czcOBA0tPTL8v5hg0bxs9+9jOOHz/O+PHjiYiIAKCqqort27czbtw4Ro4cicFguCznE72HBC7fUBqNptsX1mw2o9PpCAaDGAwGNBoNNTU1/OUvf+Gzzz7D7/er+2ZlZTFv3jxmzpxJSkoKiqLg9Xr5+OOPWbFiBSUlJQSDQUwmEzNnzuT+++/vsQxNTU289957HD58mBEjRnDrrbdy4sQJnn76afr06cP8+fO7/eC/+eabVFRUMGbMGObMmUNXVxcvvfQSAO3t7ZSUlFBaWgqA0Whk4cKFzJs3j+zs7HO+D62trWzfvp3nnnuOuLg4bDYbzc3NmM1mHn74YcaOHSs3NiHEWfR6PWPGjOHIkSOcOHHirMBlz549OJ1O7HZ7j6/3er04nU619dlut6v3oDP5/X5aWlpobGxEp9ORkZFx3l7htrY2mpub6erqQqvVkpiYSFRU1EU1BoXv59XV1bjdbqKioi7Yy97Q0EBrayuBQICoqCgSExPVoUCid0hLS8NisdDe3s7mzZuZNWsWsbGxwKnPsK2tjXfffZdQKKQ+5J8uPMT7zLki59p+unBPzLp165g/fz5erxePx4NWq8VgMNC3b1+io6Ox2+3qcc6sVyaTiejoaHWIO3Sv5xqNhqioKOLj4zGZTERFRTF06FD69OmDzWZDo9Hg9/spLy9n165djB49Wu15MhgM6nkVRaGtrY2GhgZ8Pl+P5xW9mwQu31Aej4djx44B4HK52L59O4FAgBkzZpCQkIBWq8VoNJKbm4teryciIgJFUfD7/axevZpt27aprSY+n48NGzawcuVKfD4f06ZNIzk5GY1GQ2RkJCaTqdu5Q6EQzc3NLFmyhJ07d5KSkkJubi5arZb29nb279+Px+Ohvb292+sqKiooLi4mLS0NONVTU1paSktLC1lZWYwbN45x48bh9/vZt28fn3zyCXa7HYfD0eNNp729nV27drFo0SJSU1OZPHkycXFxlJSUsHfvXpYuXUpubi7R0dFf6vhxIcTXj8lkYvbs2WzevJn09HTS09NJSkoiGAxSXl7Op59+isViYejQoWfdy06ePMmGDRtYv349nZ2d6vEmTpzIzJkzGTBggLpvW1sb69atY9OmTdTU1KDX6+nfvz+BQIDW1tazylVQUMCqVas4dOgQPp8PjUaD3W5nwYIF5OfnEx8ff85r8vv91NXV8fbbb3P48GE6OzuJjY0lMTERp9OpTtoOczqd7Nixgw8//JDExER1mG5OTg433XST3Dt7EYvFQlZWFhEREaxcuZKcnBzsdjtGo5HW1la2bdtGZWXlWb2Dfr+fAwcO8MknnzB06FCmTp1KXFyc+jzw/PPPExMTw9SpU9VA6HR1dXXs2LGDjz76iOPHj7Nq1SrKyspwOBz079+fBx98kKKiIlauXMnkyZOZOnUqbrebwsJCXn/9dZxOJ6FQCL1eT05ODvfddx/p6emUl5ezYsUK9u3bp9Zzs9nMvffey5gxY+jq6mLHjh1s376dX//611RXV7Nu3Tref/99jhw5wuuvv86mTZvQ6XQsXLiw23kXL16MxWLBaDTicrmw2WzcfvvtDBo0SBYW+hqQT+gyU4CQAqHQqf+/Etra2vj888/V1gaXy0VZWRlxcXGMHj1abSGMiopi1qxZzJo1C7vdjqIo+Hw+Tp48SX19PdXV1eowq9dffx2fz8fcuXO5+uqrSUlJUSfjnb4CTSAQoLGxkTVr1rB582b69OnDDTfcwJgxYwD+oYlyfr+fwYMHM3v2bKKjo/H5fGzfvp2f/vSn7Nmzh7Fjx/YYuDQ1NbF//35KSkr46U9/ql57bm4uHo+HpUuXcv/992Oz2S5qyJkQ4tvDYDAwceJECgsLKSwsZNCgQSQlJeH1evnss89ob29n5MiRNDQ0sG/fPvV1LS0tfPbZZ+o+6enpGAwG6urqWL16NZ2dndx6661kZmYSCARYt24dK1eupLGxkYSEBAwGg9qw43a71eOGA6a3336bI0eOYLFYiIuLIxAIUFZWxuLFiwkGg0yfPp3IyMizricUClFTU8O7777Lhg0biI2NJSYmBpPJREdHBy0tLd16XsJBy2uvvYZer2fgwIEoikJpaSk7duwgNTWVmTNnntVw9c9QgGBIwRdUUDRX6Af0ayw+Pp5p06bxxBNPsGfPHhITE0lISKCsrIwlS5aQm5vLgAEDqKurU18TDAY5cuQIy5Ytw+VykZeXp/6eBgIBVqxYQXp6Orm5uT0GLoFAAJfLRXNzM4qi0NXVhdPpJBAIkJCQoC4IsGzZMhwOB5MmTeLEiRP89a9/5fjx46Snp2Oz2QiFQuh0OnVo+fLly9m6dStarZbk5GQAdQ5u+Nlj586dvPHGGzz66KO43W5aW1vp7OwkGAzS3t5OU1MTOp0Oj8dDV1cXhw4d4pVXXqG+vp6xY8cSGxtLWVkZX3zxBSaTiYyMDKKiomRCfy8ngctlpAHMei3JkSbc/hBxtiszBKmjo4Py8vJuE+9MJhNGo5Gqqip1RRGDwYDRaFS7Y4PBIGazGZvNhk6nw+fz4fP5qKmpYd26ddxxxx2MHTuWPn36qMcNj2MNa2trY+PGjbzxxhvk5eWxYMECxowZg8Fg6DYc7VJYLBaSk5PVoRrhIRyRkZHU1NRQU1PDiBEjznpdc3MzVVVVJCYmYrFYOHnyJID6A11bW0tVVRV9+vSRwEUI0Y1OpyMrK4u5c+eycuVKduzYwYgRI2hvb+ejjz5iwoQJjB49mi1btnR73dGjR1mxYgUej4fHHnuM/Px8zGYzxcXF/OlP0xjwvQAAIABJREFUf2LdunWkpqaSnp5OU1MTb7/9NqFQiNtvv51rr70Wg8FAW1sb7733XreAyOv1snbtWjZv3szVV1/N3XffTVZWFl6vlzVr1vD444/jcDjo168fQ4cOPet63G43Bw8e5K9//as6xDfcs1NaWspbb73VrfekoqKCtWvXqq3X4dbonTt38t577/HOO+8wYcIEjEbjZXvQM2g1xNsN5Cba0Os06LTyAHkp7HY7Y8aMoW/fvmzevJnMzEwGDx5MQUEBe/fu5bnnnsPlcl3WXoX4+HiuvvpqMjIy2LFjB5MmTWLevHlkZWVhs9nOGlIYCoWoq6vj008/5cEHH+TOO+8kPT2dYDCoDkFXFIUNGzYQGRnJvffey9SpU9FoNHg8HoxGY4+/1zk5OcTGxuL3+1m6dCk333wz06dPx2QykZKSogbiq1ev5sUXX2TKlCk4HA4OHz7M4sWL+eijj7j99tu7rYgmeicJXC4jrVZDcpSR2/IScPuCOKxXJnBJS0vjzjvv5Kc//am6raSkhFdffZWXX34Zu93Obbfdhk6nY//+/ezcuZOTJ0/i9XpJTk6mvLxcHTLg9Xqpra0lFAphNpsvOB/kxIkTLFq0CJvNxi233MKoUaMu+xyScJexVquloaHhnKuUtLa2UlVVhc/n48UXX+x2s25sbCQqKkqd7yOEED2ZNGkSGzZsYPfu3fTt25eOjg6Kiop44IEHyMzMPGv/Y8eO0dzcTG5uLvn5+WqPdF5eHjNnzmT58uXs3r2bm2++mUOHDlFWVsZVV13FyJEj1RwXVquVvn37dst54ff72bt3L9nZ2UyfPp2BAwcCp+b7TZ8+nRdeeIETJ05w/PjxHgOXpqYmioqKqK+vZ8qUKWRmZqpzHdLT08nKyuo2j6Guro66ujrmzJlDSkqKuqKjxWJBq9Xy6aef8sQTTxAZGXnZcmg4rHquHRzHtYNPtfhLn8ul0Wq1OBwO7rnnHn75y1+yY8cOOjo6+OKLL5g0aRJTp05l27Ztl/WcJpOJhIQEdS5MdHQ0/fr1Y9CgQQBnrXCm1+txOBxkZ2fjdDppaWlR535ZrVY1eM7KyqKtrY2mpiY6Ojqw2+3qHJmefrPtdjtWq5X4+HiMRiPJyckMHjxYDXIqKiqorq4mKyuLkSNHqkPXjUYj0dHRVFRUUFZWRlJSkgQuvZwELpeRBjAbdKRHm1GAK9lYpNVqu62VPmzYMObMmUNjYyMFBQXcfPPNbNu2jeeff57Ozk4WLlxIv379aGlp4fjx47hcrn/ovNHR0UyYMIE333yTrVu3kpaWRlZW1uW6rEtmtVoZMmQICxcu7NZKEx4SkZeXh9VqvVLFE0L0cunp6Vx//fWsWrWKd999F51Ox2233caIESN6fICqqKigpaUFg8FwVstweG7gwYMH6erqor6+Hp/Ph9FoPO/DUni54rVr16oPhGFarZbo6GgmT57M0aNHcTqdPR6jq6uLlpYWNBoNVqv1vMGG3++nrKyMTZs2MWrUKH7zm9+o+7tcLsrLy8/52stJmpQuncFgYPr06UyePJmSkhK2bNlCe3s7v/jFLy7rsL5/RmpqKrfffjtPPfUUmzdvZvz48Vx99dVMnDhRXe3zxhtv5LnnnuP//b//x/vvv8/UqVOZO3cumZmZ/9AIiZaWFioqKujs7OS3v/2t2qAaCoWoqqq6rNcnvlwSuFxmGug13dun/6jq9Xq1q9Xv96MoCkVFRZhMJsaPH8+NN96I1WrF5/NRWFioTuw3mUwkJyej1WpxOp3qWunnkpSUxL333ovRaGTlypVq7875JoxeKkVRcDqd+P1+ddJsTxwOB3a7nS1btvCjH/2I9PT0br0uF/MDLoT4dtPpdOTl5VFQUMDy5cuJiori+9//PgkJCd2WkQ87PU/UmYGN3+/H6/USCARQFKXbfhfq+Q2vBtbTCmBarVYd2nuuFcLOPN+FzhUIBNS5LacvKxsKhdRriIuLk8n5vYxGo8FoNDJlyhReffVVqqqqmDJlCjNmzOg1PQmxsbEsWLBAHeFRXl7OX//6V5YvX85jjz3GsGHDyM/Px2azcfDgQY4fP86WLVt49913efjhh5k5c+Yln1NRFIxGIzk5OUydOrVbEOf3+5k/fz5Dhw69LMkxxZdLApdvqNNXFQOora1l8+bNNDU1cd1112EwGOjo6FCXGQwPA6usrKSurk6dFGo0GklJSWHmzJkcPnyYLVu2YLPZiIiIUOeshCfOwalll7Ozs/nud79LfX0927ZtIzo6muuvv56IiAiSk5MxmUy0traq+WCCwSCVlZUcP35cXYHndI2NjRQXF5OZmYnD4cDlcrFmzRpCoRDDhg0753LISUlJDBgwgGXLlrF3715sNhvJycnodDpcLhdOp5N+/frJUDEhxHklJycza9Ys4FQvbl5enrq0+pkSExOx2+34fD46Ozu7tQ63t7djNptJTU3FZDLhcDjUbN+nT8Q/k1arxWq1MmLECHQ6Xbf5goqi0NnZydGjR1EUhZiYmB6PYTKZ1NUj29razpucT6/Xk5ycTE5ODoqikJ+ff1bPdLhXX+6fvVN+fj7t7e3U19czatSoXrXcr8FgICUlhdmzZ9PQ0EBVVRXr169n9+7dbNiwgdzcXBwOB6NHj6Zfv37U1tZy9OhRXnzxRT7//HNycnJ6XFb8fCIiIoiIiKCwsJDc3Fz1WSAs3HMp6RF6PwlcvoHOXFUM/m+owdixY5k6dSpGo5FBgwZx8OBBdu3aRSgUwmq1otFoCAQCastM+Mt8zz338Oqrr7JlyxaOHz+OzWZDURT69+/Pdddd1+38er2eIUOGcNttt/HRRx+xYcMGjEYjc+bMISEhgby8PA4ePMgHH3xASUmJupxnKBQ6Z4tQWVkZH374IZ2dnbjdboqKihgwYAD5+fnnTCQZFxfH2LFjmTBhAuvXr+fo0aPExMSoK5dYrVbuv/9+GSomhDgvi8XCmDFj6N+/P1qtVl1SvicDBw4kISGBuro6CgsLGTVqFHq9nubmZg4ePIiiKIwbNw6z2cyAAQPo06cPNTU17Nu3j5iYGOx2Ow0NDZSVlamJAsO9w9OmTVOXQh40aBDx8fF4vV5KSko4duwYY8aM6bZ4yumio6MZMGAA8fHx7Nq1i6ysLAYMGEAwGKSsrIzjx4+rcxu1Wi1ZWVnk5uayf/9+mpqa6N+/v7r6k8fjueSs6+KrlZqayvXXX4/P58PhcJxzP41GowbQ7e3ttLa24vV66erqoqqq6pwBdUdHBy6XS53bEtbW1kZ9fT3R0dGYTKazfl8DgQBut5uOjg6io6NJT08nOTmZ+vp6vvjiC+rq6ujs7KStrQ2TyURMTAyxsbEkJCTw3nvv0d7eTldX13kDF7/fT1NTE3V1dWrOl8TERPr06cP777/PiRMnSE5OxuFwoNVq8Xg8dHR0nHP+jOhdJHD5BtFqtfTv358BAwbg8/nYs2eP+rfc3FymTp3K2LFjycnJAWDKlCk0NjaycuVKPvjgAyIiIrj22muZPHkyHR0dak9KePJnKBRixYoV7N27F5/PR0REBLGxsQQCASIjI8/KiRJuody0aROHDx/mqquuIiIigptvvhm/309BQQGHDx8mKiqKm266iauuuorW1tZuPThwatWSiIgITpw4wZ49e9BqtWRnZ7NgwQJGjhx5zvGu4RwLP/zhD/nwww/ZuXMnLpcLnU5HTEwM+fn55028JoQQYTab7aJaeQcOHEheXh47d+5k+fLl6sPTsWPH2L9/P6mpqYwaNQqdTkdOTg4zZ85kzZo1rFy5kra2NnUFpEOHDnXL4xIe/rNr1y62bdum5lPp7OykuLgYu91OXl7eOQOXmJgYRo0axbRp09i1axdGo5EhQ4ZgNBo5efIkx44d65bHJS0tjeHDh7N582YWL15MXl6eer/3er04HA6mTZvWa4YfibNdTC+LTqejX79+pKSkcOLECdavX09dXZ2aQFVRFHVYlU6nw263Ex8fT3FxMYWFhURERKgJSbOzs6msrGT16tUcOXKEzMxMpk2b1u18brebqqoq9u7di8PhwGKx4PF4KCgoQKPRqHmRDhw4oD5nADQ0NNDU1MSwYcPOOfRco9EQExNDVFQUO3fuRFEU7HY7EydOJCMjg9GjR9OnTx8+/fRTGhoaSE5ORq/X09XVhdfrZeHChTJ0/GtAApdvEKPRyKOPPspDDz3U49/OXAIxLi6OBx54gPnz51NTU0NcXBwpKSlnfXHDQ8muu+46Zs2aRX19PU1NTd32T0tLIzc3l0AgoAYSRqOR6667jjlz5nTbPm3aNHJzc6mvr0er1ZKamnrBRGbTpk0jPz+fhoYG/H4/2dnZF7Wko8PhYM6cOcyZM4fi4mI6OjqwWCzEx8efs6dGCPHtpdfrsdlsxMTEXHD+hlarxWazqS3WGo2GuLg47rnnHux2O++88w5vvvmmuu/111/P3Xff3W359ttuuw1FUXjnnXd4/PHHsVgsLFy4kMzMTPr27as+uIXzyvzgBz9g0aJFPP3002rivuzsbO68805mz57dbSWyM6Wnp/Poo4/y9NNPs3z5cv72t78xaNAgpkyZQl5eHoWFheryxuEW+46ODv73f/+XN998E0VR0Gg0ZGZmcu+99zJ58mQJXHoBs9lMZGTkRQXWRqORqKgotV6F5zHNmTOHJUuW8J//+Z/YbDYGDhzIrbfeyujRo0lNTcVgMGCxWMjNzVUXq7BarWRkZJCcnEx0dDQ//vGP+eMf/8irr75KdHQ0s2fPZtq0aZjNZqKjo7FYLPj9fqqqqlixYgW7du1Sk0tmZ2ezcOFCFixYQHV1NTt37mTNmjVqGgOz2cycOXO48cYbycnJ4dixY2d9Tw0GA+PHj+f48eMsWrSIDRs2kJGRQUxMDAMHDmTMmDH8/Oc/529/+5uaU0mj0RAdHc2UKVOYN2+epEb4GtAoiiIrDn6DnOvjPF/3Zzihk0ajuWBrQ3iCZ/gH7Mz9w9t7et3p28PnhFM/6D09ILS3t/Ozn/2M9vZ27r33XmbOnKme+x9Zhz48IVaj0ZzznEKIb7dgMKgOVempIefMfTs6OvB4PMTFxan3pWAwiMfjobGxkaKiIuDUPJnU1FRiYmK6jaMPD72qqamhtrYWm81G3759MRgMuFwuDAYD0dHR6v3T5/Op8wKam5sxGAyMGDGCiIgITCbTecurKArBYJCuri5KS0vx+XwkJCSojThOp5P4+Hj14S0UCtHV1UV1dTVVVVV4PB4iIyNJTU0lKSlJ5rj0EuGhe3q9/oJDn30+H21tberSxeHPz+VyUVJSQm1tLQ6HgyFDhmA2m/H7/eh0OoxGIwaDgVAoRGdnJ+3t7VgsFux2OwaDQV08wul0qivlheeVhLdHRERgs9nw+/24XC6Ki4vVURApKSlkZWVhsVjUOlpRUaGmY7Db7QwaNIjIyEj0ev05v6fh7eHV9axWK5GRkZhMJkKhED6fD7fbzaFDh9RrSEhIICMjA7vdLvX5a0ACF9FrnRm4XH311Ve6SEKIb4FwA83FDBtRFAVFUXpsCAkEAuqCI+EkwOdqMPH7/ep8AZPJhEaj6da4c7pgMIjX68Xv96tzBC/1gcvtdqMoCgaDQQ2kgsEgWq22x9XQPB6P2sNjMpkuaxJD8dXqqV4pitItALpQ7024sfPMunJ6w+bpxz9zf0VR6OrqIhgMqiuhnblcs9frxev1AqeGqYXn4Z5e5p6+p6evoNdTfQbo7OwkEAig0+kwGAy9ZqlocWESuIhey+PxsHz5cjweD+PHjyc3N/dKF0kIIYQQQlwhEriIXisUClFfX08oFMLhcFzy8odCCCGEEOKbQwIXIYQQQgghRK8ns5OFEEIIIYQQvZ4ELkIIIYQQQoheT5YFEd9ooVCI9vZ2Vq5cidPpZNiwYQwePJi2tjbWrVvHXXfdhcViudLFFEIIIb7xgsEgwWBQ8v+If5gELgKAjo4OysrKsNvtpKamfmMe5l0uF1988QV79+4lPj6ejRs3snPnTiIjI6msrOyWKVp8ufx+P1qt9muVmTicSwCgT58+WK1WGhsbKS4uprq6mvnz50vCMvGtVllZSWdnJzExMZLU92vC5XLR2NiI3+8nJyfnKztvXV0dmzZt4siRI8yfP59Bgwb908tqBwIBDh8+TExMDLGxsd+YZxdxbjJUTACnEo+tX7+eQ4cO0dXVdaWLc9mE154YOHAgEyZMIDk5GY/Hg6IojBkzplsiOHF5hdfS9/l8HDlyhMWLF7N9+3ba2tqudNEuSigUorKykhdeeIEXXniByspKQqEQTqeTHTt28Nprr9HR0XHOpK8X4nQ6OXbsmJpPQ4ivm0AgwAcffMALL7zApk2bpCGol2lsbKSyspKWlpZu20tKSnj33Xd555131JU7vwoVFRWsW7eOTZs2XdLrfD4fNTU1lJeX43a7u22vrKzklVdeYcWKFZw8efIyl1j0RtLj8jUTDAZxu90YjUa1q/X0RE6KomA0Gs9qdQg/QJ6ezMlisaDT6VAUhebmZjZu3IjFYsHj8ahJocIJpE5PQHbm68POl4jtQgndzryu8L/DP4RarbbHBFVhpyd6MxgMGI1GNYnW0KFD6devH1arlb59++J0OtHpdGRnZ5/VXR0KhdTEbuHkbBfKRi3OTVEUfD4fu3fv5ve//z3XXnstqampREVFXemiXZCiKLS0tLB161YAbr/9dhRFIRAI0NzczIEDB+jq6rroRIWnCwaDHDp0iH379nHTTTddMEO7EL1N+LtQWFhIQUEBiYmJBINBqce9SHFxMSdPnmTAgAHExMSo22tqajhw4AB+v5+WlhZiY2PPmRj1cgkEAhQXF+N0OsnLy2PYsGEX/VqXy0VBQQHV1dVcd911pKamAqeeS+rr69mzZw9er5e8vLwvq/iiF5HApZfz+/34/X714cjpdHL06FEyMzPJzMwkGAzS3t7O4cOH1QfuxMREBgwYgMViUbMvt7W1ceLECaqqqtBoNFgsFgYPHkxkZCRdXV2UlpayZcsWxo8fT11dHYFAALvdjsPhwO/3U1FRQVVVFR6PB4CIiAj69+9PbGys+vDvcrlob28nMjKSiIgINVttMBiks7OTtrY29QHtfNeVkpJCc3MzJSUlamu00WgkNTWVrKysbkFZIBDA6/XS2NhIUVERAA6Hg759+5KQkKAGXxUVFbhcLoLBIAaDgdjY2LNaBwOBAK2trZSXl9PS0kIoFCI2Npb09HQSEhKkd+YSaTQadDoder2+W+biC2X4Dmddvhjn6qm42HOEA+pwQH56WXU6HYMGDeLZZ58FYNCgQRf9UBYIBLpljz7zocDlcrF161bee+89JkyYQGJiYo/HDjdGhI+l0+kuOUP6N1UoFFK/w+d6n8Ofbbie6HS6s7KFh+tB+L0OH6en9/nM+tLTvqfX3/BxTy/b6eU+1zEu5tpPz1B+ruE24Xp4vvfoYq7pzHoY3sdsNvODH/yA1tZW0tLSujWmnet6evqb1PNLEw4aw3r6bBVF4ciRIxw+fBiHw9GtHkycOJGUlBQ8Hg8DBw5U9z/fZxZ+bdiZdbCnunU6p9PJ5s2baWxs5M477+zxOOFznFmfw0O+jxw5wuTJk0lJSQHAZrMxatQofvOb35Cenk5mZuZFXcuZfzv9/byYaxFXlgQuvdyBAwfYtGkTTqeToUOH8tprr1FcXMyvfvUrvvvd71JWVsazzz7LZ599xtixY6mqqkKr1XLLLbfwyCOPYDabaWho4KWXXuKdd96htrYWOPXlfPTRR8nOzmbbtm0sXbqUzs5O/uu//otnn30WrVbL3Xffza9//WuKi4u55557aGlpUW8uNpuNwYMH8/Of/5zRo0djNpt5++23ef7555k7dy6PP/44drsdgPLychYvXsySJUtYt24dKSkp572uwYMH89prr/Hxxx93u5kNHjyYu+66i+9///vq+3P48GE++OADVqxYwfHjx4FTP7wPPfQQ9913H6FQiOeff5533nmnWxdzamoqt956K4899pia2LKkpIQ33niDV199tduP+IwZM/jhD3/IxIkTv+RPWwSDQXw+H2az+YIPLoFAAJ/Pd9Z2vV5/3omfiqLg8XjUnr36+npqa2vR6XT0798fm82mBhEOh4NJkyYBXHTgGm6FDgQCGI1GEhMTSU5O7rZPS0sLTqezW3l0Ol234CUYDFJTU0NTUxN+v5/IyEiSkpJwOBwXVY5vMr/fT3NzM9XV1QSDQex2OwkJCcTGxnbbr76+nvr6enw+HzqdjtTUVGJjYzEYDAQCAQKBACaTCY/Hw7Fjx9S5GmlpaT3OXfJ6vdTU1KgNG8nJySQmJnarb16vF71ej16vp6urixMnThATE0NMTAwGg0EdvhPmcDhITk5W75cXI3xdwWAQm81Gdnb2WQ97p9dDAIvFQnx8/FnzUFwuF7W1tbS2tvZYnjPr4ZnHGTZsWLdex9O/Xz0F46e/Pz0dX+r5hXV0dFBSUqL+u6f67/V6+eKLLygtLWXatGnq75/JZCI6Ohqr1dot+Dnzczmd3+8H6FbPGxoaaGxsxO12YzabSU1NJTo6+pwP/CUlJTQ0NJCUlMTgwYN7PA6cun8PGzZMLUcgEKClpYUjR46oDZVut1u9zxuNRsaPH4/Vau32ve7p+3uu35fT30+z2UxaWlq3HirRu0jg0sv5/X5KS0spKCggKiqKefPmMW/ePCZOnMiRI0f44IMPaG9v55lnniEnJ4fm5mY2bNjAnj172LJlC9OmTeOTTz6hsrKSG2+8kauuuko9dkJCAmazmYSEBEwmEy+//DLXXHMNI0aMIDIykiFDhmCz2cjKyuLxxx8nMjISk8lEIBCgtLSUt956i/Xr19OvXz+Sk5Nxu900Nzfjcrm6tYSHh3GFf+wvdF1RUVHceuutzJ8/H5PJhEaj4ciRI2zcuJEVK1Ywa9Ys0tPTcTqdLFmyhL179zJr1iyGDx+Ow+Ggo6ODfv36ERsbi9/vZ/bs2UydOhWj0YhWq6WqqoqtW7eybNky5s6dy6BBgygvL+ett95i+/bt/OhHP2L48OEYDAYOHjzI9u3b+dOf/kRMTAz9+/f/pycTip61tLSwadMmXn75Ze677z6mT5+u/hBXVlbyxhtvAHD33XfT0dHB8uXLWbt27VnHSU9PZ86cOdx1111n/S0UCtHY2Mj999/P8OHDcbvdlJSUUFtbi16vJzs7m+uvv56rrrqK1NRUTpw40e284Ra9nnR2drJ//35eeuklSktLCQQCaLVa+vbty7XXXsutt96KyWTirbfe4qOPPmL37t04nU4eeughrFYrY8aM4Y477mD06NE0NDTw6aef8vrrr9Pe3o6iKOj1enJycnjwwQcZO3bst7YHsLq6mtWrV/P3v/+d7OxsdDodNTU15OTkcM899zBixAgANm7cyJIlSygoKCAUCqHRaDCZTDz77LMMHz6cFStWsGzZMiZMmEBRURFHjx5VA5e8vDzmzZvX7X0uKyvjo48+4sMPP2TUqFE0NDQQCoW46qqruOWWW4iNjcXr9fKTn/yE9PR0+vXrR0FBAdu3b+f73/8+s2fPZtWqVbzzzjtUV1er16PX65k/fz433XTTOSdKNzc3s3XrVj7//HOio6PV1mdFUbBarVx33XUsXLiQzMxMdDodJSUlPPXUU2o9BNTA/OGHH1avq7S0lPfff5/ly5er++n1eu666y5uuukmrFYr27Zt49lnn6W1tRVFUdSeyF/84hf079+fJUuWUFFRwZgxY8jPz2f79u38+c9/5u6772b69OkkJiYCpx6MP/vsM5YuXcp1113H/PnzcblcUs8v0fr163nppZcoLy9Xt+l0OiZNmsQ999zDoEGD2Lx5M6+//jobNmzA7Xbz61//mqeffhqA//mf/8FsNrNixQrq6+v5/e9/zxdffMHLL7/MyJEjWbBgQbf73MaNG3nvvfdIT0/n4Ycfxmg08tlnn/Hmm2+qC9xotVpiYmLUBr6egs79+/djs9nIz88nIyMDv9/P7t27WbRoEUePHlV7IQ0GA+PGjePBBx8kIiKCFStW8Le//U2dv1JaWorVamXKlCl897vfJSIigvvvv5+5c+cyd+5cTp48yYoVK0hKSuKBBx7AarUCp+rf7t27eeqpp7jjjju45pprMJlMrF+/niVLlqjvp1arZfjw4cyfP59Zs2bJ6me9kDyBfQ2Ex9FPmjSJlJQUTCaTeuPZvn07c+bMYdasWURHR+P1emltbaW0tJRdu3YxadIknE4nXV1dxMXFMXr0aHV+QTAYJBQKkZiYiNPp5LXXXmPo0KFce+21JCQkYLPZMBqNxP1/7N15cBTnnfj/d/fM6JZG94UkJECAwCBA4gZzgw2+sraTON5dx7XeTar2+3N+qd2q/P7I7qZqk/rutyqp3e9u7MS72Th2Esd2vD7i22BjYwyIQ8gILBDoQAh038fomOn+/fFoWtfoAARqoc/LJSPN9PFM9zPdz+e5Oj6effv2ERYWhsPhwDAMEhMT2b9/P9XV1cNaMm72c0VHR6PrOm63m5CQECtISE1N5fz58xw/fpzm5mbS0tIoKSmhqKiIsLAwvva1r5GTk0NoaCi9vb04HA6CgoIwDIM1a9YQGhpqdQOqqqqioaGBP/3pTzQ1NdHf38/Fixe5cuUKCxYs4PHHHyc1NdUqdNbU1PDee+9x8uRJsrKyJHC5Rfy12UeOHGHPnj3DWlO6urooKSmxfo+IiGDevHmsXr3aWuby5cucOHECr9c7Zpcuf23wsWPHcDqdrFy5kt27d+P1eunu7qagoIC3336b2NhYkpKSRu13LF6vl1OnTvHyyy/T0tLC7t27iY6OxuPxUF5ezvvvv09ERAT33Xcf8fHxLF68mGvXruH1elm1ahWRkZHMmzePiIgIamtr2b9/P891Dyd/AAAgAElEQVQ//zxZWVksWLCA8PBwampqKC0t5V//9V/5h3/4BxYuXDjrZtBpbGzko48+4q233uKuu+5i27ZtBAcHc+zYMcrLy3nvvfdYtGgRdXV1/P73v6ejo4Pdu3eTkJCAaZp0dnYSHx8PqACooKCAtLQ0li1bxvLly+nv76eqqoqSkhI8Hg+LFy8mJiaGyspK3nzzTQ4ePMj27dtZs2YN7e3tnDhxwrrW7tu3D8MwOHPmDCdPnmTTpk0kJCSwceNG0tPTCQoKIiEhgU2bNg0rDB0+fJgTJ06QlpY2ZuDS19dHVVUVb7zxBvv27SM/P5/8/Hy6urq4ePEir7zyCnFxcezdu5fU1FRCQ0PJyclh1apVVs1yRUUFFy5c4OWXX7bGF3zwwQd88cUX3HXXXSxbtgxQlUo5OTm4XC7Kysp45plncLvdbN68Gbfbjc/nIzY21uoOXFlZSUlJCWlpabhcLut4FRUVsWzZMitw6evr4+DBg3g8HkJDQ2lsbOSzzz6TfH6d3G43q1atYsOGDdZrZ86c4dKlS3zwwQcsXbqU2NhYli1bxrlz52hubmbRokVWMBIdHU1DQwPnz5/nypUrmKZJfHw89fX1FBcXk5eXNyxwOXHiBHV1dSxatAiPx8PRo0d59tlniY2N5Z577iE2Npa2tjbOnDnDz3/+cxwOBxs2bCAqKgpg2IQmYWFh3HXXXYSGhuL1eomKimLDhg3k5uYSFBREb28v1dXVvPfee6xYsYL169eTkZHBihUrrHycm5uL2+1mwYIF1pjcY8eOsXjxYrq6unA4HDQ1NfHpp59y//33k5mZicvlorm5maKiIgoKCvjrv/5rAA4cOMC7774LwEMPPURERARtbW2cP3+e9957j5CQEHbu3HlbzquYPCmBzRCRkZGsXLnSGrdSX19PRUUFly9fxuFwcPz4catAXVlZSW9vLzU1Nfh8PnJycqxCv8PhID8/n7lz51otLi6XC7fbjaZpREREkJiYOKxri8PhoK2tzaqRdDgc1NfXExoaSl9f303NSDLyc4EqBBqGQUlJidU9rbOzk97eXqsvqmmalJSUUF9fz8qVK1myZInVtWFoDZ2maQQFBVFWVmYFKR6Px5o5rb+/H6/Xy4ULF6irq2PLli1kZWVZ62dkZLB06VKOHDlCSUnJsKZ1MX2Sk5PZtWsX69evxzAMOjs7re6OK1asID8/f8Jt+Atjq1atIjg4mLa2NkJCQnj55Zf58ssvr2ugZ0tLC8eOHaOgoIBvfOMbPPbYY8TFxeHxeNi/fz9/+MMfeOGFF1izZg0rV64kNjaW5uZmOjs7eeSRR6yxW7GxsXz11VccPXqUrq4uvv3tb5Obm0t4eDhVVVX88Y9/5F/+5V/YtWsXKSkps65AV11dTWFhIe3t7fzzP/+zNZ1qSkoKzz//PF988QWPPfYYTU1NnD59mlWrVvHwww+zbNkyDMOgq6uLqKgoq0XY5XKRmprKI488YrXunTp1it/97nccOHCAJ554grCwMM6fP8+ZM2eIjo7mu9/9rjUQ3V8j/NFHH7Fnzx4rnT6fj6SkJPbs2UNkZCSxsbGEh4eTn5/PypUriYmJsZZ1u9289NJLnDt3btzB7f4uVQsWLOCBBx4gISGBrq4uvvzyS/7+7/+ewsJCcnNzSU1NJTExkccff3zY2KlTp07x/PPPc/DgQbq7uwkODuby5ct4PB62bt3Kww8/jNPppL+/3+q22NHRQXFxMU8++SSPPfYYc+fOtcbt+FuwhwoNDSU7O5tVq1ZRWVlJTU0Nd911F319fVy9epVjx46xe/duFi9eTF1dneTzG7Bw4UJSUlJISEiwXvvwww958cUXOX78uLVMbGwsZ86coaKign379rFlyxYAUlJSaGpqstZ1OBxkZWWxYsUKysrKKC8v5+6777Zap/0TL+Tl5dHd3c3BgwepqanhL/7iL9ixYwdxcXE0Nzfz8ccf87d/+7fk5+czf/58K3Dxer2cPXuW8+fPs2PHDubPnz9sv/5Ky6CgIDweD1999ZXVArJu3To2btxIWFiYdc9+7LHHyMrKIjw8HLfbTV1d3bDjM2fOHBYtWsTrr7/OpUuXSEpKwuVyUV9fT3V1NcuWLWPFihV0d3fzySefcOXKFauHR3h4OO3t7bz00kvs37+fN998k7Vr1w4bsyumnwQuM1RnZ6dVmK+qqqKmpsb6YrW1tREdHc2cOXNwOBysW7eOqqoqq2tEaWkp2dnZbNmyhezs7DFn6gKsG84rr7xCS0sLhmEQEhJCX18fXV1dU96MahgGV69e5fjx45w9e5bW1lZ0XSc4ONgan+NXV1dHR0cHDocjYHcC/6xQBQUFFBUV0dzcbN1wa2trreX6+/upqKigqqpq1Db8fXczMjKGdXUT0yskJISQkBASEhLo6enhyJEjVFVVkZeXx5/92Z9N6tkECQkJJCUlWS2Quq6zZs0afv/731NWVmZ1H5uMmpoaysrK8Pl8rF271hr34K9hnD9/Pi+88AJVVVWsXLmShIQEqxUwJiaGrKwsXC6Xlf8rKirIz89n1apVVgEgPT2dVatWER0dzdmzZ9m5cyeJiYk3fhBnoGvXrtHa2kpCQgJOp5PS0lIA2tvb6evro6amhtraWuLj45k7dy7Nzc2cPn2asLAwa5yJv3AOqr//nDlzSEhIsPrEZ2ZmsnDhQl5++WVKSkrIyMjg4sWLtLe3k5ubS0tLizU+qauri/r6elpaWoa1EC5cuJCNGzeOmjkpPDycjo4Orly5Ql9fH06nE5fLRW9vLy0tLVbQMJ6srCxrspCgoCBWrVpFfn4+FRUVXL16lby8PFwuF9HR0dTX11sTqviv13V1ddaYqvnz51NZWcm5c+eYP38+ycnJxMfHW63dcXFxrFixgoqKCoqKiujr6yMxMZHo6OiA135d14mIiGDr1q28+OKLlJWVsXHjRjweD4WFhdTU1JCdnU1iYiKHDx+WfH4DQkJC6O/v5+rVq9Z59Ffm+ccJRURE4HK5iIiIsLqDz5s3L+D2/JV7q1ev5vz583z11Ve0t7cTEhJCUVERVVVVLF26lMzMTOrr6zl16hRLlixh1apVVgVnfHw869atIyUlhcrKShoaGsjOzgbU/fWLL76wuuL61/FPEtTf32+NcRk6KN7/fYqNjR1WkZqSkmJ9lkDTb8fFxZGTk0NCQgLnzp1j+fLlhIaGcvnyZa5evcq9995LSkoKRUVFVFZWEhYWxooVK6yKi5CQEPLy8igoKOD48ePU1NQwf/58mS3PRiRwmaH8M1+43W6rK8LQL5bD4SA8PJzg4GDCw8N56qmn2LFjB0eOHOGzzz7jxz/+MWfPnuU73/mO1Sc8kMbGRl577TV++tOf8sQTT7Bt2zbCw8MpKSnhyy+/nPLP1dvby4EDB3juuefIy8tj+/btREdHc/nyZWvWMD+n04mu69asOCP19/dTXFzMD37wA1atWsWWLVtIS0ujsbGRxsZGazlN03C5XDidzlGzVPmnmm5rayMhIUFqXWymv7+f6upqfvGLX5CUlMS+fftueEpM/41U13WrYmCyA4T9y+u6Pqz1EFSrYlJSEoZh0NraahWaA/F6vVRUVFBYWDhqPE1wcDDp6emsX7+epqYma2rz2aSuro6GhgY6Ozv52c9+Nuy98vJyIiMjCQoKIjMzkyeeeIJf/vKX/OxnP+PTTz9l8+bN7Nq1i9TU1HG/x06nk+DgYKsg2NXVxVdffcXp06cB1erj19XVxbVr16xrw3jP4/F6vVy8eJGTJ09y/vx5mpqaiIyMxOfzTcmzjQoLC6moqKCvr4/29naOHDnCmTNnqKmpQdd1nE7nsLE1AJs2beLChQv87ne/4/PPP2f9+vXs2LGDFStWWJNKfPOb3+SHP/whRUVFrFixgi1btrBp0yYWLFgQsMLI5XKxefNmfvOb33D27FnKysoIDw/n1KlTrFy50hpDKfn8+vl8PqqrqykoKODs2bPU1dVZ15uGhoab2nZeXh5vvfUWpaWlnD17ltzcXAoKCqxAMjExkeLiYg4dOsS+ffuGret0OklISGDz5s10dnZa3Wr998+CggJrCmT/mJOhXcgKCgq4du0akZGRJCQkBJx0ZbLCw8NZsmQJe/fupaCggD179uBwOCgsLKS4uJjHH38cp9NJa2srHo+HmJiYUQP5/ZUcFy5coLW19YamvBe3jgQuM1RsbCwxMTH09fXR3NzMPffcM6o5fei0gi6XiwULFpCRkcHevXtZunQpzz//PCtWrBg2w8dI7e3tFBcXs3XrVh5//HGWLl2KpmnExsZy6NChKZ8ysK6uzhpQ+s1vfpO8vDyCgoIoLy/n7Nmzw268mZmZxMbG0tPTQ1tbm3VB9GtpaeHChQvU1tby4IMPsnnzZqKjo6mpqaGhoYE33ngDUDfK3Nxcqqqq6OjoGLaNrq4uysrKqKys5L777pOLl81UVlby05/+FJfLxbe+9a1xg/Dp4vV6rVrvqdhWa2vrrJ5xKTo6msWLF3PfffcNe90/w5Z/Ao177rmHhQsXcuLECb744gt+9atf8eKLL/LjH//4hoLb+Ph41q9fT15envWav9uUf0zeeOf54sWL/PSnP7WuJevXr8fj8XD27NnrTst4Ghoa+PDDD/nHf/xHvvWtb7FhwwaCg4O5cuXKqFblJUuW8IMf/IAHHniAoqIiPv/8c15//XUeffRRnnrqKRYsWMDXvvY1li5dypkzZzh69Ci//OUv+e1vf8tPfvIT1q1bN2r//pr17du309bWRnV1NQkJCRw9epSHH354UrM1ST4P7MqVKzz//PO88cYbPProo9xzzz14vV4uXbp009tOT09n06ZNnDx5kosXL5KTk8Nnn31mjTOZiGma1gQOfq2trRw+fJijR4/y/e9/35rGGMDj8fDss89y+PBhcnNzuf/++wkKCqK0tPSmKwjdbjf5+fm89NJLlJSU0NraSnd3N0uWLGH9+vUT9hQZ+sw7YT8SuMxQERER5OXl8eWXX/Lee++Rnp7O6tWriYqKorOzk7a2NhwOB+np6RQXF1vTsoaEhOD1euno6CA1NdXqcgHqxl9RUcFXX31FU1MTsbGx1gMZ/dNVejweWltbOXnyJFVVVaSnpwPqZpWVlUVOTg5lZWVcvXrVGovjvxBOhmEY1ixkVVVV5Obm0t3dzcWLF4fVdAKsWLGCOXPm8NVXX/Hqq6+yY8cOqxtbZGQkfX191pS5ly9fJj8/H4fDQWVl5aj0LFq0iMOHD/P555/zxhtvsGHDBmsczblz54iIiGDjxo0yw42NXLp0ibfffptLly7xve99j8WLFwecAnOyDMOwxkH5a9wm2zUwIiKCiIgIa5reoet1d3fT3NyMruukpKSM2zXT/z1avnw5bW1twwoB/u9hcXExf/7nfz4qUJ8NkpKSrDFp3//+962xeX7+B+P6ZxCbN2+eNSnJuXPn+N73vsfRo0dHTU89lL8iRNd10tPTiYqKYsmSJdTX1+Pz+YZNCOE38llFgVy7do3a2lrS0tJ4+OGHiYmJsR7063/I6Y0wTZO2tjaWL19OVlYW3d3dXL58md7eXr72ta8xf/58nE4nFy5csKaMH5ruxMREIiMjWbx4Mbt37+bnP/85tbW1FBcXs3DhQsLCwsjJySEtLY3169dz4MABPvzwQz766CNWrlwZME1Op5O8vDzeeecdPvnkE9LT07l8+bLV2iL5/MY0NjZSXV1NWFgY3/zmN4mLi8M0TaKioigqKqK+vv6Gt+1wOFi8eDHnz5/nk08+ITo6mpKSEh577DGSk5NxOp0kJSWxadOmYQ+HBhVoNjY2UlhYyLZt26yAs62tjWPHjhEbG0t+fr71vfM/W+61115j/fr13HvvveTm5gKqK9jN3mf9PVGWLVtGdXU15eXldHd3s3r1aiIjI9E0jejoaEJDQ/F4PKNaPNvb2+no6CA4OJiUlBR5povNSOAyQzkcDpYtW8aDDz7Iq6++yn/8x39YgUlfXx/R0dE8+OCDpKamcurUKU6dOoXH48HlctHX10dtbS07d+605kufM2cO9913H59//rk1oO2ee+5h27Zt7Nq1i+eee45nn32WV155hZiYGIKDg8nKyrJuOLquk5WVxcqVK3n55Zf50Y9+RGRkJMnJyQQHB0/65hMfH8+aNWsoLS3lV7/6FZ9++ilutztgLV1GRgYPPPAABw4c4JNPPuHQoUPWPO4PPPAAd999N8uXL2fHjh288cYbFBYWEhcXR0xMzKhCRk5ODnv27KGzs5N/+7d/480337Se+q7rOo888ohMhTwFPB7PsPFFfhEREVZ3A5/PR01NDS0tLURERNDa2srZs2epqamxZii6cuUK7777Lvv37ycvL4/ExESampqsgD0sLGzY4NVASktLKS4uJiIiwuoD/fbbb1v9+lNTU0cFy0P5A323201qairLli2juLiYzz77jIyMDDIyMmhvb+fUqVNUVVWxc+dOUlNTh9X29fT0WNvwj8PIyMggJyeHjz/+mIMHD7J69WrCwsK4evUqp0+fpquri9WrV1tjc2aTefPmkZqayscff8zp06dZs2bNsEJSX18faWlpVFZWYhgG0dHRuN1ua8rknp4eurq6rO56HR0dFBYWkpOTQ0ZGBh6PhyNHjlBUVEReXh7Lli0jMjKSnJwcCgsLOXbsGDt27LBmuurt7bW6xUx0jevp6bEmHjFNk9DQUOt5LOPNWDdScXGxNQC/p6eHoqIizpw5w7333ktWVhY+n4+enh5M06S/v5+QkBB6e3tpamoa1kW2u7vbGqsTGxtLXFwcISEh1pgJ/4N9m5qaSE5OtrrhRUZG4vV6A44vGGrp0qW89dZbHD58mCVLlpCXl2cdN13XJZ/fgL6+Pvr6+qxJasLCwmhpaaGhoWHM7oadnZ1UVVVRXl4OMG7QnpWVRVRUFB988AERERHk5OSQk5NjVRDExcWxadMmXnrpJQ4dOkRoaCjx8fE0Nzdz7NgxGhsbWbx4McnJyVaF4f79+60pkP0VS/68WVNTQ29vrzVeq6Ojg+rq6oAVRoZhUFdXR2VlJSEhIdbg/EBcLhcJCQmsW7eOsrIySkpKSE9PtyovARYsWMDSpUspKiriyJEjzJkzh6SkJGpraykoKKCnp4eNGzcSHx8vgYvNSCnM5pKTk9mxYwfNzc2jCs1JSUls3boVwzA4ePAg7e3tdHZ2EhISQnR0NLGxsei6zpw5c7h06RItLS20t7fjdDpZt24de/fuJTMz07qJfOc73+Gtt96ip6eHmJgY3G43MTEx7Nmzx5rusLu7m9TUVHJzc1m7di0tLS1WUJGens6ePXtoaGigp6eH7u5uoqKiWLx4MdnZ2dZDzTRNG/NzRUVFsXHjRrxeL++//741tmThwoWkpqZy7do1EhMT0XWd8PBwdu3aRVJSkjWYv7+/H7fbTVRUlFVoeeqpp3jzzTdpbW1F0zQyMzNZvnw5LpeLuXPnEhQUhNvtZvv27QQHB/POO+/Q0dGBaZqkp6eTl5fH2rVrr+sBcSKwoqIigFHdGletWsW6deus4LegoABQBSr/bDP+vANQUlLCwYMHKSoqIiEhgVdffdW6ucTFxbFy5UruvffecdPS1tbG8ePHqaiosGbhKy0tZdOmTeTn51uDhUeKiIggJSWFkJAQfve73+F0OsnNzWXdunVcuXKFCxcu8F//9V8kJyfT3t5OVVUVbrebr3/969YD2qKiosjKyiIyMpLXXnuNo0ePsmTJErZt20Z6ejqbN2/m3LlzvPDCC5w4cYLQ0FDa2tqora1l165drFq1ioiIiJs6FzORv9a/vLyc119/ncLCQmuWMJ/PR0ZGBo888ggVFRUUFxdbD9XzeDxUVVVZ0x77r1n+wtP777+P0+mkpaWFqqoqDMPgG9/4BhkZGQQFBVlTC//pT3/i2WefJTs725pV0T8Bw3gFQn/as7OzuXTpEr/85S+ZM2cOALW1tRMGAUNVVFTw5ptv0t/fT09PD5cuXSI5OZnNmzeTnp5OT08P2dnZpKam8tJLL3HkyBFCQ0Pp6OgYNiuiP/9funTJGgPT2dnJ1atXWblyJenp6ZSXl3Pw4EEAq9KrvLzcejDreDXjc+bMYf78+Zw+fZry8nJr5jb/9V7y+fVLSEggOzubsrIynnvuOTIyMnA4HDQ3N4+a8dLfglJaWsq7775LeXk5UVFR/OVf/uW4258/fz4hISEcOXKEhx9+2PoOAMTExLB9+3ZOnTrFhx9+SFlZGXFxcXR1dVFbW8uGDRtYs2YN8fHxtLW1UVpaSllZGU8//fSwh2NqmkZYWBjbtm3j8uXL/OEPf+CLL77A4XCgaZr1bDm/sLAw5s2bR2lpKX/84x+JjY1lxYoV7N69e1j6DcOwnivjcrnYsGEDzzzzDFevXiU/P5+cnBxr2aSkJLZv305PTw8nT560Ho5ZU1NDVVUV8+fP58EHH5QZ7WxIAhebmzdvHnPnzrVmwxrK4XCQmprKt771LXbu3Elrayterxe32z3sac733HOPNdCxu7vbehDZ0IDB7Xazbds2a254l8tl1Uykp6fzd3/3d1RUVGCaJnFxcQFrOmJjY9m2bRt33XUXbW1tREREEB8fT3h4OIZh8NBDD1kPlAz0ufy1LHPmzOGRRx5hy5YttLW1kZmZSXh4OP39/RiGMeyClpycTFJSEkuXLuWDDz5A0zS2bNliPTcB4N577yUvL4/W1lYSExOtLkB79+610uPf1oMPPsjWrVupq6vDMAxSU1PlCbo3Sdd1kpKSyM/Pp6qqKmCf/ujoaHJzc8nMzOSpp57i+eef5+OPP8bpdLJs2TI2bNjAAw88QH19vZWfEhMTWbhwIZcvXx72JPL09HSrC+N4UlNTcTgc1jMQQkJC2LJlCw899BALFiwA1EBP/80uPDwcUIHRmjVr2LFjB2VlZdTX11vPvvj617/Om2++ySeffEJPTw+6rrN48WL27dvH9u3brTwZHx/P3XffTW1tLYcOHaKuro6IiAg8Hg/Z2dls374dgP/8z//kww8/xDAM4uLiyMvL4/777yc9PX1WdluMiIjg7rvvRtM03nnnHT744APruT1paWlWzXBQUBDXrl3j1KlTNDU1oWkaUVFRPPnkk8O6soSGhjJ37lxaW1v58ssvaW9vJysri3vvvZf77rvPutakp6ezb98+fD4fr732GmfPnsU0TVwuF8uWLbNmUNJ1neXLl5OUlDQq8M3JyeH+++/njTfe4LPPPsPlcrF69WqWLVtGZ2cnWVlZk6rZjYuL49q1a5w+fdrKF9/97nfZtGkTsbGx+Hw+tm3bxpUrV/jkk084ffo02dnZrFixgo0bN9Lb22u1zHd2dnLmzBlKS0utAcgbN25kz549ZGdn89VXX1FTU8OJEyfo7e21rt1D83NmZiYwuiY/LCyMHTt20N7eTkNDw6ixBQkJCZLPr1NmZiZ79uyhtbWVL774gqNHj5Kbm0tubq71zDZ/HnK5XOzatYvOzk7279/PyZMnSUtLw+PxWBWKI590HxISQn5+Po888giff/659UBov8jISNatW8fTTz/Nr3/9aw4fPozX6yUiIoIlS5bw9NNPs2zZMkJDQykrK+PixYukpKRYXbT8dF0nOjqap59+ml/84hecOHGCEydOMG/ePB544AHruWz+a25sbCx79uyhpaWFsrIyLl28ZM1eFxISwrp165g3bx4hISFW90uXy0VeXh4ZGRmkpaWxffv2Ua3w69evx+Vy8fbbb/Ppp5/i8/lwOp2sWbOGvXv3snbt2lt5OsUN0szxpkER4jbxd8sC1T/6egbBe71eDh06xGOPPUZsbCw/+9nP2LJli3XRE/bQ09Mz5piRoKAgK5D2Dzbt6uoiOjqapKSkgLWu/vFLIzmdzjEHX/pn5cnPz+fb3/42Tz75JMnJyVZA5A9mJsP/MMugoKBh6wxNf1hYGImJicNqG0emxz8INDg4eNh2/LPu+Kc9TUxMtAqJQh3nM2fO4PV6iYyMDHicKysrqa+vx+VyER8fb53fvr4+nnnmGZ577jl++MMf8sgjj1BbW2uNbxrrfPnHMF29ehWfz0dcXNyo/NnT04PT6RyzW2lzczM1NTU4HA4WLFiA0+m08vFY+bampoaXX36Zf/qnf+LVV19l7dq1NDc309PTYxXYRnZ/9edDn89HSkqKFdT09fUNW765uZnq6mp6e3sJDQ21npExcjv+Z3j5ZxubLK/Xi9frHXP8meTz69fV1UVlZSWAVbE31nH2Xyc1TRt23sc7L4HyyUitra3U1tbS3t5udaf0MwyD999/nxdeeIHk5GR+8pOfjNljwf990DSN1NTUCSdk6OrqwtvvJSgoiNCw0FHXYX9XTP+1dKLvo3+bFRUVeDwe3G631TtE2JO0uAhb8NeS+n+/Hk6nkw0bNrB//36++93vUlVVRUtLiwQuNjPeoPSh59w/K5FpmsPm9R/pegPcsURHRxMVFYWmade1vZEFgaHp8qffP235WPyDyf3bG0rXdavLpv9YiEFOp5Ply5ePe5zT09OZM2cOmqZNeH79rXTjXX9cLtewAClQ/hzaihuIP7/5P4N/u9cjPDzc6iLn714zkj8f+tMJKr+NzLP+9PiP48hjdD35OZCJvqeSz69fWFgYixYtArCO7VjHeejrI6+zY52XQPlkJLfbTUREhJUvhvKPE7lw4QKPPvrouPl76PdhMtffkWPJRl6Hr/f76N/m4sWLJ7znCHuQwEXYxs1Mgdje3k5hYSFpaWksX76c+Pj4KUyZmArXc34nOwnCVDxX52ZuVGPt/3omcRjvM8hNdHwTHWf/E+AnY7LLTXROJsqTgda/3nw82SA70PEJFCBPlMdudlKSGzkmYmxDH3Uw8vWxlr+e1yd6b7w0gOqCuXPnTpYsWcKGDR1QDJUAACAASURBVBvGnX74es99oHTdzOfwLyMT78wcjh/96Ec/mu5ECHGz2tvbKSsrY/PmzaxYsUKaeUVAQ7tJbNiwgezsbBn8O0t5vV7i4+NZu3YtKSkptn5Gk78mODY2lq1btxIfHy8PwxW25XA4iI2NJTMzk/j4eFt/t8TMI2NcxB2ho6ODiooKlixZIjUnYlw+n48rV64QGRlpTfEqZp/29nba2tqIiYkhPDzc1oGAz+ejs7OT5uZmkpOTZaYjIcSsJYGLuKV6+g06+3xgmsRHSAFR2JNpQp/PoLm7n8hgJ6EuHYdu34KsmN1MVJ4FE93GAZeY3byGSWevD0+/j5hQF8EuHcmt4mZJp1JxS11t6+Wziy18UtqMhMjCrvoNg7qOPt76soHS+i48/YFnPxPCDvq8Bm0eLy3dXgy5sAqb6uz1UVjVzptfNlDb3othSF4VN08CF3FLNXf1c66mi+Jr3cglS9iVYUBbt5eCqnautvbR65XARdhXSW03/3XkGv96sIqatl4JXoQt9fYblDd6OFbZTlOXF4lbxFSQwEXcUoZp4jVM+uWKJWzMBAwT+n0mhmlK66CwtT6fQUevl7YeHz4Dya/ClnymiaffoN9nYErVpZgiErgIIYQQM4xpSsAi7E/qLMVUk8BFCCGEEEJMKdNUvS40QJNh+WKKSOAihBBCCCGmlGma9PtMBiIXIaaEBC5CCCGEEEII25PARQghhBBCCGF7ErgIIYQQQohbQEbni6klgYsQQggxg/gME59homvgcmhoMn5A2JCJyqv4h7lIPhVTQAIXIYQQYgYxTPW8IU0Dh0NKg8Ke1KxiA39INhVTRAIXIYQQYoaS8qCwM3nWkJhqErgIIYQQQogpZQJe0wRNnuIipo4ELkIIIYQQYkr5x7hIo4uYShK4CCGEEEKIqSX9xMQtIIGLEEIIIYSYUiZqcL6GjMUSU0cCFyGEEEIIMeV8/mnFNAlexNSQwEUIIYQQQkwp05THT4qpJ4GLEEIIIYSYeqa/pUXaW8TUkMBFCCGEmEGGjhmQ8c/Crkygz6dmFdM10DQJXsTNk8BFCCGEmEH6fSZew0TXNEJcDuQpGcKOVFcxiazF1JLARQghhJhB1GxNqg+OrkvQIoSYPSRwEUIIIWYsqdEW9uUzAExpExRTRgIXIYQQQggxpUzTVNMhS9QippAELkIIIYQQQgjbk8BFCCGEEEIIYXsSuAghhBBCiCllAH0+A93U1HTI050gcUeQwEUIIYQQQkwp0wSfKdNHiKklgYsQQgghhJhSwx6UOp0JEXcUCVyEEEKIGUq63wi7sp43BPKQVDFlJHARQgghZhDDVM8j19DQNRk8IOzJNE36fMZg04vkUzEFJHARQgghZhCfAV4DHBoEO6UuW9iX5E4x1SRwEUIIIWaQoeMFpFgohJhNJHARQgghhBBTygS8hiG9xMSUksBFCCGEEEJMKdM08RkDg/NlKJaYIhK4CCGEEEKIKTZkhIvMhyymiAQuQgghhBBiypnSziKmmAQuQgghhBBiShmmSa/XAFRXMSGmggQu4pbSNfWcAU0DXS5cwqY0DRxOlUE1XUeTzCpsbGghUJMSobA7yaJiCjmnOwEziQmUNnfzH6eqweOdRJ/N6e7UObh/DXAM/PijVX3gZ+iMHyN/D/Ta0GtQoGWH/tvWa1LbbWKY8C9vnR2yvjnuekO3P+575vC/J9qG+nv4cRnr9+HbMSe9bKD9j/X3YJrNMd+78d8DH+MbS+fYn3/oMgHXHfY1CPQ5tRGvBe5ccL2fO9B7I9/3v95vatR7dejVuXymEtcFgwjdDJD+4Z9z5D5GvjZWvhv2XoA8HGj5QPsa65iPnZbx89m42xmVzvH2Pfn8PNbygZcdfU7GLhOZAc+D+tscutg4+xu+nTHTpp4GOebn0ocvNsb+hx4DbXTCGDzu7f1hePvC6ceg7pX96Jgj8tFY957r+24FSOQ4YxbGOodj5BPT/9r498mJ8tp453/or4G++4G3M1F6xvlemqO/4yOXHnX+B1YbeS8whyw/3MjjPJlyxsB5H3PR8Y7LyPcmWa4xDTRfGC7mEdzdjf7+h6B7BrcRcDPjbXuy+73ObYy7/GT2P8brk9quGeB3Ta2raxATA5u2QHzCJNM4O0jgch0uNHbxmzM1PFNwBTz9k1jj9gYuIwMRHXMwSDHVyXYweNL1EeswYv3RP+awvxnxrxZgO2FhoURERqBrGv9zsX5Y4XHk9gNtZ6y/rfXNwGkZ+q8+av3RN8Gx9zO4fKDP7f9dH/b68ALT6ILv6PSMdzxNhjaNmgHTEegzD73BDT1OY6WTEb+PPAbqRxtneTPwsR2x78HPoI1Yf/LpCrSM/8Y8tIAS+PyOXtenO+gMDsVMSaO2ogGjs40Q7+B3fKx9B3pv+GcZuv8A640ovF3fORrnPXPw/dHHyQyQr0YvP2y7Ab5nY60z9PME2j4wZhA03mcctu2A6Qm0jUDf3dFBw9BtTG67Q343sUqegZcxxw1cNDPwPsYOvEy649Ix4jMxfV46Ck+rjRhDlw1U0B/jWDJ4PsY6F2MFVSMrJcba/vC0mNYmx31/gD7itfGO1/DtjNzXyP0EWmdkekYXsIenOUAQMeRY+rc5NAgJmK9NlTPGTMMwplrf9G/BGLL1QIHpyPweKPAaLziZKHAZIwgxfBCVArnZOHu70YpPQ0ftQDIDrTDGfsyx3h9j3VHbHufvUcdjnH2YYy03xmeZMDAbmY7h5xFNU4GLrsPaDZCUPHbaZhkJXCapqq2HV87W8p/Hr0Cvd5L9ngYv8LeahgpKXAy2qvh/11CBi/+i6Q9W/OsNvanrQ5ZhxGuBCkH6iL9Hbseha+i6hqZpOHVt2HKBtjnWawT42/+5hr4XaJ2RgYu6QYxXsB25DY2hQRuMTtPw4zB4A9EYeXMPtM/A6Zno37ELtMM/MwNpGL382PsNtA8Nbcz0QODPMXLf/qKbZv0/0GcaqzDs/9dEG/YphuzHOtijtz34rzkq35q6BrqOoeug6+i6rrqMBdj3WNsefH90HgRVkTB6eYYV4Eafy/GDpDHfMwfTOTKoHjz+k/9cwIjC7dD1Ap2rAAW6ofknQMAQeN8jP+OQdI4qbGsj1h1Mx/Btj/hCmkOP5+h8NW6B31pk9L6Hp23wb21kuszRywTa77DXdR2nphEEuDQTr64P2/nQ/Q5PU6DjObj7QOkdfmyHrm2OuraNuf2R2zMDLzMyPxDg75HHa+x0D3nNnPjcBNxOgAJ2oEL+YD4IXIgdftTUNoYuqZlD894kC/XWSyM/2TjrjxG4BFx+zIBhvML30BNrYjp0vI4gTIcDU9fBMaRkMWGLxPUEGCO/05MMRiYTlAXc5iS2G/BYjxecBTiPra1w4EPQHbBxM8TEjrPP2UPGuExCe6+X/y6s5r9OXqGls2+6kyOEuAU0/EH/7alsEOJG+VvOnZiSX4Vt6UAwJkFIYfOGaEBTE3x6AI4cgp6e6U6RLUiLywR8hsn3PyrlnZJ6Gjv7RgfFQog7wshWCCHsyh9kO6Y7IUKMQwPVKohcV2+YpkFdHXy8H7q64OuPT3eKpp0ELuNo7fXyxPvnOXqpieauPoxJD+ISQsxEUisoZgIdf4vLYM94IezG32XdFXDsjZg001QtL8eOQHc3fOPPITR0ulM1bSRwGUNlq4dfnKrm4/MNdHX3T6I/phBiplNjgzS5yQpb00xwmtLiIuxNQ3UVcwUYYySuk88HjY1w8ji4o2HLNoiNn+5UTQupYAzgYnM3vz1Tw69PVuORoOWmqCGI/h8h7EsDdFNqBoX96YADE4fcm4SN6UCQqVpcpLA5BQxDDdg/eAAKjkJD/XSnaFpIi8sQpgkXWz38triGXx2/QmOHjGm5aabEfWLm0CHATElC2MvQrmJC2JXV4oIUpaaMaaqWl48/Ur+v3QBxs6vlRa57QzT39PO/j13mN4VX1QMm5ZsmxKzgH5Tvnz5cCDvzBy7SVUzYmT4QtAQh19UppWlw7Rq897Ya83LfgxAye8a8SOvdEH/1USmvnKlRz2mRb5kQs4qGzCwmZgarq9iI54EIYSca4DJNnDLGZeppGrS2wKcfw6svTXdqbisJXICOPi//zwfnKbjUhKerX4ZjCDErmQMPapULgLA3DXDI4Hxhc9rA+BYnErjcEqYJbW1QVAj/8zL0zo7nvMz6rmLlrR6eOVnN62fraOzolQEZQsxiukzbKWYA3TRlcL6wPTUdsokTUyqEbhXDB02N8MXn4AqCTVsgNm66U3VLzdrAxQSKGzp58UwN/32qmvaufky5Cdwi0p1B2J90ERMzxfAHUEquFfakMRC4yGyNt5bXC/V1cHD/wID99ZCcOt2pumVmbeBS1uLh+TM1/NuxKujxTndy7nwSuQibU4VBqRkU9qcDzoFWFyHsSkPlU6dpymyNt5ppQl0dfPCu+n3z1jt2trFZOcalo8/L/z1ZzXMnqiVoEUJYHOYsvSiKGUUbeC6G5FVhZxoQZJq4MNAlyL71NA3aWuHAB/DpgTt2zMusvO79f5+U8dqX1+jp6p/upMwK0gNPzATSVUzMFP7WQQfSmC3sy9/iIpNI3EYa0NKixry889Z0p+aWmDVdxUxTPaflr/aXcuxiE00dvTLyQggRkAQwws78Y1x0qRUSNqae4yJjXG4704TGBjhyCHp74c++DiEh052qKTNrApeLrR7+97HLfFRSj6e7Hwy54N8+cqyF/WmY6HKDFTOAjgpapPuNsDMNcKK6isl19Tbz9kN9PRz7Ahw67NgN8YnTnaopMSsCl/NN3fymuIbfFF5VD5eUa/3tY0pXMWF/mgkMjG+RG6ywO1UgnCU3cDFjaSa4TENNhyyj828zDXxeaGqAT/ZDWBis3QiJSdOdsJt2x49xKW/z8LtztfzyxBXwSNAyXeSwC7vTGHiOiwmSY4Wd6aZ6hotDsqmwMW3gGS4OUyqEpo1pQns7fPwRnDgGzU3TnaKbdkdX2LT2evm3k9X8+lQ1Xe198s0RQoxLM9XNVioHhZ1pDHQVk+ZsYWPWdMgYck2dThpQVwsH3letMLv3QkjodKfqht2xgYvXZ/DEeyUcuNCoxrRI0DJ95IIlZgA1xayMcRH2p/trsqc7IUKMQ2Ogq5gpY1ymnaZBfQN89D60NMNfPqVem4HuyMCltdfLEx9e4NClJrq7+2WQxTQyB/6bmV8PMdto0qVBzABq6m4TDUPqhYRtqa5iBg5THuxrC6YBbS1QeEL9/Y0/n5EtL3dc4FLR1sP/PXWFAyUNdHf3SdBiE3IWxEygYUpmFbanDYxv0SWvChvTYGAsllRe2obPp8a5nDgGMbGwaSvExk13qq7LHRO4mEBxYxcvnqvl16eu4umSoMVW5FyIGUDVYkteFfY2+ABKyavCvjQTnKaBwzTkumobmgpeWlvg4EfgcMDqdZCYPN0Jm7Q7JnApbe7mv8/U8O8nrkCHDMS3E9M00WZoX0oxe6gBz9OdCiEmpg+Mx5LnuAg70zBxGj6cpiEt2XZjGFBbCx+9pwKZ9ZshYWY85+WOmA65pdfL/ymo4t+PXIZOCVrsRD0eQ+pahP35Z2rSpFuDsDmVVw2ZVUzYmjWrmFxT7UnToL4O3nkDPn4fejzTnaJJuSMClycPXOTls7XQ553upIhRBp7sJ8QMoGPO1IlWxCyiZsBDWlyErakujQY60lXM1jo74YvP4X9enu6UTMqMDlxae7089H4Jn51vwNPZJ+VjOxqIW0ypGRR2Z5oSZ4sZQTOlxUXYn5pEwsAhM4vam2mqKZJPHYf/eQl6e6Y7ReOa0YELAP2GamnxyQXcvmSmJmF3KoNqcoMVM4AmY1zEDOE0DRyGMd3JEBPxem0fsPjN6MAl1KnzZE4iu+fHkRwVPN3JEeOSG6ywN40ZfkEUs8bQ8VhC2JM2fDpkyav2Fp8AK/Nh+Spw2nveLnunbgLBDp0HsxOIcjlxOjQ+Km2ksatfBufbjGki50TMDPKgNDETmCa6qQJtya3CrlTgYqCbhhQB7MoE3G5YmQe77oWMrOlO0YRmdODity0zBk0zMQyTN87W0WvIpdw2zIH/ySkRM4BmmgORtmRYYV+Ds4pJFxxhX9YYF9NArqk25XRC/hrYvntGBC1whwQuABvSoun1mrT3+XjvXB04pNOHHZjIc1zEzCFjBsRMoJkm+kCrizRnC7vSMHHgw4FPcqkd+XywZTts3Tljgha4gwKXIIfOujQ3+vq5hDkdvFNST49PaqPsQmYVE3amoWZqsn6mO0FCjEONxzLRpMVF2NxgVzEpA9hKUBBs3wUbtkBaBjgc052iSbtjAhcAd7CTtXPcOHWNsCAH719ooKGrb7qTNcsNdBOTkqCwPf/DJ+UGK+xNY6DFBYmyhX1pmOiGT3VplMuqTZjgjob1G+HuHZA6B4Jm1uRWd1TgAhAV7GRTegzBTp1er4+Dl5qp7+qTi/s0MjEH5hcRwsZMJGgRM4J6jospz3ERtqaZ4DB90uJiF6YJMTGwYhVs3wMpc2ZUS4vfHRe4ALgcGhvSomld6aXPa3CwrJnWHq8EL9PEtP4nhM1JQVDMAOp5Q9I6KOzORLcG54vpZUJkJCxbrsa0pGVMd4Ju2B0ZuPjtXRCP1zDpM0w+Lm2iRx6CdPup0flyexW2Z40bkFnwhM1pAwVCGeMi7EwDnIYPh+mTIHu6uYJgVT7s2A3ZOdOdmptyRwcuAHvmxxET4iQuzMWLhdemOzmzk4lqMxbC1gbGuEiri7A5f1cxyavCzjRMa3C+xC3TbM8+2LQF5qRNd0pu2h0fuAQ7dFYmR/E3+ekEOXR+X3gNj8w2dtuothYTTOmnJ+xPCoJiZlAzikl+FXanGYb6me6EzEYmavaw3ffAxrshORUcM7/YPysedhIR5CA3KZInV85h98J4YoKdEv3fRurRU3LAhd0NdBGTrCpsb3CMi2RXYU+aet4QvoEujZJTbytzYEzLug2waasaiB8UNN2pmhIzP/SapIggB3mpUfzN6nR04PDlFhq6+6c7WXc8/8B8aXARdqee5SI3V2F//i6Nkl+F3emmDw1pcbntYmLVQPwduyEt/Y5oafG7cz7JJAQ7dPZmx2OYJi6nzqflA1Mli1tMIhcxA1hRtjS7CHvTYGDcgHR7FnZmohk+dMOQGRtvp5gYWJEHW3dA9qLpTs2Um1WBi999CxOIC3MR5nLw8pkaerxy8b9lTBNTLlhihpA5JMSMYKoAW/KrsDPVKuhDN70yq9jtEhSkuodt3w1z0qc7NbfErAxcAPJT3PjyTHyGwW9PXQXHrBjuMy1M5MF+YiYwB2qwJa8Ke1PjWww0DOQBZcLOHDJt9+3j88GWPbB5K6SkTndqbplZW1p3OTRykyN5clUaDyxNIlhHyiu3imlKK7GYETRTHuon7E91FZMxLsLeNEx0w4tm+qSr2K1kmuB0wo6dAwPx00B3THeqbplZ2+ICEBnkZFVqFP9rXQZhLp39Zc00yYD9qTUwZECTPg1iBtBQ3W8kuwpbM000Q8a4CJsb6Coms4rdYtExkL8G7t4K6RkQHDzdKbqlZnXgAuAOdrIlMxanrhHkdPBxWRNX23unO1l3DHPg/1LZImzP9PfJnu6ECDEBU3VrlC44ws60gcH5mimzit0ycfGwMg+274K0DHDcuS0tfrM+cAEIcuhsy4ojxOnANODd0gaau/ul6/CUkKBFzADmwNddZhQTM4DqziiBi7A/9aBUH3JdnWKmCVFRkLtCTXmckTndKbptJHAZYn16NJ19Xjz9Xt4uaaBXStxTwsSUGFDY3MDYFitwke++sDNTBS0SuAi7UjVBaKYXDBnjMuWcTlixCrZsn1VBC0jgMsqWzFh0NHwmvHGuDnQpct8UEzU4X0IXMRNIQVDMAJppgiEFQTEDGF4w5Lo6pQwDtu9Uz2nJnDfdqbntJHAZIcihszrNzf/rmEt8uIvffVmDp1++dDfKHPI/CV2E7Ulji5ghtIFxLpJdhW2Zpipky+D8qRMcDLvvhbXrIXXOrBjTMpIELgFEBTvJS3UT7NTp85m8d6GBBplt7AZJSVDMEKbqfiMPTBX2p8a4yLVV2JsJpk8FLnJdvTmmCW43rFkPm+6GpGRwBU13qqaFBC5jCA9ysCrFzd/km3j6fBwsb1bBizQbXDf/9UoOnbC1gfEtGqYUB4W9mf4xLpJXhc2ZXglabpZpgjsalufCth2QMjtbWvwkcBmHy6GxISOGZk8/PsPk04pmmnq8052sGUUuV2JGkRusmAlMc/BH05ArrbAfbaCrmA+ZrfEmRbkHg5a5WdOdmmkngcsk3LcokVCnA6dD5+3zDXR7fdOdpJnDBNOU8S1ihjBM6d0obE/zd8ERwtbMgcH5SKXQjQoKhtVrYNtOyJo/3amxBQlcJmlzZgxRwU7iw1w8U3BF+j1Nlmmi++SCJezPNE1Mr3fgGRlC2JfpMzBlpiZhd4YJPQPjgyW7Xj8TuGcvbNgMKanTnRrb0EwZiTpp3f0+ztZ18mpxDb2+0d9CbRK/B/r7ZpYb+rs+8ON/fejv/gfsaSPWG/mv//fA75vjrhMojeMdk6EFxED7n/h4msM+W6D9j/X7ZJYf+dkne07HXC7AWJ+Rn1MfXGz8zxwgDYHXmWj50V//ifLE+Ps2R70/uXSOve+x9jEsXWMc29HrmyP+DrzsWMsxZP+TzQPjbXNo2sdLz+jtBk7DyGVu5pwPe2+MVtPryQej/g5w55no8w3b9qj1xz4mQ1+f6Do7ev2xWownt7+JZlQc/ByTPS9jLxcofXqA1wLvP/D3a2xmwE2OldZR2zLHy4tjZw7NHOP9Ifyf2ZwwH47zPR/jvIyZvgDbHPv4DVlmjHw8/jbMEYtNtE8z4K+Dy0+2GBhouZH5YIJt+RM47ufWAiww0d9DX57c+RmfGeBPc+z3A60/wbkd+y1TPYojPFwNxk9JnbUD8QORwOU6dfX5qGz14DMMTLRJ3LQm9/pk3x9v2QnXDVBAur5tX19WuZnPeqPv3chy4y071g3uRvcz0fL+y/VU5JPrTddE602cphu7lEzFeYJABYCxTLZgNrn9Tn79yRY4b106bmyfU/u9n/y64+938ud7vH3c6vUmTuT1b/f689H13BvG2sdk3PhnGSzNTmUeHytwubltT3GR6YYCl5veydSbREBpCRSXXP/Obv+6N3CPuWEaEBQEsfHqX2GRwEUIIYQQQghhe/rEiwghhBBCCCHE9JLARQghhBBCCGF7ErgIIYQQQgghbE8CFyGEEEIIIYTtSeAihBBCCCGEsD0JXIQQQgghhBC2J4GLEEIIIYQQwvYkcBFCCEA9NEweayVmChPkMWxCiFlGAhchhDB90OdRP6ZvulMjxMS8vdDbPt2pEEKI28o53QkQs4Thhb4uCI4CTZvu1Ai76WmHrnrwtA6+5gwBdyqExqq/DS/UnQWfd3AZVyi404bnK18vdDVAUzn0NIMjCCJSIDodwuJH79vwQdMFOPMizNsLcQtUXu1pG75cbBaERENvG7RdA2/P6G3pDnCFqW3oDuioheYy6KoDTYeQWEjMUZ9Jd9zcMRPTq6VS5VdjID9qOoS4IWoOuEJUPuxuhrarw9cLi1V51hE0+Fp/N3TUQMtllb9coRCVDu50CIkave+OWqg6BB3VkPukCmK6GtS/MDoftlZBZ33gzxEUAREJEBan/q49A+1XwetR24jOGtyOENdD7vviFpDAZbbobgJPy/BCX1CYulkFhYOvH3paobsFTEO9rzsgOBIik4dvy9sDXY3QXq1uzq4ItUxYPDiDR++7sw7qz0FXDeQ8rG72vR2qwAjqghYUARHx4AhW6eyoC/w5HC4IjYHQaFVQaLsKHVeh3wO6DhGp4J6jCr1i5mi7DFeOQGvF4LkzvBAzH9LWQdxC6G6Ec38AzanyAag8EBoNix+G8ERVAKwthOqjqvUkNB58fXD1KLjnwtxtEDd/+L67m1RA1HQBlnxT7efK5yotrgjVHcfbA5EpMHez6k1W9YUKikAVNB3BKt16EETOgZgMqDkLV4+roMURogqBHYeh7hTMvRsS7gr8fREzw5XD0HheXS8dQSqfGD0wdwekrlJ/15yG8g8gOEZd53x9Kh8kLYMF96p83N0EVYehvhgMA0Ji1PXsyiFIWglpG9Q1bai2yyogBvUdqC2CmlMq2NCdat+aBin5MGc11H2p3jcM8A0E3I4Qdc2MTIOUPPVa5adqWXR1XzC8cPWY2k7GhsFKBDEzTHTfN3zQ16nu0YYxuIwrBKJSB66zAwHH9d73e9uh4TxcOwZLH1PliZ4OlbcZ2KwjGKJS1LVT7vtikiRwmS0aSqCmUF1w9IGaPs2ExOWQvFzd7GqK1M1T0wBdXVhC3JC8EhKXqmW6G9W2Gr5SgY4zVN0kg8MhfhEk5o6uIWyrUjd5V6S6yV87Ds3l6qaoDxRAdRPSNkLsAmithMpDgKlu9JhqOc2ham6SV6gLWXOpKhh0NYAerNKrO1ShIHEZhCfcrqMrblZ3MzRfAk8DZGxWr3XVQ10RYKhz2dcBtScgbqnKJ0ER4GmC6gKImquCiuYyFQB1XIXUNRCVoYKZ+i9VntV0iEhU6/prADtr1L7dmaqGu6kcGkugt0XlSUeQ2ndNIbjCIX6xCmKCQlXNd9M5iMmG6ExVKA2JhfZaKPsAPM3q9ej56qbq0KHujMrPQVEQO18VCHo71U15aC28sLeWMmi/ovKMO11dz+rPwOXP1HUzPAnarqhAdeHXINitAovWChUgxC2B2Hnqunu1QK2fvFK1Dva2q4Dh2kmVJ0JjVIETVGGztVwVOFPy1Pvt1dB8XuV3d7pqeemsgYt/UsGGK1S93tsO9WehuwHSN6pCZ1giYKrg5+I7qjUoLlsF/b3t0FCs8nJwpEpfUJgqMPb3QHic+k4Je5roKHqUDgAAIABJREFUvu8Kg5ZyKPtI3d81p+oq6whSeWDuJnCGqevs9d73uxrUvuvOQo4XWi8P5L3Gwfu+hrpfJyxRLY5y3xeTIIHLbNF8Aaq/ULUs7rnqtZYyVdOi6aoAVXcGqg+pWu5gtyqsNZxThbqoNHXjqiuGio/B0whxi1QBzl/AbKsEHJC+Vl1sQBXKOqrVjTJnm7oQ1Z6Gxq9UAS8iWd2wmy9ATycs0MHngb6BLhit5apGOyodwpPVqKz+bhXclLyuLoLudFUYNbxQe0rVRhpeSN+gLszePpUWZ5DcZO1Md6luKSv/Sv3dUgmFv4Cm89C5AZwDl6v4u2DhXnXemy+q2rdrJ1VAUVek8nT63bDsm4PbjlsEpW/BtQJIWa26a2lO1dLYUQ2d1yBji/p++AOa2AVw12Oqe5i3Fw7+UN1cU/Jh6aPq5nr5KDScUQXIJY9CUKRa9tJ+le70TbDoawOtlqYqCJz8hSos1Ber/N9SpgoFc+9W3yfJozNHxBzI3AVZW9R5L/sYSl6B9ipV8AdVq7zoQXXdNbwqOLj4vjrnEYnqumz4YN4emL9zcNvuuXDuZXVNS1iqumuBCoZbK1U+jc8ZXN4RovLQ/D2qe07dWfj0Byq4ytoB83aqLmCGqba58D61XVCFytI/qYql7PshOVelu78H4hbD0f+jKgjCEiEyCRpLVYXUwntVzbt0A7Knie77SctU98TydyF+KYQlDPS+aIKaArWOO/367/umAZ21Ko/EL1WB/JWjKhj39ajrvOlT9+/WcrVPZ9AU3vfDwehX30lXqArKxB1DzuZsEpGsCmdL/kz9Xfk5nH8d6gpVYKJp6ia08q/UDa2tGi69DyUvQevDEB6vmn172yHn6zBv++C2yz9Wy156V10M/TXabdWqAOpwQtKSwX7S7vnqBjvyht+2SN3kMzapWr0zv1eFzUUPqeVBvX76N+pCtfB+yN6n9mf41EXrxL+ri2RIHCQshpYKtV5MlrqAC/syjYHaNgBT3VwN38A4Av/lylBdH3x9qttWSDT0tKigorVC5bXkFcO3GzMXYjLVjbb+HMRnq5uZp0UV2rwdqrDmrwm00tKvfjBVLaOuTzx43/SpoCU0QdUkWl0tNdXqkrxa7bO1QtUaVn4O5e+orhlhcdLdYUYxVN709akfb4/Ks9qI8SA+r8pHulPlI0ewWra9BlovQcJyiM0evk7CYhUkNF1SlUf+wKXurMo3MZlq3NXQmcUMn0qH4VU10ZpD5UfTYGwm9LWrmuy5O1Rh1THQ9ccVolqFYherAmp3rfrM5fuh9jjMyYeokMGum8J+xrvvxy0cXC7nYdXCrGmqV8TRn8K1U4B5/fd9b48KmLvrYMG+weuqM1h1XVz5VyqPNl6CI/+sWriXPAqZ26bmvp9010BLeoW6rofFYHV5EzOeBC5ibMGREJGkbnqeFjW4s2ugpmPO6uHLxmZD5JeqW0RTGSTfpWq0WyvVwOvoBarv9lTUJhv9qpY7YbkKsFwDwYjuUC1HcYuhqRRay1RT9rGfqfc3/kDVygv76m1XrRigxqp0NaogxJ2mavtAdVWoP6e6hbVWqLyQ/RD096pWwtAYNdh4KIdLBeXOEOjvGizstVWpblqxOSrvDB2A3NUI1afUzbbtsqoFnLsN3BnjfwbDqwqj4akQHD36fWcImF7o71SB9OL7IfEuSFgmY15mmt52da1BU/my/H0IS1IVQf5uf4ZXDXhvuwbe/5+9946S47rvPb/d1TmH6cmhJwdEAiQBEgQYRNIUw1uREp8s07Js2efJ9tor7fHaaz377dLPKx3LWcFnfaS1JUq0JZE0RUIEkwAwgTABEMAMMBhMnunJnadzrKr941dV3RMxSEK6n3NwMNNTXX276tbv3l9OA7NHgWKSPHqJeTLcGJ3S5qoMjZ48eGpNKS8AoHA0nZVCzTSSV0QmMg5w/0mK/PwJwFBBn2NcZR7KFHPkEU/Nk4xWL1NCVGrKH4tPkVLkaAI2/VegcR/lczGl5eZCo6doCK2VQhuDgxe/7kfG6Z/eAlRvWcPjoSJviIqTFP/C+uO6mHXfVgsM/pwMQnv+O1C3ixmEbiKY4nIrUchQzPXMx2QR8b1D1hG7d+mGKTgM5DK0UfSfBXR2wNFIi6/AU7zpcs+FwUZCii9Q7LUoxakujlHoV0XPUqUlnyCXtcYobVYPUWiFpXZ9t65QlKzrPtroLQ9TUHNk6cYIbVDNVcDmX6e/masu9woyriZCnhSEof+ge6fWkiWtcR8tcPLeLdQPJObovmsMVAms9UGqnCQnJa9QkFXSPFFB6dXC5yn3JRMmi+TyqknxKWD8dfpZPqZxL20yL/hdipLlfT0rn1CWdOqm78isgjcWaT8wm6A5WUiT0tL1KcDTXaqQx+dJ1nI6km0GF9D5mVJ+iyiuMVfk+QpQzxYeWJwBwgOlnKry+VJIk7ISGqDP1FuBnV+iXIXlykg5okjGKZFfe86q1FCeG62JlBdrLcvJuhHY6LofmQDUJpoL4XNANkTet1Tg4tZ9gNb2Qgqo3E7Gw/I5lQrQWIQC5cCIIGOQXNVuNS523dfbAO9eihJxtrF5epPBFJdbiVyMLBbZCCkOAFB7B1B7Oy1MokgWwZkjZNETRXrge36Vwl0W+kAJc5qVG0M1V6pmI/B0XGSCkkb1FkrgKycTpEV2cZwEDVQUg+3uWN8rI4cSFbNkqVmtRCenlfanAgkw2UrEwsSub1Rq8vC1PUI5ILNH6XW9bemcsDUCVdtow68xUmK+VcqV0pnJwxeXrMcyQpHmjFCk/C2VijyIiTkKh/Esm58AWZOb7qX3DfyUwme05gtbmFUcYG8mZWe1Phuyx4cz0vMl/2PceBjdZJSx1lDCcDpAGzWtqaS4cFqpIpdUfcngpEpeeitZhjV6sminQiR3ZfgCWbyhKoXEREZofjm89JnlqLUUImOtp9Cb0DlKzOcM6yvQnJaeCb2DilosL/Mt5ytwBulcajIYMAv2jcGF1n2ZhVMU3iW392t6kHIBfVFc1LqfDlFujVgkz0h52CSfB8IjVPGRlwo8NO4DanaUik+sxsWu+1oj7SUstaVKZIybBqa43EpwWsoHsNVSdRChSPGvtjqqjiRjrpRKHBrowa/aRgux3kYCKhcH8umlgqaQlUpxciXLceAsJca7O1ZW+uD0ZGExeYBwlM7raF7f6gKQ0NKaqCJTPrE0hEImFycrjsZA41mtDwLj+kOloUTMtl+Ryl3OUDLx4iTFKcvYvFQRyd6w9P1mD80h/1my5NkbaMMnCpRTEp2gZ8At5beEBmkeO70rN4EAvea9T4rFPk9KdnyKlKv1lBdOSwn8Qz8jBczVQfNapQJSYdpQakyAo4UW1FSQQjHt9TS3GTcOhgoqWVyznUoe934PCA0t9e6qtUD9XVLuSJmCKookix3NZIUODtD7dCZpzg1RKJneShbpQoaqj5mqSXFZbojhtFRVqf4ukquLY6RMWWokmbwGag0pVRWbgfB5Cp802KWwyjQZoCKDFKJjrqTNY2aRLOzOZtbf5XpnvXU/W2ZYMbnpNY2BvILuLpo7RufFrfuL0zQ/TG7yKi5Hb6Hcrdg0hSc6/hf6nOV5YeVc7LqvUtPxTJ7elDA19FbC6Kbku+2/RZVj+JyUcCn1o1CpaEPV8Tglz215Bmi+nxqmqdQUt601kvVtcbKUpMzn6fdkkCx8FmlxC/XTouvqXLnRk6vxbPl1wPsACbDYJPV3WQ81R9ZBVxcl3yVmJAuhSAI5HaYNpsZIm2C+ULJmXiiGlnF9oOIoNLHxXqqOtHBqZTPI1dCagOqd5JEJnqHeGMF+qmI3+S4pQe4OSnqGinIFoCbvyFoLnJqj56btCQpVCJylebceag1tZB1eKkwx+S6NIdAP+N6lzYOzmcbKF4HAeWDkAG1eyxOtGTcOeitQu5M2e3MnSSmWqxmuhdy/qmEfzb+F08DMUZon86eoilMhTVWc7PWk4PpPkkJurl77vHobla+v30dl6BcnVm+WWo7RRflbQoEq9M19LFWZ/AgYP0iv19xGXsjMIilEo29IHiE2Z69rLrTuy3jvA7b+BrDtC0DnE1IBE+4i1n1JWQ8PUullV+fKhr+cjgyh234T6HqKSjMvTpLhZj0udt0XeMpdTPrLir0wbhaYx+VWhNMCjXuoakdoGLCe3ljSuquZym8u9FKvDLm3QGKBNmcpP1C7ixbZwHmy+NXuWj+Z2eigvIHJd4BpqdxmzW3ru3Y5HeB9EBh8kcZi8tBnZuPAzHFyUzfdR27qbBQYe4fe13o/WQwZ1x+cRrKQlVmkG+4GoqNkmQsMAo462pRpDWtb5+ruoPkx8CJw/O/IOl3MUHhO3W6g+SHy9uXiQNwHWBrI4r1iLGZS4qGWnpfdtCAvTlJVJ3sjAJUUZmOVYsWlcBw55G3T5yjEbODHUniNiUIxa3bRJsHdSspKbJLCJr37pOp+TCzfEGiNADiaLyo1eSm6PgOc/A556DRmmqt6mzRf1wjXan2IlN2hV4BjfwsYPFS4wVxDZYwb9tDmLDxCOoK7jWL3ZVQqmtM6S8lAZHQDbQ8Bsx/SfDXXUGU9OcxLTvqXMdipwiNUwPDPKFxYFKl0rdYMdH2WwnkMNpqz0VFSovJPlxKsGdc3q6371Tsu/L6NrvuORvLCzX0EGCupd9Va6MxUhazpIVKQ7U3kEVovv/Vi1v1ChsqNB85S6LGt9mKvFuM6hq2QtyQqWlBbHwX6fwRMvQ9oLBd+m0ZP3hidFRh9HZh4kxL3U/MUauD9BIX5CDxV9zBUSu7mdZQFFUfKS8+vAr3/TKEQ1rqyErKrwGmB5n0AROpKfeRrtBjn4+RVaXyArIeWSqo8NfMBva9uB1Ncrleqt5M3pDzsRG8Dtn6eLGYaI83ZB/+erHi6deZr5SZSABZ9Uq6LlZKJzZXUK0AoANPHyYtTfxctfuVUbQas/ztt8vRlYYbdn5L6DUhhN5wWqL8DcEohadploTuOemDnf6OynbE5qcHgJlKi5NAdUwX1hGl7WKroxETyDcNtv0OyTvbWqTVA1SZg3/9Fc0FvJat1017ykqyXIN+4h/IAF6fJs2J0Ae4WmhOcluby9IfkHTRXL02q5nRA5+M0h/RSjgynpR4Yn/iG1OxUel5MFcDmzwLCU/QZ5chytWYbyc1MlEKMXM30vxzm5mwGbvstUlpMHqa03DCssu4bN7AebnTdF3mqLFbIADUNJP8udN7Ox6nYxNzHUlj6prWPv5h1PxUkpWXsAFU1s1Qy2XoToRJFFptwSxCbIsuE0UlxrACF4SyOA1CRspAOUfyou31pkmg5Ak9lP2NTlDOQT1HMqr2BrNAGB20I3/0fVAK5/TFK8CsnPEybOJOH8hJEkSw1ofNSnG09WRAFXipXG6cKNsvzZLIxSq6O+chdrdHTJtTWQMdqDHTeyBgd72pdf8PLuHaIwuoVwZa/LvfCuFDDO1GgMq/FrNQ7o6zXRCED9P6QFCLvPrL8LffwCVI4RLkitdYYlQpiq3gJ5V4wxazUadoinXPZ+OWKTqyq2I3DRuaDKIWybKRksMDTPOHzdLzGSHNF4Ek2nvr/gIa9QPN9K3MBRZ68Mcurgq14XQQEqaeLeo35Jgr0jPAFqYz4ah5OqRIZU1quby607tubpLDuc+SpMLpXl2MXWveNLpq3p/6V8vo6H6fCJuXyMz4rKcO2UhQGX6D+QSqO8ruMziuz7vN5Cg9PzlLJZrkgC+OmgCkutwoiTwuWSr1UmMh5H2qN1OQPG9sY8gWqVlLISon7FrLIFbOkKBz5OrD51yjcZ3n5WEFqiKZe1qiNz0kVQ8osI0KRFn81t8bGUIplzSWl0rIOsjDK45c3Dhv9XoybH6FIfWA0RkpSZcUbGNczogBkIhT64myhzRmrQsfYCBda9zktAJGMPJzuwtW31lr3RYEUmw//mqo8tnwCqOhY+t611v3VXr/cdV85d5HOydb9mwqmuDCuLHyOwnOmPyCLi62OWeUYDAaDwbhZEQXywoy/TX1TnM1Lw2wZjCsIU1wYDAaDwWAwGAzGdQ8rh8zYIEy/vSURhWs9gquMWPaPwbhGCEUK12El2xmMmxS2xlwpmOLC2AAixbTK9dsZtwaiQOWkb+bNFF+gLs7F3LUeCeNWJjgEjB0CZk9e65EwGIwrjcjTHoopL1cEprgw1ieXAHz/CXz0d1Tpg3FrIBSpcsv7/zcw8jqQDFzrEV0dxt4GTn2PeghdbfgCMPURMPkBdURnMGSyi0B8BkgHr8z55IT+o38tVXFkRicG45qQDACjB4Hj36SGsozLhhW2ZqyP3JU2PMweulsJUaDGjcEBwLWFii7cjKT8VBrU1nD1P0vkqYt5IUsNBK01l39OoUilchd9QOvDUpUgVkHnmiMUS2WFE/NU3t1WQ5UNM1EgHaUyw3apeIm9gcq66q0AxKVezmxs5fHy+eUmqID0HpGqMBVz5MWZPgLU3EHV87Qm+nxRoM1ULiFVZHJSA0qZQppkfiFLjQLNFWxeMS6edAiIzdKc83Teun1U+ByQ9AORUWZAuELcojOJcUnItdzzaSpTaHIvFUaFNC2yggCYHFRuVi5lWF6WmJdKL6o1tMBmY/Q3eeHWGKT3CPS3QoY+T2ehhZRx9cjFqcSkKAB8ceXfZYUmvUjlKw122hDJfVPKUanpHstlOPkc9RTg89SAUW6AJ5fDBOhvmSi9z+Qqldrk89STp5Cl88mfK49po/OkvJynwVaak0uOWWOcqyGX7czFqRS4fLys8As8lQzV2+h62OrovDorjbt8IctElh5ffn65LOjy8t6ZKDB7AgieoWaaemupLGgxS5vTYk7q4G4vbXKX30edFdCxDuhXhGQACA/Sxk0oUpVFFaiPlFpDr6eCdN1bHqYKTABQSAFCnuZAYICUaj5P8zUVpHvqfQBwtwHRMfocWz01rgSAuRM0v81VknfvfSATBuaOk2x2d1Bj38AANeeT5bitDqjcSuPIJ6nR5aKPzmFyA1XbqLTtrbrxvFhkhbVcjslK32ptB2Q5oFKVrnExS3K4mKHn3lQhlStW0fsLaZJRag3JQo1ekg9ryOe14PNAOkLnNNiWKrd8ns6bidL30RgkuSQCmUWaH0b76r3RRB6ITQNTR6UO93UlGahcnwgda3SR3Fwu38rloc4qjTVExynrTtnxhTT9U8nybNn3Xm9/str4BaF0HXQWuvb5FD0jAk9jNtilcUuhYIU0ydvy9YtxxWGSiLEBJOEQGQUSC9TYidNQh3J50UwHqX/L4hQ97LZawNkKWKoAqGgBlcNjMmH6m85Czaxi06VNX0UH9Srg9CSk5k6SsNHoAYeXPk+/RnNMxuWR9JOHJT5HGxqtcenGvpilY6JjdIxKTZsxVxstksGB0rEiD6g0tOC62mjxWxwHYjMk/I0uoHoreR2SC/R3Pkebt8gkoFYBtbdTx3u+QBupxUmaC2qOPldulLrReVLM0ucvnAIKObKAp/wlpUkU1h/nkt4DRVq8Y5P0e2KBlHqDgzaWhTQQmaDv42gCqrfTfLc3kJKj0ZNSkVyghRAAopN0vL2RPlNvA4LnAM4g9ZuxA4UkEB6h7210AcFBOiYxC/jP0PV2ttC1jI5L58yQIufppnNrDPQMBvqle62lTaurdWVjQ8bFszhF4ZWpeWrwJ4o0pxZO0fXVWanbd2QE0Nqp6V90Ahh7C9DqgerbqJN44AzJWZ2VGgNHR2kOm34dmD1O97vx3pIMHv8FzevaO2jux33SBnKS5q7GSJva/h/T/DA6pb5bI/Rcb/5VIDIODL9K5zNXA2IBSFbTnGZcGIGntTA0ROuhzkLPllik59faID3zZY2eZTnAZ6kJZCFD82FxAshI8q6iHXB3kkxOzAOhQVJcNQbA00Uyj9OuLp/d7SuNL0pDSR91uy9mqbt8RRfJmnyc5IOlmmRIKkSKja1emlMzNG53G8mV5edPBuj9gT56BhY8gLuLvm82Iu0VpulYl5e+m95GykpihtaO6KQ0riraT+STQGiEPl/ee6g4CrHMJ2iMmahkIKql72J0klxfb38iG0pl5PuRk4xX+QTQsIf+j4zSteULdD9rd5LMzS7S+hSXrotaC1RtBpzeqzHLbnmY4sLYACJtqAZfpoe8kCaBMtMA3P8/gWIeGNoPTH0ACAVAa6aNUeP9QPujtGBOHAbGXgM0JiATBLY8AxgqgJEDQFEKQcuEgcrtQPvjtMEbeQsY3U/Cn9MBLsndXLP92l6OmxGhSPdi5ijda62JhLYcIiaitCGbepcWqnwCMFUCzQ+RgO79vnQunpL6AaB+N7DrK8DEe8D467RxAgCoaGG78/eBmWMU0pIJ0eIr8EBsjBaC7k/T4eO/AMLn6edslDZVbZ+kTdqG5olI4x/aD4y/BtiaaUOQjdA8BOj7rjfOcstiLgFMfQic+VdajDUGum7FrHQ+gSx0qXnA2giIKqD+DmD8EDB3DOj5DGCpAQZ/DoQHShbT1DxgqgLyTwHefcDxbwM2L9D1XwDDVsoz+8+/A6p3AlXbAf8pIDJE96L/3wFLLbDtN0iJHHsTSAekzUIUqNgEdD1Jm5yZ48DJ79AYVByQ6Cp5URmXj8YA1N8NbPsCKS5n/o3uu/d+oPVXaINz8l/ImyKsUfzCWg807QNqd9BGqvc5UmZysfU/W1a2c0kg1E/PUP0e2lyNvQ2EzgL3fR2o3EKbs/MvAjMf0JzynwF4Huh4DGh5iDZgspeOcWHyCcD3HnD+JQAioLOTbE3NUTPmrqeB0beBhZPA3v9OikrMBwzuB+KTwMN/T8rj+C/ouYZIlv/hnwF3/TE93+NvA8P7ybMG0LqpMdA8W00+t30SaH9saRPGfII8ciOvQ0kYTweB9ieA5geBxVHg3T8HqnbS+HOLUpNKPXkyVBzJlPkaOnf7J5deh4XT5LmL+0imLY4BHZ8ieTN3HJg8SAq7KJK83fRZkk++I8DQC4C5huSRPNd1dhqnSgXEJoDau4CuzwAWDzD0c1KQ5AaWhRTtOVqfADofpTm+3v6koh1LwiCDQ8DIz4HoMP3OZ0hmTr5LXs1Ckp6LQpqUpY5HSfmffIeMBHJ+2fzHwKb/St+ZcUVhigtjA6gBnQ3Y+d8kQTsDjL4JTB0ka3dohDZKVVuBrV8ggTP+LjD+BuBsAjxbaTMqFOjv1mqyYHM6oGYHbdoAYOg1EgyhfkBvAqbfA2p2Ad2fouPVGuZ6vRoIRcB/Dph6D6i5nRYvnYksce99lY7h80DoHG2yt38JaLgTiM8C/T8Cwv1A015adAHyjpz7Cf3c9jhtmIb/A6jfC3jvJavh1BHg3PPApk9LISlVZNVq2kuLWe8PyMKcnAMa7wFu+61SGMXcaWDwRSDQS9aujcwTviCN/zxw2/8KtNxPx5x9nhYqufPzeuPk9Ms2ccuei9AwMPoGWQzv+SqNbeQNsr5mI6tfe60JqNxGC5zRAUy8A/jep4XYu2/9++aWPCS5GG0Q9v4ZbQZiM8DMEbqHO/4HGQHCo8DJbwOzx8hTFOinBfX+/4cUG7WGbVCvNGoNybZCtvQaJykCnA4wV67fqVxjoDnIaek4jQmXlWeSS5BF2tYoWfuNFELobJUs+H4yNPg/BgZ/BoTHKfywcfelf+atRniU/rnagTv+kJ7B6WPA+Rc2fo6qzRR5IBRpzYxNA4f+D3pmo5NkgKnaBtz9J3S8Wnpux95cXT4HeoHGvUvzmMKjJN9dbcDtv0evnf4BkArTJlytovm35fPktVn0kbIUnwB2/zF5LKaP0ZqRWlj5HVo+QeMfehWo2gFsfppCVYdepaIvXU8DnY/Rs3Hka6Ssaey0dzDXkCwzVQDT/0kKAacF7vzfaL6e/oEUshUH4CHvjLMN6Pk0eYQCA+S99B0E2h4kZXy9/YnTu3K9KGbpueh8kryXmTjg7yXls/VhMtZOvEcKf+Mu8qh7eujcfAGYPg6cew6IDLJGnFcBprgwNoZKRWEwBidZ8nTWUoJoZBjQWoCKHsDsodcqNwFj+8myUZBiqfX2kluZK7NYhCRLemSELDtCkY6t2gHMHwcGRdpQV24mpYdxZRF4WpjUOtrk2uoAiIDJWdpYpUO0gKaDZEGbeJcscOkwLc5ynkQuThZHrQWovZNCDcLDQNpP55jvJatYbJqUITlMS2OguWWqoPPqHTQGuQR3Nk6bq0KGvA7pAGB2k+KwkXmSksYPHqjbSZ+l5kgZUYHOGxm/wDhXKWVZ/lzoTKX8ElMFbRRMHkC/sHY/HDVHyou5gsK5DA4a02q5Nyveq6Fj1dqluT0pP1nNHU2U16DV0/NoqaEFXyWF2s0dBfp+CHi2AbW3XZliAYxlLFc0VKV/6ykt8rGq8uMvNzleitlXcZIRQDqnmiuN014P3PY79CyEzgPnf0KKeOfjK0NqGCuJT0v5RF0UeqXiSJZx+o2fQ60Boj4K+colaINezFHOobuePNMzR4DT36fcpNod9FyvJ5+xTP7Ep+mf1giMHaTXUv6S7FFLyrLRIeWTWEr5iiY3bcYNTjpuNdnG6UteZI2e1gaViuR2co7eP3aoZDCy1EmyXpqPsvzUmEgx4bQkI1WcFMI4TwYugM6rs9I59TYK/zK6gYVjZDAKDqy/P8mnAaNu5fgt1bRfEQUgcJ5C1aKTgO8oRSLEJskzL3//5AKF+OVTFOaXXZTyN1kJ5CsNU1wYG0elJiGhWrbo5lOg6jYG6XWR3LEAWR8EWSBpaWOl0ZNQ9fdRuI3BBWitSxOVjS6g9SESuukIhRLFp4HGfWRpZlxBRBLAag252DktbdblpHqALEzFLACBFByBp+OrbiM3utZEwnzkNXKTV+8AarbRsfk0WQ7Lz2epAVoepfssJ56ruNK8Kt9MRSfIzV/IkSJQvhAYnRubJ3xOGr8ozdNlm0A1ky9jAAAgAElEQVSB38A41xCX8nOx/DV5zq+b1Cwt1Cr5+6o3sKG9AMUcjUdrIgslQNdHIyWz6sxkaeSzVK1q+gMgOUueLU/35X0245eDWktzRq4kxhfWVo75As1/jZGel3SQNmAVHSS74zMUrmty01z09ADWWlKEp49QaE/7I7/Mb3fjUszQ9eb0pZy41eTDeiz0AtMfkTHFUgsUpXsMkJeuaS89w+kIMPoaeTwsdReWz8vHKRQAtb1UhMXeTHPAWkvh3MBSWUhfpvTaxX4vQUp0V6lpvZc/t/p28vwYHUByvnTuJUq/qnQ9Oe3KIiKqsvVCraHno5gtFXVZb3+yWn86taRwaU10nmJWkuVakqEqjjyX1hpS4Px95NkRsNSzxbgqMMWFcfmYq4DMebJW8zkAahKmokhWutVCUDJRethD/cC23yELSyZQcjtzesDVQhbo2BQweZgsUNY6prhcaVRqWrAEqWpLLk4COpuAsmDqzGTN4qTKMq4WsoQJedoM8Xlg4Qx5Kqq3U8KoXAnG5KL3ac2A3VtKmBR58qytt1HnC+TRmz0ONOwlSxmnBYLSQqzZ4DzRSuMXBNqomT0ACiXPBqe9vHFeFVRSVTWp6tryKmTliNLmVShKoQkqUiAzEbo2qTDFpFvNFPpgqwU6ngAWZ4DRA0BogL4/U1xuDEyV9IwGeoExu9RINSGFk4HmjaWKrP1zJ8j662imhOb5OsqhWByj+REdp9Amez0ZCTJBqYJTgD5Da7oC3p5bBINk4EjO0mZXoy8rXQ0AaknplH4V+dJzKzN7gsJk3Z1AZQ/Jq/JNu6OBDCqRcWDoFbq/jYb15fNyj4/eTnKO01DYoMZAY9GaycghKy5XAlGUiu+YpH9m2tzLoVViDxmGLrndgkjv5XN0LeWfjRX0eZYaKmCy1v5Evcr+pByVmq6XWkOy0+GVKqSB7ovWRGFkoWHKJavoovu5Wli7XCWSPU+XBVNcGJdP1TaqahQdo+pOWiMwfZTctbYG+n05xWwp9pvTgEwVZeEQhRQJZo4D9GayNInsYb8qqDnauOisQHgImHaTIhkaJr1FpSJrmMMLBDwk9J2NFAfNZ4CCjjZNAy9KYYEqcqMn56VSmA2Ao01KXk8AKhtZ+wqpC4dECQWpRKzkRVAtnydpyum40DwxOmn8/j6amxrJqyQ3/NPoLzzOci/QLwOVmuK9s4tUzUalpk1muQdHayDLOJ+nhFiTh5RQSxWFfkx9CDgaKe67kKbwB42erhmfBTgVJYHLJT4Zl4/eSpWUzB76XaWmeelqI+ssICkW1aWfDTa6Txpd6fhirmQZ5nRkCS8kaKPkaqdnbO4YMPYLes3oofcZbCRzPZ1A3d2U9J1dpOe7cS/Q8RQlRMd89Pw6W4HWRym0KTxC50xLyoupAmh6gKz4jAsj5wtFh8hTZXDRfconAXhKuU2iQOFEfJHCdJViICDvl4qTQvN4kBdFKp0stw4QchQC6mgmJUe+56vJ56JBChEsM7w4vGTcScyQrNNoJXmgAcSLCGtbD42R5m9yFpj9iPIAzTWAYY5eq2gH1Cb6XKFw6SFVokCyLtBPZcNjPsnrfyc9bzU7yAt/MfuTclQcVYYzOChsLxcBDNJzKfD0nBazVIFPBVqjyq+1nD9YzJICVb2dnkXGJcMUF8b6qCSrr5zAC0hWBsmyo+Kogk0+Doy+Dnz0d2T1K6aBbb8N1OyUasDrS7XQAbL4ejYBwX7g1HfpPDpLSWAnF4Def6XzCjwJt+qdZIViXFlUHIUOeR8CRn8OnPp/AWOVtBmqoMVHYwDc3UDVLG16pj+QEhGzlMvi2QyEztD5ekfpf52NKivt+grQ8SRVxuk7Q5sgUSBlwyn1ttAYJAUW0pyT5ovBDhjcgOM8vd93mBY/oUDzLOUH+n504XnCaWn81bPAxBtkqZatmGapJKbBvv44zZ6y8I/VngsNLYLl85yTv5tu6ffitHS8xiCFlZQdrzUBWh0dU3cX0P9D4Ny/U2UdTkfWdq0JStlPzyaqUnT8Hyhk5J6vAi2P0PN49jmywqYXgI6nyWslFMjiPndc6vuQouIGFZuuzvy61fB0Aq7m0u8aHYUztjxIPwPk3ep4jH7W6mnuuTulEBXpeFFcenznfykdr+LotYZ7pNyH1jKrvEbKT3ACu75cFgYqzcPWB8gjGpslT6qtVuo1AipaUdlDfwOo/4al6uper5sJZxNQvY0qUh37R3pmRYHyTlzN1JOkagtV2Oz/MckYvZTLIcuNml1A8ucUBjb1vuShcNH/sSnqERQ6J22aUxTK6pDKVa8mnxvvLZVBl3G3A6kAebM/+gfKAeGz9Nne+8gLIa/vcniY1kTzZbmsWiv3ydZEMnfop8DM+8DmL5BsLqSAwZeA2aO0RhSzgPdBytdZvk8ol4cynG7peiEK5E0++6OSIczZCmz5NZKt1Vspl2Wt/cnyiJDl30vN0TPdsI+qV548DuilPF1LHRWOqbqNylSf/yl5OS11peIcct4Nn6XKm3v+T7aPuUxUosgyhxjrIIpkecsuSi5naTOXT1JYkb2BhByfl5LTJoFcCqjeRNZfuWJYMUvvMVWU4kwLaSDhJ+uvW+rrIhRJIGgMlFgYm6H/rTW0KOitK+NbGVcGPkdx07kYbaotlZT3obdKVimRvGSZMLBwjhZhSxUdp9ZS0mU58uJndJILPxujWvq5pNQ5vprmSD4pNSA10MIoN5Tk8/TZnI4saJFxWrxtNVIOjoYW/UxkY/NEbhKWXaTKWgZbqWITZwAM1vXHWR7vvdpzITeNg1Ca5/lUKT5ab1n6veS/yw3V5N/lYhbydQsOUWilwSYVHVBLxS5stMgW0vR9ihm6PiY3nSsdJmtuMkjXzNlM5xBB4YCLU6WwOUfTyoayjMtAXlZVa/y+/LXyZVi1geNRCh8EpPyw8s8v+1xRpN9Vy94rNz1ULcurWnLeK5BzdUshlmRIcoE2wNFJqoJorQLu+Aqtc4kZqtpm9lAxFE5DlntTBd2X5AJ5DzgtPZuyHFZrpJ4hU6R42OrIe2KQLPiryucqeu6XzyW+QLIzPE7/OxvpfHqbtJ77S+u7wFPhnEKGPH8qNcnsfFIKpVqlcpbIkzxL+el3c1UpZySxQLJJpSZPo7mS5L9QWLpPWCIPJeU6G5cMVwa6FgMv0+8tD9C6BZCclAuwAOvvT5bP77W+F5+jccem6TrY6ii8Umcu3bPEgtSvq56UKb2N1ii5sbJKJRUnYh7My4EpLoyNIfJLE+bkjrXl1gq+QEJJ7na7JLRGLFW0Uc4pksAp5mhjrOaWVgoRBOl8haVVShhXD4GnZmnl+RVLEiVFaRFL0v3S6EsVipb3o5A3PfI9kzsmy/G/Gh3NB1Eoxf0qx/JSmJqUACrwNBdUHL1Pnidq9UXOE6kvglAojRtY9tlrjHPV05VdH1Ge4ygdv/y7lX8v+e/rHQ/QZkQeb/mCp172uXI4iPy6fM34PC3y5ddFFEohDrIFc0UiLoPBuCTkjusqNTDfR55Psxu48yu0oeYLJGM4rfRcqpauj3xBkqdqim4olzPrPddryee15KHAlwoKaI2SZ7isg335+i7LmHLjRrmCu+p1EEvrglxxUX5NDhXXGkp/W75PWHVtKHstMU+KC0Dl8OXwTPl7lLPu/mT5uNf4XnKhC4Gna6vRl87BF0pFbTR6yTAgr3/SugOU5DPjkmGKC4PBYDAYDMbVIDxKfUUMNmoAW97IlnF5pILA+Dv0c8v9JcWFcVPD4gIYDAaDwWAwrgbmSqBpn9R49AolvjMInZkaS8o/M24JmMeFwWAwGAwGg8FgXPewhAEGg8FgMBgMBoNx3cMUFwaDwWAwGAwGg3HdwxQXBoPBYDAYDAaDcd3DFBcGg8FgMBgMBoNx3cMUFwaDwWAwGAwGg3HdwxQXBoPBYDAYDAaDcd3DFBcGg8FgMBgMBoNx3cMUFwaDwWAwGAwGg3HdwxQXBoPBYDAYDAaDcd3DFBcGg8FgMBgMBoNx3cMUFwaDwWAwGAwGg3HdwxQXBoPBYDAYDAaDcd3DFBcGg8FgMBiMmwBRFCGK4lV/z2oIgnBVjmUwymGKC4PBYDAYDMYNDs/zyGQyyGQy4Hl+Q+8RRRHZbBaZTAbFYvGSP1sQBESjURQKhQseWygUEI1GmfLCuCS4Z5999tlrPQjGxZNOp1EoFKDVaq/1UJDP51EoFCCKIjiOu6j35nI5hEIhmEwmqFSqqzRCxpVEFEXEYjFoNBqo1Ru3fSQSCQCARqO5rM/f6HkudZyMm4tcLodMJgO9Xr/h9xSLRcTjcej1+suSSxdznksZJ+PmJhwO48iRI/B4PNBqtSgWizh37hwOHTqEUCiEyclJOJ1OGAwGAIDf78d//Md/4OzZs6irq4PVar3gZ+RyObz00ks4ffo0zGYzPB7PJY01kUjgq1/9KlKpFFwuF2w225rHDg8P4y/+4i+g1+vh8XiU8TMYG4EpLteIRCKBs2fPore3F0NDQ/D7/VCr1bDb7Rd87/DwMA4cOAC/34/Ozs5fwmjX5+jRozhz5gyKxSKqq6s3/L5MJoPe3l5885vfxJYtW2A2my9a8WFcHoIgIJ1Oo7e3FxaLBQaDAalUCtPT0xgcHEQgEMDCwgI0Gg3MZjMAUpq//e1vI5fLwW63K69fiB/96Efw+Xyw2WwbmueXe55LHSfj+qVYLGJubg5TU1OorKwEAASDQYyPj2NychKBQADBYBBut1tRVj/++GPs378fZrN5yevr4fP58N3vfhd6vR4Oh+OSlYmLOc+ljJNxcxMIBPDWW29Br9fD5XIhGo3ixIkTGBoaQktLC1QqFaqrq6HRaBAOh3H+/Hn09vYiFothy5Yt4HkeMzMzSCaTcDgcS87N8zwSiQRGRkZw4sQJRCIReL1euN1uBINBzM3NKWtyKpWC3+9HJBKB2WyGWq1WFPFMJoNwOIypqSl8//vfR21tLZqbmyGKIqanp5FMJmG1WqFWq5FMJhEKhXD27Fm8+OKL6OnpQUtLCzKZDBYWFpDJZBRlKxaLYX5+Hul0Gkajke0NGAqXZ/pkXDKJRAInTpxALpeDwWCAz+dDOByGWq1GbW0tstksQqEQtFot7HY7jEYjBEHA3NwcxsfH8cEHH6CtrQ1PPPEE8vk85ubm4HQ6YbFYoNFokM1mEQwGYTAY4HA4lnhmBEFAMBiETqdTNnPJZBLpdBoejwc6nQ6FQgGCIIDneUSjUXg8HmQyGeRyORiNxiXWlJGREUxMTCCbzaKyshIOhwMGgwGCIGBxcRGZTAYmkwkulwsAWXhisRjS6TTGx8fxwgsv4Itf/CIqKiqU8QFQFvlcLqcIrVwuh2KxiEwmA5fLBZ1Od/Vv1k1OLpfDyy+/jM985jPYvHkzgsEg+vr6sLi4iNraWqjVang8HuTzeWUBO3DgALRaLbxeL3Q6HeLxOHQ6HTwez5INV7FYRCqVQiaTweHDh1FXV4fW1lZUVVUhHA4DANxuN3Q6HfL5/Ip5KC+Oq52nubkZLpcL4XAYWq12yXmWj7O1tRUGgwHxeBxGoxEOhwNqtRrxeBypVErZGDCuf0ZGRnDq1CnU1tbC4XBgdHQUExMT4DgOTqcTOp0OgiAo86Wvrw8HDx5ES0sLWltbEQqFwPM8rFbrCqtwJpNBOp3G0NAQXnvtNTQ1NaG1tRWiKK6YJ6lUColEAlqtFg6HY8nGarXzeL1e5PP5FfJwtXF2dnYiHA5DFEVYrVaYzWZFbguCALvdDpPJ9Mu76IxrgkajgclkwtGjR9HU1ISpqSnMzc3BaDQq8jOZTGJkZAQjIyMIBoOK4j47O4tcLgefzweO47Bz5050dXVBo9Egn89jbGwMfX19SCQSmJubg9VqRTweR19fHwYGBqBWq9HX14c777wTPp8PY2NjsNvtyOfzaGtrA8dxiMfjGBgYwODgIHieV8LEZmZmMDk5ienpaRQKBTz00EMwm80YGBjA7Ows5ufnle/o8/kwPz8Pv98Pq9WKxsZGdHZ24sMPP0Q4HEZVVRV6enrg9XqvxS1gXIcwxeUqMTIygkKhgObmZhiNxhV/z+VyCAQCaG9vR2trK0ZGRjA4OIhisYgnnngCIyMjGBoagiAI6OjoQGtrK2ZnZ3HmzBnEYjFks1klpnRwcBCjo6OorKxER0cHrFYr5ubmMDAwALfbjZ07d8LlckGlUiGTyWBychIjIyNwu91oaGhAJpPByMgIstksamtr0dPTg7m5OUQiEXAch8nJSdTU1EAQBMRiMXg8HmzdunXJop/NZjE5OYmjR4/C5XJh586dWFxcxOjoKPx+PxwOB3bt2gWO4zAyMoL5+Xno9Xqk02kAFG42ODgIh8OBXC6HZDKJrVu3AgDOnDmjKDUTExPQ6/Xw+/3o6OiA1+td1yV9qxMMBuH3+8FxHLq7u1f8Xa1Wg+M4jI+PY2hoCHV1dZibm0N/fz+6u7uhVquhVquRzWYxMTGBsbExxONxJRY6Eoko1jaO47B371643W5otVrk83n4/X709/ejWCwqIV6pVArj4+M4e/YsOI5DS0sL6urqEIvFMDg4iHw+j+3bt6Ourg56vX7N88TjcQwPD2N4eBjFYhG7du1CRUUF/H7/inEGg0EsLCxgdnYWdrsdW7duhUajwcjICPx+PzweD3bs2MFCFq8Roigin8+jr68PdXV1qKioWNU7odFokEwmMTQ0hJGREezYsQO9vb0oFotobGxUlOZEIoGhoSFEo1H4fD4AZGGemprCxMQEYrEYGhoalsixVCqF4eFhzM3NYXR0VPnMSCSCUCiEhYUF2Gw2tLa2orq6GmfOnMHCwgJcLhe6u7sVD9Ba51lYWEA0Gl0hD8+dO7dinOPj48oa0tDQAK/Xi0KhgBMnTkClUqGrqwter5eFld3g+Hw+LC4uwuVyoaGhYcXfnU4n7rrrLvzjP/4j7r33XgwMDCCbzaK7uxunT58GAFRUVODYsWOYn59HTU0NIpEIXC4X/H4/YrEYJiYmkEgkMDExgT/+4z+GRqNBNBrF8ePH8eGHH2LHjh2IRqOKATWZTGJ8fBzd3d04cOAAdDodTp8+DZ/Ph507d8Lj8aC5uRkcx8Hn8+Gjjz7C+Pg4Ojo6lAR/v9+PeDyO2dlZTE1NwWKxwG63o6+vD5lMZklo2DvvvINEIqGs64cPH8Yf/MEf4K233oIoitixYweqq6uZ4sJQYIrLVYDnefzDP/wDgsEg/vIv/xJdXV3rHt/c3IzKykq8+uqrOHLkCO677z68/fbbSKVS6O3tRXd3Nx577DH86Ec/gt1uVxY/r9eL06dP41vf+hZuv/12vP3227j77rtRUVGB06dPI5VKwe12o6mpCXa7XRE03/zmN2G329HS0oJoNIrR0VF8/PHH6OzsxHPPPYc//dM/xZtvvokTJ06gp6cHPM/j/fffx3333YdEIqFsTHft2qV8h0AggGg0imAwiJMnT+Jv//ZvMTw8jJmZGfh8PhQKBfA8D5PJhJdeeglarRbd3d0IBoOKO/u9997Dli1bsLi4iN7eXnz9618HAPz93/897rnnHgiCgJdffhmf+MQnMDs7i6NHj+Izn/kM7r777qt6P29kDh8+jB/+8IewWq348Y9/vOqmXK/X46mnnkIkEoHf78fk5CQGBgbw+OOP4/XXX0cul0NHRwfC4TA+/vhjtLW1KYmfAwMDiEajmJ+fx+TkJADggQceUMIN3n33XfzsZz/DbbfdhlQqBQAYGxvDkSNHMDExAafTiUOHDuH+++9HLBbDG2+8ge3bt0MQBNhsNuj1+jXPMz09jb6+PoTDYZw9exbJZBLNzc0YGBhYMc6DBw8iGAxCq9UinU5jenoaFosF/f39iEaj2Lx5MzweD9ra2i47B4dx8QiCgIWFBXz+85/H7/3e7+Gpp55CY2Pjqse2t7dj165dOHPmDHp6enDixAls2bIFoijivffeU5TmV155BVqtFvF4HAAZRw4fPqwYVGTvoCw/hoeH8fLLL8Pv9y8JK3zvvfcwMTGheFyKxSJ++7d/G88//zyKxSK2bNkCjuMUxWWt8xw/fhyLi4trykN5nOl0Gv/0T/8Eg8GAbDYLp9OJ9vZ2qFQqHD58GJWVlVCpVLDZbKipqbkq94Pxy+GHP/whDh8+jE9+8pP4kz/5kxV/N5vN6OjoQDAYxJkzZ9DX14fq6mps2rQJvb29AEiearVaPPDAA9i0aZMyj7xeL9LpNMxmM3w+H/bv348vf/nLMJvNmJ2dRTqdxu7du/HZz34Wi4uLSKVS8Pl8cLvdePLJJ3HHHXfA5/MhEAggk8nA6XSivr5e8doAUJTtJ598Etu3b8dPfvITAEBtbS1qa2thsVgUr6goiqitrcWuXbvA8zxee+01APR8PfLII/jc5z6HiYkJfPnLX0axWITRaITRaITX62VKC2MJbIW+CkxPT2NxcRHxeBzz8/MXVFwAKHGj8XgcNpsNu3fvVmI+VSoVjh8/jsHBQTz//PPo7+/Hv/3bvyEQCGBmZga33347fvd3fxcff/wxhoaGcP78eQBQlIvKykpoNBokEgmMjo4q53G73Th06BAA4JlnnsHOnTsRi8UwNDSEubk5VFZW4t5774XH48Hx48fx1FNPIRAIwOfzIZPJLBl/XV0ddu7cie7ubhiNRkxMTKCzsxMejwcOhwPhcBinTp2CSqXC9u3bsXv3blRVVSkK2l//9V/jS1/6Eh5++GEcOXJEEcrlxGIx5PN5fPrTnwbP8/irv/orzMzMXIE7dvMyNzeHkZER1NXVKcUclisvGo0G3d3d+MY3voFUKgWbzYauri4lHACgxdHhcOCZZ57B1q1bcfDgQQBAZ2cnBEHA6OgoKioqcP78edxxxx1wu92Yn5/HwsICPvvZz+Khhx7CyMgIAGBoaAjT09P46le/ivr6enzlK1+B3++HwWCATqdDfX097rnnHiUme63z1NfXo7u7G8PDw7DZbAgEAvD7/bDZbCvGOTk5iaamJnzpS1/CmTNn8PWvfx2PP/44AMDhcKCjo4MpLdcQ2asWiUQwMzOjeNVWw+12w2Qy4bvf/S5aW1vhdDrR1dWlzJdCoYCPPvpIkTOnT5/GCy+8AJ1Oh3379mFiYgJ2ux2xWAwjIyOK4nL27FlUV1fjkUcegSAIOHLkCADgrbfewr59+/CpT30K09PT+LM/+zN84QtfAADY7XZ0d3dj27ZtyvjWOo9s2V5LHsrjLBaLOHXqFL7xjW+gqqoKr7zyCl599VV86lOfAkDzvqOjA1VVVVf+RjB+aYiiiEAggJGREWzZsmXN4/R6PR577DH09fUhn8+jtbV1Q56273//+3C5XKivr7/ssT766KMoFAro7+/HkSNH8Oyzz66b+P/CCy8AwGUZFX/zN38T4+PjOH78OPr6+vBHf/RHl3wuxs0FW6WvAlVVVfjzP/9zFAqFNa2GywkGgxBFEdXV1Th9+jT++Z//Gbt371Y2joVCAcViEWazGXq9HhzHQRAECIIArVYLk8mkuF/b29uxadMmnD59Gvv37wcA3HnnneA4DsViUTlPeQibwWCAyWSCRqNBsVgEz/NQq9XQ6XQwGAxQqVQwGAzQ6/VQq9Urar5zHAe9Xg+j0QidTodisYgf/OAHqK+vR2VlJTiOU5Sd8vFyHKfkUAiCsG5lMrnWvPw9eZ7fcMnHWxXZI6XX66HRaFb1uHAch7a2NrhcLpw9exbt7e3Yvn07OI5TjpevszxPZF5//XUAQHd3N7RaLTKZjDI35PtjMBgUxRygfJVCoQCz2QyLxQJRFCEIArZv3w63241AIIDvfe97+PznPw+v17vmeU6cOIGZmRncc889ymfLoWHLxynPZ7PZrFiyt27dCpPJhDNnzuDUqVMQRRH33nsvy5u6Buj1enR1deGVV15BVVXVup4Eh8MBr9cLtVqN/fv3o7GxEQ0NDYonDoCipJtMJuV+plIp/M3f/A127dqlKPDl8qNYLEKtVsNoNC55Xc6xk4tXFItFiKKIp59+GvPz8+jv78fMzIyizKx1nueee25deVg+7wqFwpL5bjAY8MADD8BqteL8+fP48MMPUSwWsXnz5su88oxryR/+4R/ic5/73LqVvLRaLe68807s378f3d3daG9vX/L31tZWHDt2DG+99RZOnjyJoaEhtLW1wWQyIRKJKKHl5dTV1cFkMuG9995DJBJBb2+vEiaeTCbx0ksv4eTJkxgdHUVPTw8mJiYwNTWFRCKxZA1pamrC2bNn8S//8i/YsmWLMqdlI+zY2Bj8fj9cLhd6enrQ19eHvr6+JUVV7r33XgQCAXzrW9+CKIrYtWsXUqkUTpw4gbm5OcTj8VXD6Bi3LkxxuQoYjUb09PRc8Lh8Po+DBw/i3Llz4HkeFRUVeOCBB1AsFjE2Noa6ujoEAgGYzWbU1NSgrq4OL7zwAoLBIMLhMFpaWuB2u/Hhhx/izTffxEcffYTq6mqYTCaMjIwgGo1iampKifW3WCxLzmOz2RQh9M4772BmZgYzMzPYt28fXC4XIpHIhr9zOBzGyZMnEQgEMDs7i8ceewy/+MUvMDMzg3w+j1gsBqvVitbWVpw+fRrxeBxdXV0IBALQ6XR48MEH4fP5lHh1k8mEAwcOwGAwYHFxUfmcxcVFHDp0CNlsFu3t7Whqarr4G3QL0dDQcEGhr1KpYDablXDDbDaLTZs2LTmmuroayWQSr732GiYnJ5HL5QAA0WhU8dIsLCzAYrEo73G5XLBarThw4AASiQSCwSA8Hg/q6uqgUqmwf/9+WCwWWCwWmM1mhEIhzMzMKJ4T+TPWOk8ikcDMzAxmZ2cxOzsLg8GAurq6VcdZWVmJeDyOF198EZOTk9i7dy94nkcwGEQoFEI0GkUsFmN9Ba4RarUaNpsNe/bsueCxWq0WNTU12LVrF44fP449e/agqoX2y9QAACAASURBVKoK4+PjAEgRl+VMKBRCIBAAQOFo8lzhOA7ZbHZJFcSmpia89957ePXVV5eEeN12222IRqN48cUXkclk0NPTo1RBkudrPp+/4HnkcawmD8vHKY//2LFjSnGU7du3Y3Z2VgkTlvMVGTcuKpUKHR0d6OjoWPc4OT/xmWeeQUNDA1pbW8FxHB5++GEAQEdHB4xGI3w+H1QqFTZv3qzkiIXDYeTzeWg0GuzZs0cxVjqdTtx5552KYuz1euF0OlFXV4dEIoGqqiro9Xp0dHSgq6sLoVAIdrsdWq0WFRUVivGwqakJ9913H6qrq2Gz2fDlL38ZmzZtQiKRQDQaVZRxq9WK+vp6eDweLCwswGAwYOvWrdixYwdUKhWmpqYQCoVgNBrR0NCAmpoa5HI5pVTylfAaMW4emOJyjbBardi2bZuSlOpyubBt2zbccccdiMVieOyxx1BZWYnq6molxrmiogLBYBAVFRXYs2cP2tvb0dXVhfHxcaTTaVRUVGDLli2oqKjAxMQEKioqcN9996GtrQ1msxk6nQ7Nzc148sknEQwGkUql0NXVBZfLhf7+fmSzWezevRs9PT3I5/MIh8NobGyE1WrFo48+ioqKCsUDU1dXp3yX9vZ2CIKAYrEIlUqF2267De3t7XjkkUeUqjuiKMLtdqOzs1NRRHieR0tLC5555hn8yq/8ilJHXo7hjkQiMJlM2LdvH5qbmxGJRJQGWwDwiU98YoX1iXHp3H333eB5Hg6HA3V1deA4Dlu3bkUul1OU6Hw+j3w+jyeeeALbt29HU1MTotEozGYzKioq4HQ6lRCCqqoqbN++HQsLC0ilUtizZw86OzvR2NiISCSCwcFBJBIJ3HvvvWhubkY6nYZer0djYyM2bdoEp9O57nl0Oh1qamrgcDhgt9ths9ng9XpXHacoiggGg0gkEnA4HPjkJz8JnU6HhYUF1NbWoqGhAR0dHSxU7AbB7XbjiSeegF6vR09PD+x2u1JgQaPRKHKmUCigrq4OjY2N6OrqwpNPPqkoExqNZknsfHd3N+bn5zEzMwOTyYQnn3wSXV1d6OrqwsTEBAKBACwWCz796U/D4/Fgfn4eDocDlZWVSzzra52n3EO+XB4uH6fJZEI8Hkc8HsemTZvQ1dUFnudhNBrR0dGBxsbGiyo9z7hxUavVcLlcePrpp6HT6ZQKo3KOqUajgdvtRnd3t+LJll9Pp9PgeV7JzZJDzHQ6HTo6OtDU1IRMJqMoMBzHged5dHR0oFgswul0KpVOOzo6lCqnMjabDTt37kRPT48SySFX9ctmsyvGI1dMFUURZrNZ8XzW19cjm80uOb/FYlE8j+UGMQZDJS6P+WH8UpAf7FgsBlEUl/SZkBvnZbNZJVxAq9VCEATFAwOQJUYOe4nFYrBYLEp4TDqdRiKRgMFggM1mW7Ihk8+j0WiUTWYikUCxWERlZSXUarVS7ctkMinjkcN6ACwpr5zP55Xvk8/nlaTqQqGgxKrLY9br9Ugmk0qjNYPBgGg0isrKShSLRQiCoITBRSIR2O12FAoFpFIpPPfcczhw4AC+853voKKiAh6Ph1XVucIsv++yx0JufpZIJFAoFGC322EwGMDzPFKplHLfAVoUy8PC4vE4stksrFYrTCYTOI5DLpdbUg5Zr9cjlUohFotBrVYr81BmtfPI400mk7Db7VCr1WuOU61WK+VrDQYD7HY7VCoVYrEYUqkUdDqdUrmOcWNQLpc0Gs2ScqzlcobjOFitVmi1WuRyOaV0tzwvykO00uk0UqkURFFU5Nha8yQUCiGfz8NsNq/oJ7TaeS4kD+VxyuMJhULKBs9kMilyWy6HzPoSMRiMWxGmuDBuCJLJJF5++WUcPXoUX/va1xRLEIPBYDAYDAbj1oApLowbAtn6n8/nYbFYmNLCYDAYDAaDcYvBFJcbnFwup4Rasc38SorFohJKdLUaC8ohHE6nk4WuXQTLQ33W41Lm+cWcn8HYKBczr66W/InFYgCwIkTtYikPDd0osgFpvXK4jCtDsVhEKBTCwYMHMTw8jPr6etx9992XVE2O53lMT0/j5MmT6OnpWbUh8ZXg/PnzcLlcMBgMGB0dxdDQEJ566qklTScZjMuBe/bZZ5+91oO4FUkkEjh37hzm5+dhsVjAcRzm5uYwNTWlNDK7EJlMBr29vfjmN7+JLVu2wGw2r1lK+FoxPT2NsbExpXHlRhEEAYlEAi+//DIcDscleVmCwSCOHj2KV199FTt37txwmVu5GV6xWATHcete00KhgJmZGXzta19DVVWV0pzzRmR4eBjvvPMO3n//fUxPT8NoNMJqta647vl8HocOHUKhUFDKX69HsVhEf38/ZmdnodFolNj8dDqNb3/728jlcuvG7F/qPN/o+a8m/f39GB8fh16vZzkJV5BEIoGzZ8+it7cXQ0NDSKfTMBgMV2xztJb8SSQSOHXqFP793/8dzc3NSgGJ1bhU+XMhYrEYfvKTn6C/vx/t7e0b+s5rzcM33ngDx44dg8Vi2bB8/vjjj7F//36YzWa43e7rzmD25ptv4vTp0xgZGcH8/Dyam5uv9ZAumWg0iqNHj2JyclIpfuLxeFBZWQme5zE6OopcLgeNRgNRFJVy9JlMBvl8HiqVSkm4T6VSEAQB8/PzyrkSiQR8Pp8iU8PhsNI/TlZMY7EY5ufnkU6nYTQal8heuRKkrJynUik8//zzynrP8zwCgQBaW1uXlCCXy9MXCgWMjo4qOa9yrtro6CiSySS0Wi0rT89YATNDXiMSiQSOHj2KmZkZ/MZv/AZqa2tx5swZjI6OKtYUv98PtVoNi8UCvV6vCKhwOKxUFhkfH8dPf/pTfO5zn4MgCPB4PLBarRBFETzPK4JApVItqfwVDAbhdDohCAIymQw0Gg1cLteKMcbjcRiNRjgcDqjVakQiEcXaZjKZkM1ml/SUkfu5AGSZW1xcRCgUUnq0ZLNZLC4uwmKxwGq1KtXLAErSLhdSPM9jYmICO3fuRKFQQC6XUxJc5XK4KpUKJpMJer0e2WwWxWIR2WwWFosFsVgMfX19eOONN/D7v//70Gg0iEQiEAQBDodjyfjlpFmbzYZ8Po+TJ0/C5XKhvb0dTqcTyWQSkUgELpdLsbSm02kEg0GMjY3hpz/9Kfbu3Yvu7m4lkbz8ul3P8DyPqakpHDt2DNPT0+B5HpFIBBMTE/i1X/s1VFRUQBAEJJNJFAoF2Gw2zMzMwO12QxAEpNNpJale7kaeyWSQTCbB8zxsNpsybzweD/L5PFKpFPx+Pw4cOACtVguv1wudTqckTsvnicfjStfoF154AV/84hdRVVWFRCKhzMPlCsFq529tbYXZbF4xzng8rnREL5//PM8rCdly+U9BEBAKhQAAFRUVUKvVSoWc8sW8fP7LXae9Xu+q8z+bzSIYDMJgMMDhcECr1a763DFKxGIxDAwM4IMPPoDD4YBKpYLFYkEul0MqlUI4HIZWq4Xb7VZkUz6fRzQahdPphNFohCiKSCaTK+ZbPp9HMplEPp+HXq9X5A8AZZM3NDSE1157DY8++igqKyuVMtrV1dWKByYSiWBycnKJ/DEYDEvmT/mcyefzSv8XjUYDjUazRP7L8j4YDCIYDOLQoUPQ6/V49NFHl/Ta4nle6dVV3tMoFAohlUop81AuCPDRRx9hbm4OXq8XtbW1CAQCsNlssNlsKzaMqVQKmUwGfX19OHjwIFpaWtDZ2Yl4PI5cLgez2awU6JCR5YAgCKiqqlJ64Mj3hed56HQ6JJNJJBIJWK1WZf3K5/PKOiUX/OA4TnmO5J5icoEOo9EIi8WCyclJzM3NwWw2o62tTRmL3++HKIqryozrlWw2C5/Ph8XFRezYsQMNDQ1wu92IxWI4deoUpqenUSwWsWXLFoiiiP7+fqXNQT6fR1tbG1pbWxGLxfDuu+9ix44dmJqagtvthiiK6OvrU9ZMrVaL0dFR+P1+WK1WNDY2orOzEx9++CHC4TCqqqrQ09OjVOKbnZ3F4OAgfD6fUoEylUrhF7/4Baanp5U5NDo6ir6+PjgcDtTX1yMSiWB0dBRtbW04e/YsQqGQUgK8paUFPp8P58+fh8Viwc6dO9HS0nLdGWQZ1xamuFwF5D4shUIBTU1Nq7rUc7kcpqencfToUUXojI2N4dSpU+B5Hj6fD4ODgygUCvB6vfB4PBgYGIDH48H09DQMBoPStEoQBExNTWF6ehotLS1Kb5NkMonW1lbMzMxApVIhmUwiEAjAbrdjeHgYLpcLGo1GKVm8e/duZSMQDocxPDyMmZkZVFZWYteuXQiFQhgeHkYsFkNVVRW6u7tx+vRpZQEpFotKuU6DwYC+vj5loyhvhs+fP49gMIiOjg7U1tbC7/fj7Nmz4DgOLS0taG5uVsIfBEFQLElyXxqVSgWfz4eWlhbE43Hk83nU19crip/JZEI4HF5RKrT8miaTSTQ0NGDHjh04fvw4rFYrotEoisUiqqurYTQacfjwYdTU1ECr1SKbzWJiYgLj4+Ow2+246667lE2NPC55kxAMBrGwsIDZ2VnY7XZs3boVHo/nmnlh5ubmMDf3/7d358FtXdfhx78AsRIgSHADN4A7RFLcF0siJVlWbK116i1L7dRO3E7jZpxp2qTtJJm0k2naTFNPmvFkaVO3cezWiRXJliXLkmxL1kqJokRxk7iIFHdSXCCQAEFiIYjfH5p3f6IleUlsi7bvZyaTGRgCH4CL996599xzRtFqtZSWlt40XSUYDPLGG28wPj5OVVUVubm5XLx4kWeeeUbctLlcLgYGBtDpdKK8sHLjPz4+Tm9vL3q9nvz8fFJTUxkcHKSvrw+dTkdBQYF4vvJZ9vb2iv5CcO1Gz+VyMTg4SFRUFOvWrUOlUnHp0iWGh4cZHBwUxzs8PMzQ0JAYh2VlZURHR4veFoODgze8vlJa9vrjjIuL4/Lly4yPj4tSusrrDA0N0dHRgc/no6SkBIfDweDgIN3d3YTDYfLz87Hb7Zw7d05UBVSC88rKStFjxuVyiYpQbx//ym+5q6sLs9nMypUr0ev1DA0NLfndKZWtPskikQhzc3M0NzeTnp6OzWZb0iD3ev39/aJx3l133YXRaCQ2NpZwOEx3dzfd3d0sLCyIRpPT09NMT08zMTFBTEyMGL9KUz1lvBkMBkZGRhgYGECj0VBQUCCa7U5MTNDb20tvby8ul4tIJILP56O3t5fLly8TCATIz8+npKSE8fFxOjs7xRiFa7+xnp4eMX6cTicrVqwQFfa6u7sZHx/HbDaL2fRLly6J839WVhYzMzOcO3eO+fl5pqensdlszMzM0NPTQ11dHXNzc7jdbtGIdWZmBrfbjcPhwOPxiGDB5XLR3NyM3+8XvWPm5ua4ePEiXV1dGI1GysrKxA1jJBLB6/XS3t6O2+1mYGAAuHZ+Hh8fF+fA1NRUVq5cSVxcHID4fAYHB1Gr1TidTnQ6nUizUybNUlNTaW9vF+ftnJwcdDodnZ2djI6OUlBQIJoVW61WoqOjOX36NIWFhUQiEQYGBrh69SppaWk4HA4SEhJEaXVlXAwMDNDe3k4oFBKlz5XjvF0ikQiXL1/G5XKRmJhITk7ODc8xGAw4HA6Ghobo6+tDq9WKSpy/+tWvyMjIoLe3V1RMVJpUZmZmMjIyIvphXb16ld27dxMVFcWBAwcIh8NYrVZOnjxJXV0dU1NTtLW14XK50Ov1jI+Pc/jwYZ588kkOHjwozmspKSkicBkfH2dgYIC+vj68Xi8dHR3k5+czMjJCQkICw8PDTE1N8corrxAbG0sgEKC2tpbR0VFef/11Nm/ezMsvv0x5eTlXr15ldHSUiYkJmpubmZmZITU1lby8PDEhKkkKGbh8CObm5vi3f/s3Jicn+d73vkd1dfVNn6fRaHA6nRw/flyUcYVrAcfPfvYzNBoNo6Oj5OTk4HQ6eeqpp6itrSUpKYmenh7y8/PJz89nYWGBixcvMj09TUtLCw6HA5PJxPj4OF//+tc5dOgQgUCAy5cvc/r0aaqrq9FoNDQ0NJCbm0tMTAzz8/PodDrWrVuHTqfj1KlTHDt2jIWFBdLS0igsLOSFF15gYmICj8eDWq3mi1/8It/5zneIiYkhJSVFzGY9/PDD2O12fv7znxOJRHA4HFitVlwuF7/+9a/FhWl4eJimpib6+vqwWq0cOnSIBx98kA0bNojj/dd//VcyMjJEF9+SkhKGhoaYmpqipKSE7u5ucnNzqaur4x//8R/57Gc/y/T0NGq1eknjxUAgQH19PYODg/T09LC4uMi3v/1tvvvd7+J0OrHb7aLPx5YtWzhx4oSY3RoYGODixYv4/X7efPNNvv/977O4uEhjYyPj4+NiKR7gzTff5OLFi2i1Wubm5hgaGuLee++9bT0XXn31VX7xi18QHx/P66+/ftMLQCAQ4MCBA2zbto2SkhLsdjs6nY7q6mouXryIz+fj1KlTjI+PU1NTg8lk4plnnuH+++8nPj5eNOGLiYnhtdde4wtf+AL19fV0dnZSVlaGz+fjwoULLCws4HQ6cblcnD17lry8PPG5Xbx4EbfbzdjYGP39/cC1ZqO9vb3Mzs6KmWqAF198kenpaTEOv/a1r1FUVIRGo2FoaIj9+/ff8PpNTU03HGdFRQWDg4O43W6Ki4tJSkoiLy8PjUbD3r17OXPmDEVFRaIL+3PPPYfX6xWzk3/2Z3/G3//932O1WikqKhKB0lNPPUVjYyPnzp2jvr4em80mZvCV8a/RaGhubqa+vh6TyYTb7aavr0/MMiu/u5UrV6LVaj/xF+5QKMTAwAB//Md/zNe+9jX+9E//9JY9mvr7+7lw4QIPPfQQpaWlYoWrra2NI0eO4HK5aGtrEyuE7e3tzMzMUFBQwIEDB/i7v/s71Gq1SCVSxpvVauXo0aOMj4+zcuVKRkdH+eEPfyhu/C9evIhGo2FiYoJQKMTg4CD9/f1iRvzFF1/kmWee4be//S0jIyOEw2FGRkbESt0LL7wgxs/Ro0f5p3/6J0wmEy6Xi2effZb6+nqKi4tZvXo1TU1NmM1mcf7fsGEDzc3NdHd3ixUUm81GT08PTz31FHv37qW5uZmWlhbC4TCxsbH09/eLG8RLly5hMBhuGIdXr17FYrGIYGZxcZFjx47xuc99jqSkJOLi4lhYWKC1tZUXXngBrVaLx+MBrp039u7dy+DgoAg6/H4/n/nMZ4Brqaf79u0TkzgHDx5k7dq11NfXk5CQIFbJSktL+d3vfkd8fDzhcJiVK1eSnZ3N008/TXV1NaFQiKmpKcLhMGVlZZSXl/O9732Pb33rW1y5ckVM6M3MzDA/P8/4+Dher5euri56enqoqanhZz/7GSqVCr/fj9Vqpa6uji1btnz4A/sdqFQqfvGLX7Bv3z7uu+8+fvjDH97wnISEBLZv347RaOTYsWPs37+f8vJyVq5cSXt7OxkZGcTHxxMKhfB4PCQkJHDfffexZcsWjh49SkdHB6dPnyYmJoYHH3xQ/FZGRkbQ6/WsXr2axx57DIDnn3+eqqoq/uRP/oS+vj7+6q/+SkxGGo1GEUArsrKy8Pl8mEwmBgYG2L17N5///OeJjY2lqKiIoqIijh07hkajYeXKlbz44otEIhHMZrPIbHA6nTz00EO43W4aGhpob28XmRA5OTliZVuSricDlw+BRqNBrVaL/NJb0Wq1rFu3jnPnztHd3c3U1BR+v5/+/n7Onj3LypUrMZlMhMNhrly5gkajoby8nNLSUn7605/S19dHfn4+Op2Obdu2MTU1xZ49e3C73dTW1t70b5rNZlavXs2KFSvo7+9nw4YNZGVlceLECdF34HqxsbHccccdeDweWltbUalUIq97aGiIxcVF7rzzTu69916CwSANDQ00Nzdz+fJlVq1aJWYAp6enOX/+PFu2bOGuu+4iNTWV3bt3c+HCBb797W+TkZHBN77xDXGz+/bNolNTU8TExHDvvffS0dFBT08PDz/8MDt27BApDGNjY2zevJnY2Fiee+45Ojs7RVdiZRbRarUSFRXF2NgY58+fFzfTdXV1HD58mLa2NgoKCoiKiqKyspLVq1eLtJ6xsTGGhoYYHBzk/PnzWCwWvva1r+F2u3nhhRcAGBgYIDExka9+9au0trbyL//yL2Km6naIiopCq9W+4ybiSCTC1NQU0dHRS/Lllb0+k5OTpKSksGXLFiorK5mdnRXjuqGhAavVyl//9V9jNBr50pe+tKRXRW5uLqtWrRKz4L29vcTFxfHII49QWlrKm2++CcCKFStYXFykp6eHxMREOjo6qK+vZ8uWLXzmM5/h7NmzvPHGG8C1zZ9qtVqMw8HBQVasWIFGo6G3txfghte/2XEqaSRxcXE4nU4RtCh0Oh0pKSmUlJTQ3t4uVq4U4XCY/v5+nnjiCbZs2cK5c+c4dOgQjY2N7N27l/Xr1zMyMiL6LI2MjIjxr9fr2bVrF3Nzc/zzP/8zly5d4t///d/RarXYbDZiY2NZvXo1FovlEx+0wLWbOOUGJSoq6h1vVubn53G73Tc8npGRQV1dHd3d3VgsFiYmJlhYWCAhIYHy8nIefPBB4FqqmdPpxGq1LhlvKpVKjPPCwkK6urrEeFB+148++iivv/46XV1d5OfnEx0djcViobu7m8bGRoaGhmhubmbTpk2Ul5ezd+9eXnnlFc6fP79k/ASDQa5evSpWlaampsjOzubrX/86fr+fX//61xQXF4vzf3NzM3v27OEHP/gBFouFK1eu3PLzyc3Npba2lrNnzzI0NMT999/Pnj176O/vv2EcPvvss/T39xMbGysmb8bHx/F4PAwMDBAXF0coFKKhoYHy8nJWr17N+fPn2bFjB36/nxdffJHi4mJsNhsqlYrh4WFxHG1tbYyNjQHXUp6uXLnCnXfeydDQEGfPnqWmpobNmzeze/du0X/H5XLR0dGBVqulurqaJ554gpiYGA4ePEhfX98N71X5Xv7mb/5G7EdU9nF4vV5GR0fF9fQHP/gBNpuN3bt3s3v37tseuMD/Pz+/233Cxo0bWbt2LU899dSSPSk5OTkYDAby8/Npamqira1N/Lvy8nKOHTvGmTNnWLVqFV/4whfo7u5+38f45S9/mcuXL3PmzBlaWlr45je/CcCvfvUrZmZm3rWrvUajoaSkhNdee42zZ89SUFBAZWXlTZ+bnp7O5z73OU6dOsUrr7yC2+1m69atSwImSZKBy4fAYDDwrW99i2Aw+I4/OJVKhU6nY/v27Rw5coTGxkYyMjJEI7WUlBTxP2U1RqvVilkTZTZZpVKh1+vR6/Vir8mtKE36jEajaL6mLMNfH7SsWbOGhIQEmpqa2LFjB3fffTcej4esrCxKSkowm83k5eURFRWFTqfDZDJht9sZHR3l5z//OVlZWaKzdV9fH5FIRHTuVfakLC4uis66SnPLcDh8Q/AE126ilfep0+nEe1BuLJR/q7w+ID6zcDhMZ2cnO3fuJCEhQQSWSr61RqMR6W7hcJioqChUKhVarZapqSlOnTpFY2MjdXV1Ys/Q9Y0Q/X6/SOVR8tRNJpNoDvpO38eHbdu2bVRUVIj3fDPKjNj09DQzMzNiH8rU1BS1tbWMjIygVqvFzJvf7xf/NhQKiSZ5RqNRNBHduHEjIyMjjI6O8stf/lKMVeX/DQbDkuD0tddeA651HddqtczPz4umfMp4USwsLGCz2cQ4LCgoEOPgVq9/s+NMT0+ntLRUpGhGIhHuvPNOdDod9957L06nk46ODn70ox9xzz33YDQaSU5OJjU1VeTIh8Nh0SQ2Pz+fwcFBDhw4wPDwMFlZWXR0dDA4OHjD+FdSkJQZyOjoaILBILW1tVRVVYnfndIZ/uOSk//70mg0OBwOXnnlFZEqdisJCQlkZ2czNzcnzhWhUIj6+nr279/P2rVrxRhaXFwU5zllHEUiEV599VVg6XhT0hmVcX59EKv8rqOjo8Xej8bGRhYWFgiFQqjVarFnQ1mhi46ORqvViu/++vFjtVqXVMhT0mFMJpPYn/L2838gEMBoNBIdHf2OExHKnrX9+/fz6KOPkpubu+Q8ef04VB4fGRlhx44dbNu2TaTnKr+lSCSy5D1dv/dlfn6elJQU7HY7ZrN5SbrTwsICiYmJWCwWrFYr1dXVWCwWAoEAc3Nz+P1+AoEA4XCY3NxckX6s0WhYXFwUf0+5Pt3M9efbYDDIkSNHOHXqlEh5VjaCKx3YlQ7x15/DbpdIJMJXv/pVPve5z92yMML09DSNjY1i4mdgYID8/Hxqa2tpaWmht7cXtVqNWq0We0UV8fHx5OTk0NfXh0ajwW6309PTA1wLEKKjozl69Cizs7OYTCZWrFjBxMQETz/9NJFIhFWrVuHz+WhsbGR0dBSPx7MkiyE6Opq+vj7RLFutVouJHiWbQqHVaqmtreXll18GoK6ujqtXr3LgwAF27tzJ4OAgMTEx1NbWsnPnTpHmKNPEpJuRgcuHQMnnfa8KCgoYGxujvb0dnU5HcnIyeXl5zM/PMzU1hdFofF857soFs6mpiddee42GhoZ3nRV5OyWFYmpqiqGhIfR6PZmZmajVaiYnJwmHw8zOzi4JMiwWCxkZGZhMJjweDykpKQSDQXFMaWlpHDlyhEAgIHJXMzMz2bNnD2azGbPZTGZm5u99kxYKhThx4gQajQaz2Sw2fIfDYYaHh0WlEoPBwOTk5C1fR7mRV/K3L1++TE9PD9nZ2QwPD1NaWorT6WRmZoZdu3ah1+vFBtLk5GQmJyf53e9+R39/P+vWrbuh6MFHKTU1ldTU1Hd8jl6v54EHHuDo0aPs3buX5ORkpqam0Ol01NTUkJCQwOnTp9m3bx9TU1Po9XoRFDqdTubm5njppZfQ6XTk5eWhVquZmJhgeHiY8fFxXC6X2PyckpLC7Owsr776Kv39/QQCAeBa9Ryfzydmk81mM5WVlVy5MKTgMgAAIABJREFUcoVXXnkFl8slbvTsdjsLCwtiHF6/UpiSksKFCxdueP2bHWckEhHFI9xut9hkHQqFGB8fZ2hoiImJCa5cuUJqaipqtVoUaVBmiK+Xnp5OXl4eL730EuXl5dhsNnGTFx0dTVZWlhj/6enpLC4uotfr2bFjB729veTl5aHVasXvbnBwkLm5udsa+H5UlCIbdXV17/pcp9NJTU0N9fX1IlUzLy+P3t5ehoeHGRkZYWRkRNzwTk1Nib19PT09lJWV0dPTIzYQK+MtKyuLwcFB9u3bJ/YGKJ99cnIyY2Nj7Ny5k76+PnH+m5qaYn5+fsmmdLvdTmdnp9j7FRUVRXZ2Nk1NTWL8ACKAuJ5Wq73p+T8+Pp6amhr27dtHQkICXq+X9PR0MemyZ88eRkdH8fl8eDweTp8+TVNTEwaDgbm5ObFCc/04VPbHwLX05u7ubsrKykRql0JJaT5x4oT4LJVjXbdunXh9m80mfm8AmZmZDAwMiCIDarWalpYWIpEIJSUlaLVazp07R15eHqdPnxb7N5Sb6hMnTvDyyy8TExODx+Nhbm6Oo0ePMjExIa4ryvfy3HPPifPSwMCA2NMGiJWJhoYGwuEwbreb1atXv78B+iFQqVTk5OTcdG+LQq/Xk5GRwfT0NPPz82zdupXCwkIcDgePP/44brdbpGM7HA6cTielpaVoNBqioqKora0lPT0di8WC2WymrKyMxx57DKfTSSgUEnv5tm/fTlVVFRMTE2LM2e12UlNTCQQCJCUlYTAYltxHbNiwAYfDQTAYRKPRUFdXR3x8PF/60peYmpoiMTGR6OhosW909erVGAwGYmJiSEtLIy4ujoceegiVSoXD4cBms5GTk4PFYmF2dpaMjAzy8/Nv6/VTWp5kOeTbRKn+kpmZicPhIC4uTizXr1mzRswQGo1GkpKSSEhIQK/Xs2rVKnEycTgcoorVpk2biI6OFhfx/Px8kb+s1WpZsWIFaWlpJCYmUllZSVJSEvPz8xQWFpKcnCxmPG02G2q1mrGxMdxut7iQrFmzhsTERGJiYjAYDFitVtLT04lEIlRVVZGdnU1MTIyoKuZwOKiqqkKv12MwGMjKyiI/P5+GhgY8Hg9Wq5Xc3FxSU1OZmpoiGAxSUlIijk35jKanp0VqjcPhoLy8HJ1OJ1Z8gsEgVqsVlUrF3r17xYbclStXUlVVJf5bZWUlWq2W1NRUkpKSyMjIoLS0lKioKKqrq0VBg5iYGNavX098fLx4vjJrmJ6eTlxcHBUVFRQWFooqVbGxsTgcDmpra0lJSUGv1zM3N4dGo2HTpk1kZ2cv6/4uarVaVOry+XwiFay8vJyamhpiY2NF5SCz2UxsbCxqtZrq6mqKioqwWCziArpq1SpycnLw+Xz4/X6SkpIoKCgQF8GCggJMJhPT09NibFVXV5OSkiLGuTKjXlFRITYvx8fHk5eXR21tLbGxsZjNZjEO7XY78fHxYmY9GAze8PqFhYU3HGdGRoZYyUtNTRUpL3CtAMDMzAxWq5W8vDzq6upYXFwUfzs2NpYVK1aI8Zmeni7SN6anp9m0aRM5OTn4/X4SExMpKysjLS1NjP+kpCSys7NJSEgQ1dfWrl2L1WolGAxiMBhIS0ujuroaq9Uq+9BcJzo6mpiYGK5evYrP5yMQCJCcnCz2ZCilXjMzM0UaZCgUIj09nZiYGNauXStu5K4fb6WlpWJlw2KxkJycTCgUYuPGjWRkZKDRaAgEAiQmJpKSkiJS+SwWC6mpqaSkpLBmzRpiY2NFIJ2UlERmZiabN28WFfaUHH9ls3okEsHj8eBwOKiuriY2NvaG87/D4SArK4vx8XGxclNeXk5+fj5arVasOigTR6FQSJxH09LSMJlMZGdnU1ZWht1uZ2RkBJ1OR3x8PCtXriQvLw+DwUBmZqbYo+B0OkX/GZPJxMTEhChE4XQ6qaioYMWKFWIlMzExkeTkZJEWazAYCIVComJldHQ0cXFxJCQkUFJSIjbO19TUMD09La4vyntVAg+tVkt6ejpms5n5+XlMJhNxcXGsXr2ahIQERkdHaW1tJTk5mcLCQlQqlSgZnJ2dTWVlJRaLhcXFRQKBAFlZWdTV1b2v8vy3i1arJT4+noSEBLFC7HA4xKZ9m81GZmYm6enp2O128vLylqzkxcXFkZWVJYJcq9VKdnY2NpsNi8VCJBLhwoUL3HfffeTl5ZGWlkZmZiZ5eXkiiEhISMBut5Obm7tkxSUpKYm0tDSysrJEsQmj0SiOJT09HYfDQX5+PkajEYvFgsPhID09XWSI5OTkiOtCTk4OsbGxpKSkkJycjNPpJD09/ZZFOqRPL9mA8jZRSnReXzHo7Y29lBt6k8mEyWRa0shMqVajVBhRTlZKQzGltOz1KU0LCwtLXt/r9aLT6UT60/UpAKFQSNx8GgyGJX/X5/Oh0+lEWcbrG7Ep70s5hutrtkciEfbv309LSwv33HMPtbW1BAKBJeWQr7/Bv76xo7K0r9wUBAIBdDodfr8fr9fLsWPH+MY3vsHzzz9PTk4OSUlJIu1C+dyUEqBRUVHExMSg1WqXHL+yVyYxMVF8/krKiNfrJRQKERsbi8FgQK1Wi0ouyjHHxMSI1/F6vUs+t48LJSXAYrGQlpYmHp+bm8Pn86FSqW743n0+n6gep4zDt48TZSZWKULx9s9TWTkJBoNi9lqn0+H1egkEAqIHwM3GofJ9KQKBwC2/r3c6zutfR3m/kUgEi8WCXq8XpbiVsRcfH39D49G3Nxy8vsFfIBC45fg3GAziRuJmvzvpRsr5QQkoldUF5fNXq9UcOnSI5uZmUlJS2LZt27uON7/fL8b5279fn8+Hz+cTZaxjYmJE4HSz8bmwsCBu3mNjY28YP9ePt5s1lLz+/K9UrZuYmBCz6cqkkLKHymw2i9+X3+8X52HlfK+kXSoNNJUxZjKZUKlUN1wv3p6i4/V6l5w/leuFcpx6vX7J4/D/f0dKGq/BYBBpucr5VjmfKKXpr0+zVd6XkpL79vNtMBjkwIEDHD9+nEcffZSSkhKmp6dFCrBGo1lyPVWCrPfTcPOTSqlct3PnTr7yla9gs9nQaDSi9YCyCqqcf+bn5/H7/Uv23SmV4UKh0G2v0iZ9esjA5VNECSKUi+xHbWFhgUuXLvG73/2O9evXs2HDhg/kdZV+BE899RRPP/00DofjY9sE8tNI2SOgFLR4++OflBznD2v8f9opq2Y3O6c1NjbS1dWFzWbjnnvuuQ1HJ33Yzp49S319PRUVFaxevfoTee5X9lIpe7Y0Gs17fp/KvtebrdoqfaTS0tLEPtcrV67Q39+PVquluLhY7Eft6uri8uXLYtU7KioKn89HZ2cnk5OTbNy4Ea1WK1a2lP1Hyp5UOQEjfVBk4PIp0tfXx9DQEDU1NaJh2UdJaaCmzGJ/ULNeyubRubk5ka4mfXycPHmSxMREsrOzl8zWnjx5krS0tI915+vrfVjj/9PuypUrmEymm/bLCoVCYsVXduD+ZFL20Slpc580CwsL9PT0cPz4cVwuF1arleLi4ve0HwwQZeBvVskrEoks2QA/OzvL4cOH2bNnD0ajkccee4zCwkImJyfFftn169ezefNmbDYbp06dYt++fbjdbh544AE2btzI6Ogo+/bto62tjfj4eNavX8/GjRvl70/6wMjE6dsoFApx5swZBgYG8Pv9pKWlUVpauiRF51aUbuWRSOQ9PX90dJQTJ05w7tw5JicnWbt2raiw9VFRq9XEx8e/a5no90upziZPjH+Y5uZmenp68Hg8xMbGUlVVhd1uf9fvKhAIMDMzw9zc3Ht6vkJZgdi/f7/Ye1BaWorBYODMmTM8//zzZGdns337doqLiz+It3hbfVjj/9NKSZ367ne/S21tLQ899NCSVCu4lpr4Yd/MdnR0cPHixff8e5E+WPHx8WIv5yfN/Pw8ly5d4sc//jHV1dUUFxcTExOD2Wxmenr6hpTUqKgoJiYmGB8fJysri/n5eQ4ePEh3d7fYQ+JyuZiYmECv14ueXYojR45w7NgxUazi6tWrzM7Osn//fo4fP05qairR0dG43W66urpobW0VFVADgQCRSISXXnqJUCjE3XffTUJCAjExMXK1RfpAycDlNlE6ER86dEhsntTpdCwuLoryhErDLLg2M6LUxE9NTWVsbIzOzk5UKhWJiYlotVrGxsZEDur1+dOhUIijR49y7NgxsXHc5XJhsVg+8k2/n8SLy8ed0sD0yJEjYjOosiI3OzuL2WwmKiqKYDAoKiEpPXwSExPx+Xy0t7czNTVFfHw8ZrOZq1ev4vF4xCZzuBY8KxuTFxcX8Xg8PPvss4yPj5OTk4PH42F8fJxgMMjhw4cZHBwkLi5ONBL8JIydT8J7WA7m5+cZGRkRjRMdDodYdR0YGBAd6PV6PR6Ph6mpKVGRTgkswuEwHo+HwcFBMjMziYmJIRKJMDk5icfjITs7W5RKVsqkK2XUrz8/BwIBNBqN+M1MTk4yNzcnNqyHw2F6e3vR6/UkJiZiMpluepzS7+ejCE5vF6/XS0tLCyqViuLiYlH6fXh4mJ/+9Kc8+uijREdHc/jwYeBahdJXX30Vi8XC9PQ0Y2NjnDhxArfbzfnz58nIyODIkSN4vV5Rwe7+++8XqVxKGeLY2FhSU1PJzc1Fr9czMzPD1NSU6GafnJzM0NCQqLBos9lENTO3283CwgJarVYUTpHBvPRBkoHLh6SlpYVgMHjLHgwul4sDBw4QDocpLCwkNTVVbC7dtWsXW7duRa/Xc+7cOebn50lOTqapqYmYmBhqampobW0VHXGVXjGtra34fD5RCam0tBS4doHu6+tjYGCAsrIyMjMzMZvNsiPtp8Do6ChDQ0Oo1Wpqampu+pxAIMCBAwfwer2sXr1a9LYwGAzs3r2b2tpakpOT6enpobe3l+LiYlG+tLi4mOnpaQ4fPszc3JxoytfT08P4+LioElRcXMwbb7yB0+mkqqqKqKgo5ufnOX/+PGazWVRqUkopd3Z2sri4iN1uv23NO6Xlye1209nZSUtLC3AtvQWujfXR0VEGBgbQ6XSUlpYSGxsrSqErm+yViZ7+/n4aGhpEJT2n08nIyAidnZ3Mzs7S2dlJXV0dJ06cYHp6GqvVisFgYHx8nPvvvx+fz0d/fz8XLlwQY//q1at0dHQwPz+P0+lEpVLR2toq+m3k5+djtVpFqeT4+HjWrl27pBKU9OnR1dWFy+XCZrORm5t7w3/3+/0MDQ1ht9vJzMwU58K+vj5ee+01UXCisbERuFaw4OTJk6xZs4ZwOCwK/kRFRaHRaGhqamJwcJC0tDR8Ph9nz56lvLxc9GQrLCxkYmKC3t5e2tvbyc/PJzExkfLycpGSd/78eVHp7sqVKzQ3N9Pf38+VK1fIyMhg1apV9Pb2cvnyZTweDytXrqS0tFSOb+kDIwOXD8H09DS7du3C4/Hw1a9+lcLCwps+5/Tp0zz88MPk5+eTnJwMXNtM+p//+Z+iXOT+/fuZnJzkjjvu4PTp0zidTnJycujv7+fy5cukp6czPDxMY2Mj8/PzmM1mLl++zIULF3A6naKCS05ODl1dXbjdbmZnZ29aNUb65GlsbOSVV14hNjaWysrKm37nSv+bu+66ixUrVoi+Am63m//6r/8SFZrq6+s5cOAAX/ziFzl+/DgZGRkkJyczMTFBd3c3RqORyclJcTHW6/WMj4/z1ltv8a1vfYuBgQHi4+NZWFgQ/Seqqqro7u5menpalItNSEjAZrNx9epV0RRQphpICiW9cHFxUVQOBLhw4QLHjh3D6XQyMDDA2NgYNpuNqakpent7KSwspLCwkLi4OLRaLRcuXOCll16ioqICi8WC0Wjk8OHDYiwPDg6SlZXFs88+y8LCAtXV1Wg0Go4ePUpNTQ2XLl2it7eX8+fP43K5SExMpKenh0AgQEJCAhkZGfT29vLrX/+akpIS0bVe6QekpFZWVlbetOmu9MkWDod5/fXXOX36NOvWrbtp4KJ4L42MNRoNcXFx5OXlkZiYKHqxpKenMzk5SWVlJSdPniQnJ4d169YxOjrKwYMH6ezsJCsrS5TAV1Iw29ra0Gg0PProo9TV1REKhdixYwcHDx7EYDCwadMm7rjjDsbGxqivr0etVpOZmcnGjRux2+2cPHmSU6dO0draSm5uLhaLRZ7HpQ+EDIE/BBcuXKCrq4tLly7R1dV10+coJWHfS3M5pfRldHQ06enppKenk5ubS1FRkei1sX//fqqrq/nLv/xLiouLaW9v58qVKywuLqLT6di+fTv33XcfbrebH/3oR5w8eRKv1/tBv3Vpmens7KS+vp7e3l6CweBNb5AikQher1fcAL4TtVqNwWDAYDBgs9nIyMggOzuboqIiiouLWb9+Pc3NzSQnJ/PEE0+wefNm2tra8Hq9/O3f/i333nuv6BwfHx/PN7/5TUpKSjhy5AjPPfccAwMDFBYW8hd/8RdYLBZ27tzJjh07RNM+Sert7aWrq4uvfOUrfP7znxf9SpRmkF//+td55JFHaGpqoqenR5TpVW7ilLQsnU6HxWIRvS5GRkYYHh4W5Y0NBgNwbfN/TU0NTz75JA899BC5ubm0tbXx5ptvYjKZxMRUIBBgz549VFdX8/jjj1NRUcHo6Cg9PT08/vjjPPbYY7hcLs6dO4fRaMRoNFJYWCj3AHxK+f1++vr6aGhooKWl5ab3AtHR0eTm5jI1NYXL5RLl25X+OPPz88zNzREOhzEajRQVFfHlL38ZrVbLiy++SFtbG2q1WlT6Usodz83NiTT0t5evBlixYgVbt26lubmZyclJQqGQaNy7detWTpw4wdDQEEajEafTSUFBAcFgkEuXLuH1esnLy+P+++9nw4YNNDU14fP5PhWNdKWPhlxx+RDccccd/PKXvyQSidyyeZLFYqGiooJgMEg4HH7H13M4HNx7772kpqZy9OhR/H6/OMG8V0rfifLyclJSUti/fz8FBQVYrdb39TrSx8uTTz7Jn//5nxMVFXXLSnIajUY06LxZR/jrWa1Wtm7dSnJyMsePH+f1119/z/nlyg2hsq9KpVJhNBpJTU1l27ZtzM3NcejQIaqqqkQztNzcXJKTk2lubmbTpk3v/wOQPlEikcj7Wp0oKipi3bp1NDQ00NDQwOzsLFu3bsVms7Fu3ToyMzM5ffo03/nOd9i+fbto+lhcXCwa6F4vMTGRjRs3cvjwYUZGRti4ceP7rg5XWlrK448/Tn19Pc8//zxzc3OsX79eND+VPh2MRiPf//73+c53viMyI94uPj6eu+++m3PnzvEP//APWCwWVq5cSWJiIoWFhTz77LOYzWa6urrIzc3lxIkTHDlyhFAohEqlIjMzE41GQ2trKwcOHKCiooJdu3Zx9uxZFhcXsVgsouE1XKvkuHPnTpqbm9HpdKxevRqz2cyrr77Kyy+/zJUrV0hPT2fLli0MDg7y0ksv0djYiNfrJTMzk5ycHHbt2sXk5CR+v5/Z2Vn+6I/+SJRPlqQPggxcPgRarfaG6jZvl5KSwuc//3mef/552tvb0ev1YtNbXl4eO3bsICYmht7eXmw2Gw0NDaJeut1uJykpCY/HQ3NzMxkZGWzdupWzZ8/S3NyM3++npqZG7BkIBoMcPHiQvXv3Mjg4KLrGm83mj+gTkW4XpXnpOzEajTzyyCP89re/5emnn8ZkMpGUlCT2uxw/fpy2tjaRs3z69Gk6OjoYGxvDbreTmJiI3++nubmZY8eOUV5ezsTEBE8//TSRSIQ1a9ZgsVj4yU9+QmVlJXfffTcGg4Hp6Wn++7//m5MnT6JSqcjPz6eyspL29nZ++9vfilnIqKgoKioqPqJPTFrOVCoVeXl55OXl8ZOf/ITU1FTUajUxMTEiPebpp5+mt7eX0tJSdDodjY2NdHd343a7Rb+XUChER0cHR48exefzoVarcTgczM7OMjg4SG9vLz6fj5KSkiV/PzY2lpqaGp555hmKi4ux2+10d3cDoNfr+exnP8uRI0doaWmhoKBAzFL/z//8DyMjI5jNZuLj49m3bx8ulwuv14tKpZL5/59Cyri9WRnv658TFxfHE088QW9vLwsLCyQmJpKQkMBnPvMZxsbGsFgszM/Pi9+Acl1XUm49Hg8VFRXYbDZsNptoxmwwGEhMTFyy4lddXU1UVBT5+fno9Xo2b96Mw+EQ+8NaWlpYs2YNVVVVaDQa0tLSSElJwePx8MADD2Cz2di8eTNDQ0N4vV7MZjMrVqy45QSuJP0+ZB+X22RxcRGv10t9fb3oPGy328nKymJ0dFRsbPZ4PCLNYXBwEK/XS0FBATExMYyOjjIxMUFRUREAPT09omt0Tk6OSGEIh8N0dXVx6NAhOjo6qKyspLa2luzsbHlCkYhEIvj9fs6ePcvQ0BDz8/NidW50dJQrV66g0+nE6mBZWRl9fX14PB6xz2V6epqLFy9SVlaGVqtleHiYqakpjEYjDocDp9PJwYMHyc7OpqSkRFRrOnPmDHv37sVkMnHHHXeIhmdnzpzh//7v/8jKymLbtm1UVFS862SA9OmglGLt6OggMTERl8tFSUkJVquVvr4+pqen8fv9FBYWiupKIyMjBINBSkpKyMzMRKfTMTAwQEdHhxj/1dXVjI+PMzo6ilqtJhQKceedd7Jnzx7y8/OpqanBaDTi9/vZsWMH+fn5FBQUMDo6yoULF6isrCQUCvH8888DUFdXR2FhIYODg7jdbvx+Pw6Hg5iYGFwuFz6fD4/HQ3V1NQ6HQ6SmSdLN+Hw+Ua1LWaGZnZ1Fp9OJvYBqtRqfzwdcm7TSaDQsLCwQDAZRqVQYDAaCwSDBYBCNRnPT6//MzAyTk5NERUXhcDjESsno6ChjY2NkZ2cTFxcn/tbo6Cjz8/NLigF5vV4CgQAGg0Get6UPnAxcloGZmRlCoRAGgwGz2czi4iJut1ucVJTu4TMzM8C1WT/lxs/v92MymdBqtXg8niWv83aXL1+mr6+PoqIibDabnOWTbjA7O4vf71+yajgzM0NUVJTorGwwGHC73UQiEUwmE0ajkVAohMfjEWW9lRzqt7+OTqe74WJ5/PhxTCYTOTk5xMXFiYaiL7/8Mnl5eZSVlX3kZbul5S0UConxpFKp0Ov16HS6JY+bTCZRvc7n86FSqbBareK8FwwGmZ+fF+WNlXL0fr8fv98vnu/1epeM20gkgs/nw2g0LikTrqSM/e///i/T09NUVVWxZs0acT5XbhSjoqIIBALMzc0tOU5JWs7C4TCLi4s3pAbf6nFJ+rDIwOVTJBwOEw6HZaNGaVlRynW+/ebtVo9L0nLW2NjIyMgIDofjpt3KJUmSpN+fDFwkSZIk6R0oFfeioqKWFLhQHr9+RfD61RW5UihJkvTBkrlCkiRJkvQOLl68SGtrK4FA4IbHL168uOQxg8FAd3f3DY9LkiRJfzg5HSRJkiR9rExPT3Pu3DmGh4cJh8Pk5eVRWFgoerq8E6/Xy8zMDHq9/j09v6+vj0OHDnH16lUmJydZtWoVsbGxtLS0sHPnTtEXY/Xq1QDU19dz5MgRoqOjWVxcpLy8/A9+v5IkSdI1MnCRJEmSPjYmJydpamqivr6evLw8dDodOp2OhYUF5ubmxCb5ubk5NBoNfr+fqakp1Go1drud/v5+enp6sNlsojrS0NAQi4uLJCYmYrFYAESRiN27d9PW1kZSUhKzs7NMTk7icrk4ceIEXV1dWK1WPB4PPp+PCxcu0NzczMzMDFqtFrfbfTs/KkmSpE8cGbhIkiRJt1UkEiEQCHD8+HFyc3NJS0u7ZXngvr4+6uvr0Wg0VFVViSqKQ0NDNDQ0cNdddwHw1ltvERcXB1wrFa/0ojh9+jQXL14kNzeXuLg4QqEQZ8+eRaVSkZycTEFBAXl5ecC1PSwdHR1MTEyQm5tLRkYGer2eiYkJLl26hM/no7CwkMzMTMLhMH19fYyNjaHVarHb7aSnp380H6AkSdKnhAxcJEmSpNtqYWGBsbExfvzjH/PAAw+wdetWMjIybvrckZERuru7+eIXv0hubq7obn/o0CF2794tmkb+5je/weFwkJiYSG9vL4WFhRQWFtLd3c3g4CCxsbF0d3dz/vx5FhYWiIuLo729nfHxcex2OzqdDrVaTVFREV6vV/SHsVgsLCwskJyczMDAAIuLi6JkfXp6Ol1dXYyPjxMIBMTqjyRJkvTBkJvzJUmSpNtqfn6eS5cu0dPTQ2trK5OTk7d8bjAYxOfz8V4KYmo0GvR6vWjim56ezooVKygqKqK6upr09HTeeOMNHnzwQZ588kni4+Pp7OzE5XKJhn2PPfYYd955Jx0dHfz85z+ntbWVjIwMHnnkEXJzc3nrrbf4j//4D6anp1mzZg0bNmwgFAqxZ88edu7cKSqPSZIkSX84ueIiSZIk3VYxMTFs2LCBU6dOodfrb9rRW2Gz2XA6ne8peCkqKmLdunU0NDTQ0NAg9qi8HwaDgaSkJNavX49Op+Oll16ioqICu92O3W7H7/dTVlbGiRMn2LRpEw6HgzVr1tDW1obX66W1tZXS0lJZGlmSJOkDIM+kkiRJ0m2lUqnQ6XQkJia+63MLCwu5evUqL7/8MufOnUOtVlNZWcnc3Bxms5lf/epXmEwmJicnuXz5sihP7Ha7UalUpKWl0draytmzZykvL+eee+5h165d6HQ6vF4v5eXlJCQkiH03v/nNbzh06BAzMzNkZWVRXl7O8PAw+/fv56233sLtdrO4uMjDDz9MU1MTx44do62tjdnZWcrKyrDb7ajVMrlBkiTpgyADF0mSJOljIyEhgVWrVqFWq0XQkJmZSVxcHJmZmbhcLuLj40lPT8fhcGA2m9HpdBQUFFBSUoJGo8FmsxEOh8nOziYnJ4fOzk4WFhZISkoiPz9f7JvRaDSUlJQwMjLCzMwM1dXV1NTUYLFYKC0t5dLdbmKVAAACUElEQVSlS6SkpLB9+3YKCgrweDxMTk7i8/kwmUzcc889WK1WGbhIkiR9QFSR95IoLEmSJEnLyOLiIm63m0gkgslkwmg0EgqF8Hg8mEwmFhYW0Ol0hMNhfD4fKpVKBBGzs7OEw2Gio6OJioq64XXerqWlBZ/PR35+vuj9EgqFOHLkCAAbNmxAq9UC18o1X7p0CZPJRFlZ2Uf2eUiSJH0ayMBFkiRJkt5BKBQCEMHJ7/u4JEmS9IeRgYskSZIkSZIkScueTLyVJEmSJEmSJGnZk4GLJEmSJEmSJEnLngxcJEmSJEmSJEla9mTgIkmSJEmSJEnSsicDF0mSJEmSJEmSlj0ZuEiSJEmSJEmStOzJwEWSJEmSJEmSpGVPBi6SJEmSJEmSJC17MnCRJEmSJEmSJGnZk4GLJEmSJEmSJEnLngxcJEmSJEmSJEla9mTgIkmSJEmSJEnSsicDF0mSJEmSJEmSlj0ZuEiSJEmSJEmStOzJwEWSJEmSJEmSpGVPBi6SJEmSJEmSJC17MnCRJEmSJEmSJGnZk4GLJEmSJEmSJEnLngxcJEmSJEmSJEla9mTgIkmSJEmSJEnSsicDF0mSJEmSJEmSlj0ZuEiSJEmSJEmStOzJwEWSJEmSJEmSpGVPBi6SJEmSJEmSJC17MnCRJEmSJEmSJGnZk4GLJEmSJEmSJEnLngxcJEmSJEmSJEla9mTgIkmSJEmSJEnSsicDF0mSJEmSJEmSlj0ZuEiSJEmSJEmStOzJwEWSJEmSJEmSpGVPBi6SJEmSJEmSJC17/w+voZj3zMpcHQAAAABJRU5ErkJggg==;" vertex="1" parent="1">
          <mxGeometry x="7" y="600" width="814" height="352" as="geometry" />
        </mxCell>
        <mxCell id="MpWA2WPv93gBQgQGuGjF-7" value="Hora" style="text;html=1;align=center;verticalAlign=middle;whiteSpace=wrap;rounded=0;" vertex="1" parent="1">
          <mxGeometry x="160" y="710" width="60" height="30" as="geometry" />
        </mxCell>
        <mxCell id="MpWA2WPv93gBQgQGuGjF-8" value="Minuto" style="text;html=1;align=center;verticalAlign=middle;whiteSpace=wrap;rounded=0;" vertex="1" parent="1">
          <mxGeometry x="330" y="710" width="60" height="30" as="geometry" />
        </mxCell>
        <mxCell id="MpWA2WPv93gBQgQGuGjF-9" value="Segundo" style="text;html=1;align=center;verticalAlign=middle;whiteSpace=wrap;rounded=0;" vertex="1" parent="1">
          <mxGeometry x="510" y="710" width="60" height="30" as="geometry" />
        </mxCell>
      </root>
    </mxGraphModel>
  </diagram>
</mxfile>
